<?xml version="1.0" standalone="no"?>
<!DOCTYPE svg PUBLIC "-//W3C//DTD SVG 1.1//EN" "http://www.w3.org/Graphics/SVG/1.1/DTD/svg11.dtd" >
<svg xmlns="http://www.w3.org/2000/svg" xmlns:xlink="http://www.w3.org/1999/xlink" version="1.1">
<metadata>
Created by FontForge 20161116 at Wed Jan 14 08:07:57 2015
 By Jimmy Warting
\(c\) 2014 Apple Inc. All rights reserved.
</metadata>
<defs>
<font id="SanFranciscoDisplay-Thin" horiz-adv-x="0" >
  <font-face 
    font-family="San Francisco Display"
    font-weight="265"
    font-stretch="normal"
    units-per-em="2048"
    panose-1="0 0 0 0 0 0 0 0 0 0"
    ascent="1638"
    descent="-410"
    x-height="1035"
    cap-height="1360"
    bbox="-550 -482 2048 1981"
    underline-thickness="50"
    underline-position="-75"
    stemh="128"
    stemv="148"
    unicode-range="U+000D-FB02"
  />
<missing-glyph horiz-adv-x="1293" 
d="M120 0v1365h1053v-1365h-1053zM501 313c0 -63 49 -107 120 -107c74 0 122 43 122 107c0 65 -48 108 -122 108c-72 0 -120 -44 -120 -108zM339 888h169c1 79 49 130 125 130c72 0 120 -43 120 -110c0 -51 -20 -78 -103 -138c-92 -65 -125 -129 -118 -221l1 -18h166v15
c0 64 15 87 107 153c97 70 133 130 133 218c0 151 -117 250 -296 250c-190 0 -310 -109 -304 -279z" />
    <glyph glyph-name=".notdef" horiz-adv-x="1293" 
d="M120 0v1365h1053v-1365h-1053zM501 313c0 -63 49 -107 120 -107c74 0 122 43 122 107c0 65 -48 108 -122 108c-72 0 -120 -44 -120 -108zM339 888h169c1 79 49 130 125 130c72 0 120 -43 120 -110c0 -51 -20 -78 -103 -138c-92 -65 -125 -129 -118 -221l1 -18h166v15
c0 64 15 87 107 153c97 70 133 130 133 218c0 151 -117 250 -296 250c-190 0 -310 -109 -304 -279z" />
    <glyph glyph-name=".null" 
 />
    <glyph glyph-name="CR" unicode="&#xd;" 
 />
    <glyph glyph-name="space" unicode=" " horiz-adv-x="422" 
 />
    <glyph glyph-name="exclam" unicode="!" horiz-adv-x="487" 
d="M166 62c0 44 34 78 76 78c44 0 79 -34 79 -78c0 -43 -35 -77 -79 -77c-42 0 -76 34 -76 77zM200 1360h87l-8 -987h-71z" />
    <glyph glyph-name="quotedbl" unicode="&#x22;" horiz-adv-x="608" 
d="M133 1360h95l-17 -431h-62zM380 1360h96l-17 -431h-62z" />
    <glyph glyph-name="numbersign" unicode="#" horiz-adv-x="1195" 
d="M1145 881h-248l-78 -392h234l-14 -70h-235l-87 -419h-71l86 419h-354l-86 -419h-72l86 419h-234l14 70h236l78 392h-222l13 70h224l84 413h73l-86 -413h354l85 413h72l-85 -413h247zM472 881l-78 -392h353l79 392h-354z" />
    <glyph glyph-name="dollar" unicode="$" horiz-adv-x="1048" 
d="M182 1041c0 -142 92 -225 256 -272c5 -2 54 -15 59 -17v547c-193 -9 -315 -110 -315 -258zM895 349c0 159 -93 240 -308 298c-3 1 -14 4 -17 5v-588c196 13 325 120 325 285zM570 -143h-73v133c-302 9 -434 191 -435 356h84c3 -137 120 -271 351 -282v606l-89 24
c-186 49 -309 147 -309 339c0 200 156 329 398 340v133h73v-134c239 -14 384 -151 388 -322h-81c-3 113 -99 235 -307 249v-566l50 -12c244 -64 358 -169 358 -365c0 -221 -166 -350 -408 -364v-135z" />
    <glyph glyph-name="percent" unicode="%" horiz-adv-x="1434" 
d="M145 1071v-31c0 -160 78 -253 173 -253c93 0 171 92 171 252v31c0 158 -77 252 -171 252c-96 0 -173 -95 -173 -251zM76 1037v36c0 193 110 314 242 314c131 0 240 -120 240 -314v-37c0 -194 -109 -314 -241 -314s-241 120 -241 315zM945 339v-31
c0 -159 78 -253 172 -253s172 93 172 253v31c0 157 -77 251 -171 251c-96 0 -173 -95 -173 -251zM876 305v37c0 192 109 313 241 313c131 0 241 -120 241 -314v-37c0 -193 -109 -314 -241 -314s-241 120 -241 315zM243 0h-83l514 680l514 680h83l-514 -680z" />
    <glyph glyph-name="ampersand" unicode="&#x26;" horiz-adv-x="1268" 
d="M1135 0l-162 174c-127 -138 -305 -201 -461 -201c-229 0 -432 131 -432 369c0 125 59 255 278 367c4 2 72 37 76 39c-128 130 -198 221 -198 340c0 176 150 284 322 284c191 0 314 -131 314 -288c0 -145 -106 -249 -315 -354l410 -439c54 83 95 240 100 397
c1 19 1 48 1 68h78c0 -22 0 -52 -1 -72c-5 -174 -50 -346 -122 -448l223 -236h-111zM402 651c-147 -77 -238 -174 -238 -308c0 -172 150 -295 349 -295c141 0 305 61 407 180l-434 467c-3 -2 -80 -42 -84 -44zM506 781c210 102 283 189 283 300c0 124 -92 218 -232 218
c-134 0 -238 -87 -238 -215c0 -102 65 -178 187 -303z" />
    <glyph glyph-name="quotesingle" unicode="'" horiz-adv-x="361" 
d="M133 1360h95l-17 -431h-62z" />
    <glyph glyph-name="parenleft" unicode="(" horiz-adv-x="570" 
d="M409 1362h66c-76 -96 -240 -360 -240 -796c0 -434 160 -703 239 -829h-71c-89 115 -249 392 -249 829c0 438 157 669 255 796z" />
    <glyph glyph-name="parenright" unicode=")" horiz-adv-x="569" 
d="M95 1362h65c97 -127 255 -358 255 -796c0 -437 -161 -714 -249 -829h-70c78 126 238 395 238 829c0 436 -164 700 -239 796z" />
    <glyph glyph-name="asterisk" unicode="*" horiz-adv-x="840" 
d="M452 698h-62l6 284l-249 -145l-31 55l256 133l-256 147l31 53l249 -159l-6 298h62l-7 -298l248 159l31 -53l-256 -147l256 -133l-31 -55l-248 145z" />
    <glyph glyph-name="plus" unicode="+" horiz-adv-x="1048" 
d="M560 516v-482h-72v482h-437v72h437v465h72v-465h438v-72h-438z" />
    <glyph glyph-name="comma" unicode="," horiz-adv-x="350" 
d="M127 -292h-66l88 400h94z" />
    <glyph glyph-name="hyphen" unicode="-" horiz-adv-x="763" 
d="M696 525h-630v73h630v-73z" />
    <glyph glyph-name="period" unicode="." horiz-adv-x="429" 
d="M138 61c0 43 34 77 76 77c43 0 78 -34 78 -77s-35 -76 -78 -76c-42 0 -76 33 -76 76z" />
    <glyph glyph-name="slash" unicode="/" horiz-adv-x="628" 
d="M104 -315h-69l494 1750h70z" />
    <glyph glyph-name="zero" unicode="0" horiz-adv-x="1097" 
d="M194 736v-113c0 -376 135 -581 347 -581s347 205 347 581v113c0 377 -135 581 -347 581s-347 -204 -347 -581zM111 625v108c0 422 163 658 430 658s430 -236 430 -658v-108c0 -421 -163 -656 -430 -656s-430 235 -430 656z" />
    <glyph glyph-name="one" unicode="1" horiz-adv-x="759" 
d="M522 0h-81v1266h-4c-17 -9 -314 -201 -337 -217v86c25 18 318 210 344 223h78v-1358z" />
    <glyph glyph-name="two" unicode="2" horiz-adv-x="1085" 
d="M216 1020h-81v4c0 179 133 367 404 367c260 0 399 -165 399 -358c0 -169 -109 -296 -204 -406l-479 -552v-2h714v-73h-827v64l537 617c83 96 174 203 174 355c0 145 -108 282 -315 282c-209 0 -321 -145 -322 -294v-4z" />
    <glyph glyph-name="three" unicode="3" horiz-adv-x="1097" 
d="M385 665v74h121c216 0 338 136 337 298c0 157 -117 281 -319 281c-229 0 -311 -172 -313 -283h-82c1 143 108 356 397 356c251 0 401 -151 402 -346c2 -205 -152 -324 -284 -338v-2c164 -12 348 -127 349 -346c1 -230 -202 -391 -461 -391c-290 0 -429 188 -431 372h81
c5 -147 121 -298 353 -298c217 0 375 134 374 315c0 187 -165 308 -388 308h-136z" />
    <glyph glyph-name="four" unicode="4" horiz-adv-x="1106" 
d="M703 1360h121v-955h198v-74h-198v-331h-77v331h-662v73c42 75 570 880 618 956zM173 405h574v882h-4c-40 -60 -534 -816 -570 -879v-3z" />
    <glyph glyph-name="five" unicode="5" horiz-adv-x="1113" 
d="M125 328h83c8 -120 111 -286 352 -286c201 0 365 164 365 380s-150 379 -365 379c-179 0 -295 -111 -333 -185h-77l91 744h672v-73h-604l-75 -570h2c28 48 148 158 332 158c257 0 441 -192 441 -452c0 -254 -191 -454 -454 -454c-301 0 -426 210 -430 359z" />
    <glyph glyph-name="six" unicode="6" horiz-adv-x="1077" 
d="M975 1039h-80c-13 122 -113 262 -303 262c-231 0 -415 -213 -418 -705h2c37 137 182 271 398 271c206 0 433 -165 433 -450c0 -272 -193 -448 -446 -448c-264 0 -464 182 -464 608c0 567 218 797 500 797c224 0 360 -175 378 -335zM197 437c0 -235 155 -395 366 -395
c206 0 362 148 362 367c0 240 -180 384 -361 384c-189 0 -367 -156 -367 -356z" />
    <glyph glyph-name="seven" unicode="7" horiz-adv-x="1048" 
d="M108 1360h817v-78l-586 -1282h-89l593 1282v4h-735v74z" />
    <glyph glyph-name="eight" unicode="8" horiz-adv-x="1117" 
d="M559 41c216 0 374 133 374 328c0 181 -152 315 -374 315c-223 0 -376 -134 -376 -315c0 -195 159 -328 376 -328zM559 752c183 0 323 116 323 280c0 173 -137 286 -323 286s-324 -113 -324 -286c0 -164 140 -280 324 -280zM557 -31c-264 0 -456 162 -456 393
c0 226 184 337 301 356v6c-98 22 -249 119 -249 314c0 206 166 352 406 352c239 0 405 -146 405 -352c0 -196 -152 -293 -249 -314v-6c117 -19 301 -131 301 -356c0 -231 -194 -393 -459 -393z" />
    <glyph glyph-name="nine" unicode="9" horiz-adv-x="1077" 
d="M100 324h80c14 -118 106 -273 321 -273c249 0 389 194 389 705h-2c-44 -129 -156 -265 -380 -265c-222 0 -429 159 -429 451c0 266 192 448 432 448c271 0 457 -181 457 -663c0 -533 -173 -749 -473 -749c-252 0 -382 185 -395 346zM868 913c0 235 -135 405 -354 405
c-200 0 -352 -157 -352 -376c0 -237 159 -378 360 -378c187 0 346 153 346 349z" />
    <glyph glyph-name="colon" unicode=":" horiz-adv-x="418" 
d="M132 816c0 42 34 76 75 76c43 0 78 -34 78 -76c0 -43 -35 -77 -78 -77c-41 0 -75 34 -75 77zM132 79c0 43 34 77 75 77c43 0 78 -34 78 -77c0 -42 -35 -76 -78 -76c-41 0 -75 34 -75 76z" />
    <glyph glyph-name="semicolon" unicode=";" horiz-adv-x="428" 
d="M118 816c0 42 34 76 76 76c43 0 77 -34 77 -76c0 -43 -34 -77 -77 -77c-42 0 -76 34 -76 77zM145 -259h-66l81 367h94z" />
    <glyph glyph-name="less" unicode="&#x3c;" horiz-adv-x="1048" 
d="M125 467v79l780 538v-88l-703 -481v-10l703 -448v-88z" />
    <glyph glyph-name="equal" unicode="=" horiz-adv-x="1048" 
d="M933 332h-820v71h820v-71zM933 689h-820v71h820v-71z" />
    <glyph glyph-name="greater" unicode="&#x3e;" horiz-adv-x="1048" 
d="M930 546v-79l-781 -498v88l704 448v10l-704 481v88z" />
    <glyph glyph-name="question" unicode="?" horiz-adv-x="879" 
d="M341 62c0 44 34 78 77 78s78 -34 78 -78c0 -43 -35 -77 -78 -77s-77 34 -77 77zM62 1059c8 188 141 333 386 333c202 0 369 -113 369 -318c0 -150 -85 -240 -205 -331c-135 -103 -156 -169 -156 -261v-89h-82v100c0 119 47 197 187 303c114 88 172 159 172 275
c0 166 -136 248 -291 248c-224 0 -296 -157 -302 -260h-78z" />
    <glyph glyph-name="at" unicode="@" horiz-adv-x="1638" 
d="M1242 171c-122 0 -206 66 -218 156h-5c-10 -39 -69 -156 -222 -156c-145 0 -256 102 -256 310v96c0 178 89 303 258 303c153 0 202 -107 211 -147h5v131h69v-472c0 -126 92 -160 165 -160c111 0 224 98 224 365v38c0 321 -226 605 -630 605h-7
c-385 0 -655 -266 -655 -708v-35c0 -439 291 -669 654 -669h9c133 0 222 17 298 44v-65c-60 -24 -152 -43 -298 -43h-9c-415 0 -727 256 -727 727v48c0 470 299 766 728 766h7c448 0 699 -322 699 -666v-53c0 -277 -140 -415 -300 -415zM615 489c0 -180 91 -252 196 -252
c95 0 199 59 199 226v121c0 121 -67 232 -199 232c-119 0 -196 -90 -196 -243v-84z" />
    <glyph glyph-name="A" unicode="A" horiz-adv-x="1149" 
d="M129 0h-85l488 1360h85l488 -1360h-88l-160 458h-567zM576 1259h-5l-258 -731h519z" />
    <glyph glyph-name="B" unicode="B" horiz-adv-x="1208" 
d="M190 0v1360h441c244 0 395 -124 395 -333c0 -201 -141 -294 -234 -315v-5c163 -17 310 -122 310 -339c0 -225 -160 -368 -448 -368h-464zM272 1285v-549h338c182 0 332 87 332 280c0 176 -124 269 -324 269h-346zM272 661v-586h361c239 0 385 99 385 292
c0 203 -162 294 -359 294h-387z" />
    <glyph glyph-name="C" unicode="C" horiz-adv-x="1245" 
d="M217 803v-248c0 -284 132 -511 433 -511c244 0 395 153 395 337h80v-3c0 -206 -172 -409 -476 -409c-358 0 -514 258 -514 594v231c0 334 163 597 510 597c314 0 471 -226 471 -415v-3h-80c0 153 -136 343 -391 343c-291 0 -428 -229 -428 -513z" />
    <glyph glyph-name="D" unicode="D" horiz-adv-x="1294" 
d="M190 1360h366c433 0 608 -273 608 -680c0 -405 -166 -680 -608 -680h-366v1360zM272 1285v-1210h284c369 0 525 235 525 605c0 366 -157 605 -525 605h-284z" />
    <glyph glyph-name="E" unicode="E" horiz-adv-x="1073" 
d="M966 75v-75h-776v1360h776v-76h-694v-550h660v-75h-660v-584h694z" />
    <glyph glyph-name="F" unicode="F" horiz-adv-x="1004" 
d="M272 0h-82v1360h765v-76h-683v-563h627v-76h-627v-645z" />
    <glyph glyph-name="G" unicode="G" horiz-adv-x="1263" 
d="M1123 1007h-79c-6 145 -133 309 -392 309c-261 0 -435 -193 -435 -515v-228c0 -308 142 -529 433 -529c239 0 400 129 400 353v186h-407v75h485v-261c0 -251 -177 -428 -477 -428c-353 0 -516 259 -516 604v228c0 358 197 590 518 590c313 0 466 -196 470 -384z" />
    <glyph glyph-name="H" unicode="H" horiz-adv-x="1334" 
d="M1143 0h-82v676h-789v-676h-82v1360h82v-609h789v609h82v-1360z" />
    <glyph glyph-name="I" unicode="I" horiz-adv-x="493" 
d="M287 0h-81v1360h81v-1360z" />
    <glyph glyph-name="J" unicode="J" horiz-adv-x="907" 
d="M37 295h81c1 -103 71 -240 263 -240c156 0 272 93 272 301v1004h82v-1000c0 -259 -146 -380 -356 -380c-250 0 -342 177 -342 315z" />
    <glyph glyph-name="K" unicode="K" horiz-adv-x="1109" 
d="M1060 1360l-558 -604l590 -756h-106l-544 700l-170 -179v-521h-82v1360h82v-730h3l681 730h104z" />
    <glyph glyph-name="L" unicode="L" horiz-adv-x="1013" 
d="M955 75v-75h-765v1360h82v-1285h683z" />
    <glyph glyph-name="M" unicode="M" horiz-adv-x="1575" 
d="M267 0h-75v1360h81l512 -1160h4l514 1160h80v-1360h-75v1177h-4l-478 -1072h-77l-478 1072h-4v-1177z" />
    <glyph glyph-name="N" unicode="N" horiz-adv-x="1334" 
d="M272 0h-82v1360h85l782 -1216h4v1216h82v-1360h-84l-783 1216h-4v-1216z" />
    <glyph glyph-name="O" unicode="O" horiz-adv-x="1309" 
d="M216 806v-256c0 -307 167 -506 438 -506c272 0 439 199 439 506v256c0 307 -169 510 -439 510c-269 0 -438 -203 -438 -510zM135 556v244c0 358 191 591 520 591s519 -234 519 -593v-242c0 -358 -191 -587 -520 -587s-519 229 -519 587z" />
    <glyph glyph-name="P" unicode="P" horiz-adv-x="1126" 
d="M190 1360h439c270 0 423 -156 423 -401s-153 -399 -423 -399h-357v-560h-82v1360zM272 1285v-651h327c234 0 369 107 369 325c0 205 -125 326 -342 326h-354z" />
    <glyph glyph-name="Q" unicode="Q" horiz-adv-x="1310" 
d="M135 568v233c0 358 189 590 519 590s520 -232 520 -590v-233c0 -217 -70 -388 -199 -488l182 -248h-93l-152 206c-72 -39 -159 -60 -258 -60c-330 0 -519 231 -519 590zM216 807v-245c0 -308 166 -509 438 -509c80 0 151 17 210 49l-180 245h98l146 -201
c106 87 165 233 165 416v245c0 307 -168 509 -439 509c-270 0 -438 -202 -438 -509z" />
    <glyph glyph-name="R" unicode="R" horiz-adv-x="1187" 
d="M637 1360c259 0 411 -159 411 -382c0 -213 -128 -329 -289 -368l312 -610h-95l-302 594h-402v-594h-82v1360h447zM272 667h351c211 0 342 117 342 308c0 195 -132 311 -340 311h-353v-619z" />
    <glyph glyph-name="S" unicode="S" horiz-adv-x="1141" 
d="M100 345h83c5 -125 105 -301 390 -301c227 0 378 124 378 298c0 168 -111 236 -317 291l-178 48c-187 50 -311 150 -311 345c0 222 176 366 436 366c265 0 427 -150 429 -344h-84c-5 125 -104 269 -346 269c-217 0 -351 -115 -351 -289c0 -152 92 -226 264 -272l172 -47
c235 -64 370 -146 370 -362c0 -236 -197 -378 -471 -378c-345 0 -463 222 -464 376z" />
    <glyph glyph-name="T" unicode="T" horiz-adv-x="1025" 
d="M554 0h-81v1285h-459v75h997v-75h-457v-1285z" />
    <glyph glyph-name="U" unicode="U" horiz-adv-x="1310" 
d="M250 1360v-891c0 -257 145 -423 405 -423c261 0 404 165 404 423v891h83v-891c0 -302 -181 -500 -487 -500s-487 199 -487 501v890h82z" />
    <glyph glyph-name="V" unicode="V" horiz-adv-x="1163" 
d="M622 0h-90l-494 1360h91l448 -1258h4l453 1258h90z" />
    <glyph glyph-name="W" unicode="W" horiz-adv-x="1672" 
d="M483 0h-87l-361 1360h92l313 -1233h4l348 1233h88l348 -1233h4l313 1233h92l-362 -1360h-86l-351 1226h-5z" />
    <glyph glyph-name="X" unicode="X" horiz-adv-x="1122" 
d="M1079 1360l-469 -683l464 -677h-99l-414 611h-5l-415 -611h-95l465 680l-465 680h98l417 -613h5l417 613h96z" />
    <glyph glyph-name="Y" unicode="Y" horiz-adv-x="1060" 
d="M571 0h-81v607l-470 753h96l411 -668h6l413 668h94l-469 -751v-609z" />
    <glyph glyph-name="Z" unicode="Z" horiz-adv-x="1152" 
d="M96 0v65l850 1217v4h-823v74h924v-65l-849 -1217v-5h853v-73h-955z" />
    <glyph glyph-name="bracketleft" unicode="[" horiz-adv-x="580" 
d="M154 1360h343v-63h-266v-1457h279v-63h-356v1583z" />
    <glyph glyph-name="backslash" unicode="\" horiz-adv-x="628" 
d="M593 -315h-69l-496 1750h70z" />
    <glyph glyph-name="bracketright" unicode="]" horiz-adv-x="580" 
d="M83 1360h343v-1583h-356v63h279v1457h-266v63z" />
    <glyph glyph-name="asciicircum" unicode="^" horiz-adv-x="749" 
d="M664 794h-75l-213 488h-4l-213 -488h-74l249 570h80z" />
    <glyph glyph-name="underscore" unicode="_" horiz-adv-x="851" 
d="M873 -193h-896v70h896v-70z" />
    <glyph glyph-name="grave" unicode="`" horiz-adv-x="805" 
d="M505 1209h-64l-255 293h90z" />
    <glyph glyph-name="a" unicode="a" horiz-adv-x="1015" 
d="M770 169c-27 -66 -129 -187 -328 -187c-201 0 -338 118 -338 308c0 172 119 289 351 289h317v151c0 173 -109 248 -274 248c-185 0 -259 -99 -269 -181h-80c8 132 122 255 354 255c213 0 351 -104 351 -310v-742h-80v169h-4zM452 55c174 0 320 119 320 295v157h-315
c-185 0 -268 -89 -268 -215c0 -148 111 -237 263 -237z" />
    <glyph glyph-name="b" unicode="b" horiz-adv-x="1106" 
d="M590 -18c-212 0 -309 133 -337 217h-4v-199h-79v1435h81v-599h4c21 62 107 216 338 216c233 0 395 -172 395 -441v-185c0 -295 -183 -444 -398 -444zM585 56c168 0 321 121 321 383v158c0 245 -140 382 -321 382c-215 0 -334 -180 -334 -375v-170
c0 -207 124 -378 334 -378z" />
    <glyph glyph-name="c" unicode="c" horiz-adv-x="1019" 
d="M120 443v156c0 286 167 453 407 453c250 0 377 -166 385 -314h-80c-16 117 -116 241 -304 241c-198 0 -327 -146 -327 -393v-136c0 -250 127 -392 334 -392c197 0 280 115 300 221h79c-12 -135 -124 -297 -384 -297c-251 0 -410 166 -410 461z" />
    <glyph glyph-name="d" unicode="d" horiz-adv-x="1107" 
d="M515 1053c212 0 309 -132 336 -214h4v596h80v-1435h-78v202h-4c-17 -64 -112 -220 -340 -220c-234 0 -395 173 -395 441v188c0 287 178 442 397 442zM520 978c-174 0 -321 -128 -321 -386v-153c0 -241 136 -383 322 -383c215 0 334 177 334 381v158
c0 218 -129 383 -335 383z" />
    <glyph glyph-name="e" unicode="e" horiz-adv-x="1046" 
d="M536 -18c-264 0 -414 178 -414 475v105c0 315 155 490 402 490c248 0 403 -173 403 -489v-53h-724v-53c0 -250 123 -401 333 -401c194 0 282 115 293 205h83c-12 -117 -122 -279 -376 -279zM203 581h643v4c0 247 -126 394 -322 394c-195 0 -321 -147 -321 -394v-4z" />
    <glyph glyph-name="f" unicode="f" horiz-adv-x="629" 
d="M219 0v964h-174v71h174v130c0 190 86 265 271 265c50 0 89 -7 103 -10v-69c-20 4 -61 7 -101 7c-130 0 -192 -45 -192 -188v-135h281v-71h-281v-964h-81z" />
    <glyph glyph-name="g" unicode="g" horiz-adv-x="1094" 
d="M526 -287c209 0 326 114 326 280v255h-4c-21 -65 -116 -217 -335 -217c-226 0 -398 167 -398 434v150c0 287 189 437 400 437c213 0 305 -133 335 -213h4v196h78v-1039c0 -219 -154 -357 -408 -357c-260 0 -373 149 -378 277h83c8 -93 100 -203 297 -203zM522 979
c-173 0 -326 -124 -326 -382v-117c0 -240 144 -375 326 -375c213 0 330 180 330 369v126c0 211 -129 379 -330 379z" />
    <glyph glyph-name="h" unicode="h" horiz-adv-x="1114" 
d="M171 0v1435h80v-592h4c32 99 138 209 332 209c212 0 364 -142 364 -379v-673h-81v661c0 178 -102 316 -291 316c-213 0 -328 -164 -328 -351v-626h-80z" />
    <glyph glyph-name="i" unicode="i" horiz-adv-x="458" 
d="M189 0v1035h80v-1035h-80zM158 1322c0 41 31 72 70 72c41 0 73 -31 73 -72c0 -40 -32 -71 -73 -71c-39 0 -70 31 -70 71z" />
    <glyph glyph-name="j" unicode="j" horiz-adv-x="458" 
d="M158 1322c0 41 31 72 70 72c41 0 73 -31 73 -72c0 -40 -32 -71 -73 -71c-39 0 -70 31 -70 71zM269 1035v-1104c0 -195 -76 -270 -221 -270c-23 0 -60 4 -75 8v71c14 -3 47 -7 65 -7c106 0 151 51 151 196v1106h80z" />
    <glyph glyph-name="k" unicode="k" horiz-adv-x="994" 
d="M251 423v-423h-80v1435h80v-915h5l554 529h102l-457 -442l475 -607h-101l-434 554z" />
    <glyph glyph-name="l" unicode="l" horiz-adv-x="447" 
d="M183 0v1435h81v-1435h-81z" />
    <glyph glyph-name="m" unicode="m" horiz-adv-x="1665" 
d="M167 0v1035h80v-170h5c24 76 108 187 286 187c180 0 279 -100 308 -211h5c21 79 117 211 315 211c195 0 335 -119 335 -344v-708h-80v689c0 190 -108 288 -264 288c-186 0 -283 -146 -283 -301v-676h-80v682c0 190 -102 295 -265 295c-182 0 -282 -140 -282 -316v-661
h-80z" />
    <glyph glyph-name="n" unicode="n" horiz-adv-x="1101" 
d="M167 0v1035h80v-192h4c35 102 143 209 333 209c205 0 359 -131 359 -368v-684h-81v664c0 183 -101 313 -289 313c-214 0 -326 -163 -326 -350v-627h-80z" />
    <glyph glyph-name="o" unicode="o" horiz-adv-x="1085" 
d="M542 1052c246 0 423 -170 423 -464v-145c0 -296 -175 -461 -423 -461c-249 0 -422 165 -422 461v145c0 295 171 464 422 464zM542 979c-205 0 -341 -147 -341 -402v-123c0 -254 134 -398 342 -398c204 0 340 142 340 398v123c0 253 -136 402 -341 402z" />
    <glyph glyph-name="p" unicode="p" horiz-adv-x="1103" 
d="M588 -18c-212 0 -306 132 -336 213h-4v-531h-81v1371h79v-199h4c21 66 114 216 341 216c226 0 393 -167 393 -439v-190c0 -294 -185 -441 -396 -441zM583 56c166 0 319 120 319 384v159c0 244 -140 380 -321 380c-215 0 -333 -179 -333 -374v-169
c0 -210 128 -380 335 -380z" />
    <glyph glyph-name="q" unicode="q" horiz-adv-x="1087" 
d="M514 1052c212 0 307 -129 338 -213h4v196h79v-1371h-81v533h-4c-22 -65 -114 -215 -338 -215c-231 0 -394 170 -394 439v192c0 288 184 439 396 439zM520 978c-172 0 -321 -123 -321 -383v-160c0 -241 140 -379 322 -379c218 0 333 182 333 375v168
c0 217 -129 379 -334 379z" />
    <glyph glyph-name="r" unicode="r" horiz-adv-x="667" 
d="M171 0v1035h81v-191h4c21 89 105 207 296 207c42 0 71 -5 85 -7v-78c-12 3 -45 9 -92 9c-163 0 -293 -110 -293 -336v-639h-81z" />
    <glyph glyph-name="s" unicode="s" horiz-adv-x="956" 
d="M129 772c0 183 151 280 347 280c259 0 350 -160 350 -277h-79c-1 77 -64 206 -272 206c-144 0 -264 -69 -264 -202c0 -128 105 -174 278 -217c192 -47 358 -92 358 -284c0 -200 -175 -296 -379 -296c-269 0 -374 155 -374 284h80c4 -86 77 -212 296 -212
c163 0 295 71 295 216s-149 181 -300 217c-203 50 -336 110 -336 285z" />
    <glyph glyph-name="t" unicode="t" horiz-adv-x="664" 
d="M223 1035v252h81v-252h277v-71h-277v-733c0 -126 58 -164 192 -164c31 0 80 3 98 6v-68c-18 -3 -64 -7 -105 -7c-202 0 -266 63 -266 247v719h-194v71h194z" />
    <glyph glyph-name="u" unicode="u" horiz-adv-x="1100" 
d="M933 1035v-1035h-81v192h-4c-35 -96 -140 -210 -336 -210c-199 0 -355 115 -355 353v700h81v-685c0 -184 113 -293 286 -293c213 0 328 172 328 357v621h81z" />
    <glyph glyph-name="v" unicode="v" horiz-adv-x="923" 
d="M419 0l-382 1035h90l331 -938h5l336 938h87l-384 -1035h-83z" />
    <glyph glyph-name="w" unicode="w" horiz-adv-x="1400" 
d="M1361 1035l-284 -1035h-82l-292 919h-4l-290 -919h-83l-288 1035h91l237 -919h5l289 919h82l290 -919h6l238 919h85z" />
    <glyph glyph-name="x" unicode="x" horiz-adv-x="967" 
d="M796 0l-312 454h-5l-314 -454h-92l363 520l-356 515h97l304 -445h5l307 445h93l-357 -510l364 -525h-97z" />
    <glyph glyph-name="y" unicode="y" horiz-adv-x="921" 
d="M885 1035l-373 -1036l-43 -116c-54 -142 -119 -224 -273 -224c-35 0 -68 4 -94 9v73c22 -5 59 -9 88 -9c112 0 165 63 199 159l34 96l-387 1048h89l337 -951h5l332 951h86z" />
    <glyph glyph-name="z" unicode="z" horiz-adv-x="968" 
d="M126 0v62l623 898v5h-624v70h725v-65l-623 -895v-5h624v-70h-725z" />
    <glyph glyph-name="braceleft" unicode="{" horiz-adv-x="676" 
d="M180 605v-19c109 -10 158 -77 158 -215v-377c0 -148 81 -213 237 -213h61v-71h-36c-222 0 -340 66 -340 304v319c0 139 -28 204 -165 204v115c137 0 165 67 165 206v270c0 235 118 294 340 294h36v-70h-61c-163 0 -237 -65 -237 -213v-318c0 -139 -49 -205 -158 -216z
" />
    <glyph glyph-name="bar" unicode="|" horiz-adv-x="420" 
d="M244 -308h-68v1743h68v-1743z" />
    <glyph glyph-name="braceright" unicode="}" horiz-adv-x="676" 
d="M496 586v19c-108 11 -158 77 -158 216v318c0 148 -73 213 -237 213h-61v70h36c222 0 340 -59 340 -294v-270c0 -139 29 -206 165 -206v-115c-136 0 -165 -65 -165 -204v-319c0 -238 -118 -304 -340 -304h-36v71h61c156 0 237 65 237 213v377c0 138 50 205 158 215z" />
    <glyph glyph-name="asciitilde" unicode="~" horiz-adv-x="1124" 
d="M758 516c-87 0 -145 47 -241 136c-50 47 -100 94 -168 94c-95 0 -151 -81 -154 -208h-76c0 160 84 283 234 283c86 0 145 -46 230 -124c54 -52 112 -105 185 -105c115 0 161 120 165 219h77c0 -128 -73 -295 -252 -295z" />
    <glyph glyph-name="nonbreakingspace" unicode="&#xa0;" horiz-adv-x="422" 
 />
    <glyph glyph-name="exclamdown" unicode="&#xa1;" horiz-adv-x="487" 
d="M286 -320h-86l7 987h71zM321 977c0 -43 -34 -78 -78 -78c-42 0 -78 35 -78 78c0 44 36 77 78 77c44 0 78 -33 78 -77z" />
    <glyph glyph-name="cent" unicode="&#xa2;" horiz-adv-x="1048" 
d="M916 438c-12 -127 -112 -282 -345 -294v-235h-74v235c-228 16 -375 173 -375 451v171c0 272 155 429 375 444v244h74v-243c223 -15 336 -176 343 -312h-79c-16 113 -110 239 -300 239c-199 0 -332 -138 -332 -385v-151c0 -250 130 -384 338 -384c200 0 276 117 297 220
h78z" />
    <glyph glyph-name="sterling" unicode="&#xa3;" horiz-adv-x="1048" 
d="M962 74v-74h-884v77c104 0 220 13 220 267v324h-243v72h243v335c0 208 132 316 333 316c211 0 331 -136 338 -280h-80c-6 96 -88 206 -255 206c-172 0 -254 -95 -254 -250v-327h329v-72h-329v-331c0 -124 -24 -221 -94 -253v-10h676z" />
    <glyph glyph-name="currency" unicode="&#xa4;" horiz-adv-x="1048" 
d="M920 207l-187 188c-57 -46 -130 -74 -209 -74s-152 28 -209 75l-188 -189l-51 51l188 188c-47 57 -73 131 -73 211c0 78 26 151 72 208l-187 187l51 51l186 -187c58 48 132 76 211 76c80 0 153 -28 210 -75l186 186l51 -51l-186 -186c47 -57 73 -130 73 -209
c0 -81 -27 -155 -74 -212l187 -187zM259 657c0 -148 117 -267 265 -267s266 119 266 267c0 147 -118 267 -266 267s-265 -120 -265 -267z" />
    <glyph glyph-name="yen" unicode="&#xa5;" horiz-adv-x="1048" 
d="M832 334h-269v-334h-81v334h-269v68h269v186h-269v68h239l-440 704h96l411 -668h7l413 668h93l-439 -704h239v-68h-269v-186h269v-68z" />
    <glyph glyph-name="brokenbar" unicode="&#xa6;" horiz-adv-x="373" 
d="M229 783h-75v654h75v-654zM229 -309h-75v685h75v-685z" />
    <glyph glyph-name="section" unicode="&#xa7;" horiz-adv-x="1013" 
d="M808 58c0 138 -113 187 -318 236c-204 49 -353 100 -353 290c0 150 119 228 194 256v5c-75 38 -173 97 -173 254c0 176 149 292 346 292c206 0 343 -116 343 -297h-79c-1 142 -126 222 -263 222c-174 0 -265 -102 -265 -214c0 -147 122 -199 300 -246
c181 -48 338 -97 338 -288c0 -130 -91 -220 -161 -261v-5c72 -30 173 -92 173 -232c0 -181 -153 -323 -385 -323c-235 0 -378 122 -378 307h77c5 -136 113 -233 304 -233c192 0 300 116 300 237zM645 330c60 29 151 108 151 232c0 82 -51 159 -204 201c-5 1 -175 49 -181 51
c-76 -15 -194 -99 -194 -222c0 -122 84 -173 243 -214c8 -2 177 -46 185 -48z" />
    <glyph glyph-name="dieresis" unicode="&#xa8;" horiz-adv-x="805" 
d="M185 1309c0 38 31 68 67 68c38 0 68 -30 68 -68s-30 -69 -68 -69c-36 0 -67 31 -67 69zM475 1309c0 38 31 68 67 68c39 0 69 -30 69 -68s-30 -69 -69 -69c-36 0 -67 31 -67 69z" />
    <glyph glyph-name="copyright" unicode="&#xa9;" horiz-adv-x="1650" 
d="M531 637v99c0 209 118 316 305 316c177 0 262 -111 272 -202h-78c-12 57 -63 133 -194 133c-154 0 -231 -86 -231 -252v-96c0 -165 88 -247 231 -247c127 0 185 55 199 120h78c-14 -95 -107 -191 -277 -191c-187 0 -305 105 -305 320zM195 636c0 -359 256 -628 635 -628
c380 0 637 269 637 628v109c0 332 -260 609 -637 609c-376 0 -635 -275 -635 -609v-109zM830 -59c-422 0 -707 299 -707 699v105c0 377 294 676 707 676c415 0 708 -304 708 -676v-105c0 -400 -284 -699 -708 -699z" />
    <glyph glyph-name="ordfeminine" unicode="&#xaa;" horiz-adv-x="610" 
d="M274 782c-107 0 -178 63 -178 163c0 98 68 156 190 156h154v65c0 80 -52 115 -131 115c-83 0 -117 -38 -125 -75h-66c7 81 77 135 194 135c112 0 196 -51 196 -172v-378h-66v81h-3c-20 -39 -70 -90 -165 -90zM290 841c82 0 150 56 150 134v71h-151
c-86 0 -125 -40 -125 -98c0 -70 57 -107 126 -107z" />
    <glyph glyph-name="guillemotleft" unicode="&#xab;" horiz-adv-x="1185" 
d="M531 565l366 404h100l-361 -403v-6l361 -405h-109l-357 402v8zM124 565l367 404h100l-361 -403v-6l361 -405h-109l-358 402v8z" />
    <glyph glyph-name="logicalnot" unicode="&#xac;" horiz-adv-x="1048" 
d="M929 156h-77v357h-744v72h821v-429z" />
    <glyph glyph-name="registered" unicode="&#xae;" horiz-adv-x="1168" 
d="M587 418c-281 0 -477 198 -477 467v50c0 254 200 452 477 452c278 0 477 -200 477 -452v-50c0 -269 -193 -467 -477 -467zM587 477c246 0 416 170 416 404v59c0 218 -171 390 -416 390c-243 0 -415 -174 -415 -390v-59c0 -234 167 -404 415 -404zM477 1120v-207h123
c69 0 119 34 119 103c0 65 -45 104 -116 104h-126zM477 653h-59v518h197c98 0 164 -63 164 -154c0 -79 -45 -129 -106 -147c20 -34 66 -118 122 -217h-67l-116 208h-135v-208z" />
    <glyph glyph-name="macron" unicode="&#xaf;" horiz-adv-x="805" 
d="M682 1294h-554v58h554v-58z" />
    <glyph glyph-name="degree" unicode="&#xb0;" horiz-adv-x="476" 
d="M236 997c-103 0 -186 83 -186 186c0 102 83 186 186 186c102 0 185 -84 185 -186c0 -103 -83 -186 -185 -186zM236 1059c70 0 125 57 125 124c0 70 -55 125 -125 125c-66 0 -124 -55 -124 -125c0 -67 58 -124 124 -124z" />
    <glyph glyph-name="plusminus" unicode="&#xb1;" horiz-adv-x="1085" 
d="M577 690v-324h-71v324h-411v75h411v305h71v-305h411v-75h-411zM990 151h-894v75h894v-75z" />
    <glyph glyph-name="twosuperior" unicode="&#xb2;" horiz-adv-x="647" 
d="M173 1198h-68v4c0 92 65 185 205 185c128 0 205 -80 205 -178c0 -71 -41 -126 -108 -197l-208 -217v-3h328v-60h-421v46l258 277c40 42 80 90 80 151c0 68 -51 120 -136 120c-91 0 -135 -60 -135 -124v-4z" />
    <glyph glyph-name="threesuperior" unicode="&#xb3;" horiz-adv-x="623" 
d="M225 1035v58h65c86 0 140 53 140 121c0 66 -53 114 -135 114c-85 0 -132 -51 -135 -99h-65c2 76 71 158 201 158c124 0 203 -73 203 -164c0 -85 -68 -143 -131 -154v-2c72 -9 154 -56 154 -158c0 -109 -93 -187 -227 -187c-132 0 -211 75 -213 162h64
c4 -57 63 -104 151 -104c95 0 157 54 157 128c0 76 -65 127 -158 127h-71z" />
    <glyph glyph-name="acute" unicode="&#xb4;" horiz-adv-x="805" 
d="M308 1209h-65l230 293h90z" />
    <glyph glyph-name="paragraph" unicode="&#xb6;" horiz-adv-x="1160" 
d="M695 -210h-82v747h-20c-152 0 -434 96 -434 412c0 344 282 416 435 416h101v-1575zM868 -210v1575h81v-1575h-81z" />
    <glyph glyph-name="periodcentered" unicode="&#xb7;" horiz-adv-x="461" 
d="M146 682c0 43 34 77 76 77c43 0 78 -34 78 -77s-35 -76 -78 -76c-42 0 -76 33 -76 76z" />
    <glyph glyph-name="cedilla" unicode="&#xb8;" horiz-adv-x="805" 
d="M307 -198v48l65 152h67l-58 -141c106 0 206 -43 206 -154c0 -119 -114 -170 -224 -171c-53 -1 -102 8 -125 15v63c27 -9 75 -15 121 -15c73 0 151 30 151 104c0 69 -56 99 -153 99h-50z" />
    <glyph glyph-name="onesuperior" unicode="&#xb9;" horiz-adv-x="523" 
d="M353 732h-69v554h-3l-163 -110v68l166 116h69v-628z" />
    <glyph glyph-name="ordmasculine" unicode="&#xba;" horiz-adv-x="596" 
d="M298 1282c-95 0 -162 -70 -162 -186v-69c0 -116 63 -184 162 -184c97 0 161 67 161 184v69c0 115 -66 186 -161 186zM298 1341c129 0 230 -86 230 -238v-82c0 -155 -100 -239 -230 -239c-132 0 -230 84 -230 239v82c0 150 98 238 230 238z" />
    <glyph glyph-name="guillemotright" unicode="&#xbb;" horiz-adv-x="1175" 
d="M1007 565v-8l-358 -402h-108l360 405v6l-360 403h99zM601 565v-8l-358 -402h-109l361 405v6l-361 403h100z" />
    <glyph glyph-name="onequarter" unicode="&#xbc;" horiz-adv-x="1366" 
d="M819 201h262v392h-4c-49 -71 -213 -315 -258 -389v-3zM1045 652h100v-451h93v-58h-93v-143h-64v143h-334v57c52 91 238 361 298 452zM245 732h-69v554h-3l-163 -110v68l166 116h69v-628zM144 0h-83l514 680l514 680h83l-514 -680z" />
    <glyph glyph-name="onehalf" unicode="&#xbd;" horiz-adv-x="1411" 
d="M935 463h-68v4c0 92 65 185 206 185c128 0 206 -80 206 -178c0 -72 -42 -127 -109 -198l-209 -218v-3h330v-61h-423v47l259 278c40 42 80 90 80 152c0 68 -51 120 -136 120c-92 0 -136 -60 -136 -124v-4zM245 732h-69v554h-3l-163 -110v68l166 116h69v-628zM144 0h-83
l514 680l514 680h83l-514 -680z" />
    <glyph glyph-name="threequarters" unicode="&#xbe;" horiz-adv-x="1352" 
d="M918 201h261v392h-3c-50 -71 -214 -314 -258 -388v-4zM1144 652h100v-451h93v-58h-93v-143h-65v143h-334v57c53 91 238 361 299 452zM136 1030v58h65c86 0 141 53 141 121c0 67 -54 115 -136 115c-85 0 -132 -51 -135 -100h-66c2 77 72 159 202 159
c125 0 204 -73 204 -165c0 -85 -68 -143 -132 -154v-2c73 -9 155 -56 155 -159c0 -109 -93 -187 -228 -187c-132 0 -212 75 -214 162h65c4 -57 63 -104 151 -104c95 0 158 54 158 128c0 76 -66 128 -159 128h-71zM201 0h-83l514 680l514 680h83l-514 -680z" />
    <glyph glyph-name="questiondown" unicode="&#xbf;" horiz-adv-x="879" 
d="M538 973c0 -43 -33 -78 -77 -78c-42 0 -78 35 -78 78c0 44 36 77 78 77c44 0 77 -33 77 -77zM817 -24c-8 -187 -141 -332 -386 -332c-202 0 -369 113 -369 317c0 150 85 241 205 331c135 103 156 169 156 262v88h82v-99c0 -120 -47 -197 -187 -304
c-114 -88 -172 -158 -172 -275c0 -166 136 -248 291 -248c224 0 296 157 302 260h78z" />
    <glyph glyph-name="Agrave" unicode="&#xc0;" horiz-adv-x="1149" 
d="M129 0h-85l488 1360h85l488 -1360h-88l-160 458h-567zM576 1259h-5l-258 -731h519zM674 1514h-88l-316 237h105z" />
    <glyph glyph-name="Aacute" unicode="&#xc1;" horiz-adv-x="1149" 
d="M129 0h-85l488 1360h85l488 -1360h-88l-160 458h-567zM576 1259h-5l-258 -731h519zM471 1512l299 237h104l-316 -237h-87z" />
    <glyph glyph-name="Acircumflex" unicode="&#xc2;" horiz-adv-x="1149" 
d="M129 0h-85l488 1360h85l488 -1360h-88l-160 458h-567zM576 1259h-5l-258 -731h519zM283 1502l277 212h42l272 -212h-94l-197 153h-5l-198 -153h-97z" />
    <glyph glyph-name="Atilde" unicode="&#xc3;" horiz-adv-x="1149" 
d="M129 0h-85l488 1360h85l488 -1360h-88l-160 458h-567zM576 1259h-5l-258 -731h519zM542 1563c-31 41 -60 73 -104 73c-57 0 -88 -44 -88 -129h-58c0 115 52 185 148 185c60 0 96 -28 145 -86c34 -43 56 -62 100 -62c56 0 98 56 99 137h58c0 -108 -65 -190 -155 -190
c-72 0 -105 28 -145 72z" />
    <glyph glyph-name="Adieresis" unicode="&#xc4;" horiz-adv-x="1149" 
d="M129 0h-85l488 1360h85l488 -1360h-88l-160 458h-567zM576 1259h-5l-258 -731h519zM381 1571c0 31 25 58 58 58c34 0 58 -27 58 -58c0 -29 -24 -59 -58 -59c-33 0 -58 30 -58 59zM670 1571c0 31 25 58 58 58s57 -27 57 -58c0 -29 -24 -59 -57 -59s-58 30 -58 59z" />
    <glyph glyph-name="Aring" unicode="&#xc5;" horiz-adv-x="1150" 
d="M457 1493c0 -64 55 -118 118 -118c65 0 118 54 118 118c0 66 -53 119 -118 119c-63 0 -118 -53 -118 -119zM833 528l-256 731h-6l-257 -731h519zM130 0h-86l477 1329c-70 21 -120 87 -120 164c0 95 77 171 174 171c94 0 170 -76 170 -171c0 -77 -48 -141 -117 -164
l477 -1329h-88l-160 458h-567z" />
    <glyph glyph-name="AE" unicode="&#xc6;" horiz-adv-x="1823" 
d="M874 1284l-434 -728h502v728h-68zM942 486h-543l-290 -486h-89l809 1360h886v-76h-691v-550h657v-75h-657v-584h691v-75h-773v486z" />
    <glyph glyph-name="Ccedilla" unicode="&#xc7;" horiz-adv-x="1245" 
d="M623 -472c-53 -1 -102 9 -124 16v63c26 -9 74 -16 120 -16c73 0 151 30 151 104c0 69 -56 100 -152 100h-51v48l55 127c-341 12 -487 267 -487 593v231c0 334 163 597 510 597c314 0 471 -226 471 -415v-3h-80c0 153 -136 343 -391 343c-291 0 -428 -229 -428 -513v-248
c0 -284 132 -511 433 -511c244 0 395 153 395 337h80v-3c0 -197 -156 -391 -436 -408l-48 -117c106 0 206 -42 206 -154c0 -119 -114 -169 -224 -171z" />
    <glyph glyph-name="Egrave" unicode="&#xc8;" horiz-adv-x="1073" 
d="M675 1514h-88l-316 237h105zM966 75v-75h-776v1360h776v-76h-694v-550h660v-75h-660v-584h694z" />
    <glyph glyph-name="Eacute" unicode="&#xc9;" horiz-adv-x="1073" 
d="M472 1512l299 237h104l-316 -237h-87zM966 75v-75h-776v1360h776v-76h-694v-550h660v-75h-660v-584h694z" />
    <glyph glyph-name="Ecircumflex" unicode="&#xca;" horiz-adv-x="1073" 
d="M284 1502l277 212h42l272 -212h-94l-197 153h-5l-198 -153h-97zM966 75v-75h-776v1360h776v-76h-694v-550h660v-75h-660v-584h694z" />
    <glyph glyph-name="Edieresis" unicode="&#xcb;" horiz-adv-x="1073" 
d="M381 1571c0 31 25 58 58 58c34 0 58 -27 58 -58c0 -29 -24 -59 -58 -59c-33 0 -58 30 -58 59zM670 1571c0 31 25 58 58 58s57 -27 57 -58c0 -29 -24 -59 -57 -59s-58 30 -58 59zM966 75v-75h-776v1360h776v-76h-694v-550h660v-75h-660v-584h694z" />
    <glyph glyph-name="Igrave" unicode="&#xcc;" horiz-adv-x="493" 
d="M287 0h-81v1360h81v-1360zM345 1514h-88l-316 237h105z" />
    <glyph glyph-name="Iacute" unicode="&#xcd;" horiz-adv-x="493" 
d="M287 0h-81v1360h81v-1360zM142 1512l299 237h104l-316 -237h-87z" />
    <glyph glyph-name="Icircumflex" unicode="&#xce;" horiz-adv-x="493" 
d="M287 0h-81v1360h81v-1360zM-46 1502l277 212h42l272 -212h-94l-197 153h-5l-198 -153h-97z" />
    <glyph glyph-name="Idieresis" unicode="&#xcf;" horiz-adv-x="493" 
d="M287 0h-81v1360h81v-1360zM52 1571c0 31 25 58 58 58c34 0 58 -27 58 -58c0 -29 -24 -59 -58 -59c-33 0 -58 30 -58 59zM341 1571c0 31 25 58 58 58s57 -27 57 -58c0 -29 -24 -59 -57 -59s-58 30 -58 59z" />
    <glyph glyph-name="Eth" unicode="&#xd0;" horiz-adv-x="1353" 
d="M614 0h-365v660h-159v74h159v626h365c434 0 609 -273 609 -680c0 -405 -167 -680 -609 -680zM331 75h283c370 0 526 235 526 605c0 366 -157 605 -526 605h-283v-551h360v-74h-360v-585z" />
    <glyph glyph-name="Ntilde" unicode="&#xd1;" horiz-adv-x="1334" 
d="M634 1563c-31 41 -60 73 -104 73c-57 0 -88 -44 -88 -129h-58c0 115 52 185 148 185c60 0 96 -28 145 -86c34 -43 56 -62 100 -62c56 0 98 56 99 137h58c0 -108 -65 -190 -155 -190c-72 0 -105 28 -145 72zM272 0h-82v1360h85l782 -1216h4v1216h82v-1360h-84l-783 1216
h-4v-1216z" />
    <glyph glyph-name="Ograve" unicode="&#xd2;" horiz-adv-x="1309" 
d="M753 1514h-88l-316 237h105zM216 806v-256c0 -307 167 -506 438 -506c272 0 439 199 439 506v256c0 307 -169 510 -439 510c-269 0 -438 -203 -438 -510zM135 556v244c0 358 191 591 520 591s519 -234 519 -593v-242c0 -358 -191 -587 -520 -587s-519 229 -519 587z" />
    <glyph glyph-name="Oacute" unicode="&#xd3;" horiz-adv-x="1309" 
d="M550 1512l299 237h104l-316 -237h-87zM216 806v-256c0 -307 167 -506 438 -506c272 0 439 199 439 506v256c0 307 -169 510 -439 510c-269 0 -438 -203 -438 -510zM135 556v244c0 358 191 591 520 591s519 -234 519 -593v-242c0 -358 -191 -587 -520 -587
s-519 229 -519 587z" />
    <glyph glyph-name="Ocircumflex" unicode="&#xd4;" horiz-adv-x="1309" 
d="M362 1502l277 212h42l272 -212h-94l-197 153h-5l-198 -153h-97zM216 806v-256c0 -307 167 -506 438 -506c272 0 439 199 439 506v256c0 307 -169 510 -439 510c-269 0 -438 -203 -438 -510zM135 556v244c0 358 191 591 520 591s519 -234 519 -593v-242
c0 -358 -191 -587 -520 -587s-519 229 -519 587z" />
    <glyph glyph-name="Otilde" unicode="&#xd5;" horiz-adv-x="1309" 
d="M216 806v-256c0 -307 167 -506 438 -506c272 0 439 199 439 506v256c0 307 -169 510 -439 510c-269 0 -438 -203 -438 -510zM135 556v244c0 358 191 591 520 591s519 -234 519 -593v-242c0 -358 -191 -587 -520 -587s-519 229 -519 587zM621 1563c-31 41 -60 73 -104 73
c-57 0 -88 -44 -88 -129h-58c0 115 52 185 148 185c60 0 96 -28 145 -86c34 -43 56 -62 100 -62c56 0 98 56 99 137h58c0 -108 -65 -190 -155 -190c-72 0 -105 28 -145 72z" />
    <glyph glyph-name="Odieresis" unicode="&#xd6;" horiz-adv-x="1309" 
d="M460 1571c0 31 25 58 58 58c34 0 58 -27 58 -58c0 -29 -24 -59 -58 -59c-33 0 -58 30 -58 59zM749 1571c0 31 25 58 58 58s57 -27 57 -58c0 -29 -24 -59 -57 -59s-58 30 -58 59zM216 806v-256c0 -307 167 -506 438 -506c272 0 439 199 439 506v256
c0 307 -169 510 -439 510c-269 0 -438 -203 -438 -510zM135 556v244c0 358 191 591 520 591s519 -234 519 -593v-242c0 -358 -191 -587 -520 -587s-519 229 -519 587z" />
    <glyph glyph-name="multiply" unicode="&#xd7;" horiz-adv-x="1048" 
d="M849 108l-324 326l-326 -326l-51 51l326 325l-326 326l51 51l326 -326l325 326l50 -51l-325 -326l325 -325z" />
    <glyph glyph-name="Oslash" unicode="&#xd8;" horiz-adv-x="1309" 
d="M654 -31c-181 0 -319 69 -407 192l-112 -133l-50 41l126 147c-50 93 -76 208 -76 341v242c0 359 190 592 520 592c175 0 310 -67 398 -181l118 139l52 -36l-133 -157c55 -96 84 -216 84 -357v-242c0 -358 -190 -588 -520 -588zM216 550c0 -101 18 -190 52 -265l731 860
c-76 108 -194 171 -345 171c-270 0 -438 -203 -438 -510v-256zM654 44c273 0 439 199 439 506v256c0 108 -21 203 -60 281l-732 -862c75 -114 196 -181 353 -181z" />
    <glyph glyph-name="Ugrave" unicode="&#xd9;" horiz-adv-x="1310" 
d="M754 1514h-88l-316 237h105zM250 1360v-891c0 -257 145 -423 405 -423c261 0 404 165 404 423v891h83v-891c0 -302 -181 -500 -487 -500s-487 199 -487 501v890h82z" />
    <glyph glyph-name="Uacute" unicode="&#xda;" horiz-adv-x="1310" 
d="M551 1512l299 237h104l-316 -237h-87zM250 1360v-891c0 -257 145 -423 405 -423c261 0 404 165 404 423v891h83v-891c0 -302 -181 -500 -487 -500s-487 199 -487 501v890h82z" />
    <glyph glyph-name="Ucircumflex" unicode="&#xdb;" horiz-adv-x="1310" 
d="M363 1502l277 212h42l272 -212h-94l-197 153h-5l-198 -153h-97zM250 1360v-891c0 -257 145 -423 405 -423c261 0 404 165 404 423v891h83v-891c0 -302 -181 -500 -487 -500s-487 199 -487 501v890h82z" />
    <glyph glyph-name="Udieresis" unicode="&#xdc;" horiz-adv-x="1310" 
d="M460 1571c0 31 25 58 58 58c34 0 58 -27 58 -58c0 -29 -24 -59 -58 -59c-33 0 -58 30 -58 59zM749 1571c0 31 25 58 58 58s57 -27 57 -58c0 -29 -24 -59 -57 -59s-58 30 -58 59zM250 1360v-891c0 -257 145 -423 405 -423c261 0 404 165 404 423v891h83v-891
c0 -302 -181 -500 -487 -500s-487 199 -487 501v890h82z" />
    <glyph glyph-name="Yacute" unicode="&#xdd;" horiz-adv-x="1060" 
d="M571 0h-81v607l-470 753h96l411 -668h6l413 668h94l-469 -751v-609zM426 1512l299 237h104l-316 -237h-87z" />
    <glyph glyph-name="Thorn" unicode="&#xde;" horiz-adv-x="1131" 
d="M190 1360h82v-265h337c251 0 423 -122 423 -367s-172 -367 -423 -367h-337v-361h-82v1360zM272 1020v-585h323c218 0 353 79 353 293c0 204 -127 292 -342 292h-334z" />
    <glyph glyph-name="germandbls" unicode="&#xdf;" horiz-adv-x="1149" 
d="M266 0h-82v1069c0 219 129 356 375 356c240 0 378 -137 378 -333c-1 -184 -141 -314 -256 -337v-5c172 -4 379 -122 379 -365c0 -270 -240 -403 -448 -403c-79 0 -131 8 -170 16v76c37 -10 104 -18 174 -18c172 0 358 108 358 325c0 192 -160 321 -417 321h-93v84h85
c166 0 303 143 303 296c0 185 -131 268 -292 268c-199 0 -294 -109 -294 -285v-1065z" />
    <glyph glyph-name="agrave" unicode="&#xe0;" horiz-adv-x="1015" 
d="M770 169c-27 -66 -129 -187 -328 -187c-201 0 -338 118 -338 308c0 172 119 289 351 289h317v151c0 173 -109 248 -274 248c-185 0 -259 -99 -269 -181h-80c8 132 122 255 354 255c213 0 351 -104 351 -310v-742h-80v169h-4zM452 55c174 0 320 119 320 295v157h-315
c-185 0 -268 -89 -268 -215c0 -148 111 -237 263 -237zM603 1211h-64l-255 293h90z" />
    <glyph glyph-name="aacute" unicode="&#xe1;" horiz-adv-x="1015" 
d="M770 169c-27 -66 -129 -187 -328 -187c-201 0 -338 118 -338 308c0 172 119 289 351 289h317v151c0 173 -109 248 -274 248c-185 0 -259 -99 -269 -181h-80c8 132 122 255 354 255c213 0 351 -104 351 -310v-742h-80v169h-4zM452 55c174 0 320 119 320 295v157h-315
c-185 0 -268 -89 -268 -215c0 -148 111 -237 263 -237zM518 1211h-65l230 293h90z" />
    <glyph glyph-name="acircumflex" unicode="&#xe2;" horiz-adv-x="1015" 
d="M770 169c-27 -66 -129 -187 -328 -187c-201 0 -338 118 -338 308c0 172 119 289 351 289h317v151c0 173 -109 248 -274 248c-185 0 -259 -99 -269 -181h-80c8 132 122 255 354 255c213 0 351 -104 351 -310v-742h-80v169h-4zM452 55c174 0 320 119 320 295v157h-315
c-185 0 -268 -89 -268 -215c0 -148 111 -237 263 -237zM247 1232l231 325h64l224 -325h-75l-180 270h-4l-186 -270h-74z" />
    <glyph glyph-name="atilde" unicode="&#xe3;" horiz-adv-x="1015" 
d="M770 169c-27 -66 -129 -187 -328 -187c-201 0 -338 118 -338 308c0 172 119 289 351 289h317v151c0 173 -109 248 -274 248c-185 0 -259 -99 -269 -181h-80c8 132 122 255 354 255c213 0 351 -104 351 -310v-742h-80v169h-4zM452 55c174 0 320 119 320 295v157h-315
c-185 0 -268 -89 -268 -215c0 -148 111 -237 263 -237zM471 1281c-36 45 -71 83 -120 83c-63 0 -99 -51 -99 -147h-65c0 133 59 210 166 210c67 0 108 -30 162 -98c39 -48 67 -68 116 -68c62 0 110 63 111 155h64c0 -122 -73 -216 -173 -216c-82 0 -121 31 -162 81z" />
    <glyph glyph-name="adieresis" unicode="&#xe4;" horiz-adv-x="1015" 
d="M770 169c-27 -66 -129 -187 -328 -187c-201 0 -338 118 -338 308c0 172 119 289 351 289h317v151c0 173 -109 248 -274 248c-185 0 -259 -99 -269 -181h-80c8 132 122 255 354 255c213 0 351 -104 351 -310v-742h-80v169h-4zM452 55c174 0 320 119 320 295v157h-315
c-185 0 -268 -89 -268 -215c0 -148 111 -237 263 -237zM296 1292c0 38 31 68 67 68c38 0 68 -30 68 -68s-30 -69 -68 -69c-36 0 -67 31 -67 69zM586 1292c0 38 31 68 67 68c39 0 69 -30 69 -68s-30 -69 -69 -69c-36 0 -67 31 -67 69z" />
    <glyph glyph-name="aring" unicode="&#xe5;" horiz-adv-x="1015" 
d="M770 169c-27 -66 -129 -187 -328 -187c-201 0 -338 118 -338 308c0 172 119 289 351 289h317v151c0 173 -109 248 -274 248c-185 0 -259 -99 -269 -181h-80c8 132 122 255 354 255c213 0 351 -104 351 -310v-742h-80v169h-4zM452 55c174 0 320 119 320 295v157h-315
c-185 0 -268 -89 -268 -215c0 -148 111 -237 263 -237zM507 1185c-97 0 -174 76 -174 172s77 170 174 170c94 0 171 -74 171 -170s-77 -172 -171 -172zM389 1357c0 -64 54 -118 118 -118c65 0 118 54 118 118c0 66 -53 118 -118 118c-64 0 -118 -52 -118 -118z" />
    <glyph glyph-name="ae" unicode="&#xe6;" horiz-adv-x="1697" 
d="M1188 -18c-203 0 -337 107 -372 262h-7c-30 -134 -157 -262 -366 -262c-206 0 -339 122 -339 309s131 290 353 290h316v146c0 174 -135 251 -276 251c-182 0 -256 -95 -269 -169h-80c10 129 130 243 354 243c144 0 286 -70 327 -207h6c58 139 191 207 341 207
c238 0 396 -166 396 -480v-63h-718v-66c0 -247 131 -387 334 -387c188 0 283 111 297 197h83c-12 -110 -130 -271 -380 -271zM1176 979c-192 0 -322 -144 -322 -389v-13h637v10c0 249 -121 392 -315 392zM453 55c173 0 320 119 320 295v159h-315c-186 0 -273 -91 -273 -217
c0 -146 117 -237 268 -237z" />
    <glyph glyph-name="ccedilla" unicode="&#xe7;" horiz-adv-x="1019" 
d="M503 -459c-53 -1 -103 8 -125 16v62c26 -9 75 -15 121 -15c72 0 151 30 151 104c0 69 -54 99 -150 99h-51v48l57 128c-236 11 -386 174 -386 460v156c0 286 167 453 407 453c250 0 377 -166 385 -314h-80c-16 117 -116 241 -304 241c-198 0 -327 -146 -327 -393v-136
c0 -250 127 -392 334 -392c197 0 280 115 300 221h79c-11 -127 -111 -278 -340 -295l-51 -118c106 0 204 -43 204 -154c0 -119 -114 -170 -224 -171z" />
    <glyph glyph-name="egrave" unicode="&#xe8;" horiz-adv-x="1046" 
d="M619 1211h-64l-255 293h90zM536 -18c-264 0 -414 178 -414 475v105c0 315 155 490 402 490c248 0 403 -173 403 -489v-53h-724v-53c0 -250 123 -401 333 -401c194 0 282 115 293 205h83c-12 -117 -122 -279 -376 -279zM203 581h643v4c0 247 -126 394 -322 394
c-195 0 -321 -147 -321 -394v-4z" />
    <glyph glyph-name="eacute" unicode="&#xe9;" horiz-adv-x="1046" 
d="M534 1211h-65l230 293h90zM536 -18c-264 0 -414 178 -414 475v105c0 315 155 490 402 490c248 0 403 -173 403 -489v-53h-724v-53c0 -250 123 -401 333 -401c194 0 282 115 293 205h83c-12 -117 -122 -279 -376 -279zM203 581h643v4c0 247 -126 394 -322 394
c-195 0 -321 -147 -321 -394v-4z" />
    <glyph glyph-name="ecircumflex" unicode="&#xea;" horiz-adv-x="1046" 
d="M263 1232l231 325h64l224 -325h-75l-180 270h-4l-186 -270h-74zM536 -18c-264 0 -414 178 -414 475v105c0 315 155 490 402 490c248 0 403 -173 403 -489v-53h-724v-53c0 -250 123 -401 333 -401c194 0 282 115 293 205h83c-12 -117 -122 -279 -376 -279zM203 581h643v4
c0 247 -126 394 -322 394c-195 0 -321 -147 -321 -394v-4z" />
    <glyph glyph-name="edieresis" unicode="&#xeb;" horiz-adv-x="1046" 
d="M536 -18c-264 0 -414 178 -414 475v105c0 315 155 490 402 490c248 0 403 -173 403 -489v-53h-724v-53c0 -250 123 -401 333 -401c194 0 282 115 293 205h83c-12 -117 -122 -279 -376 -279zM203 581h643v4c0 247 -126 394 -322 394c-195 0 -321 -147 -321 -394v-4z
M312 1292c0 38 31 68 67 68c38 0 68 -30 68 -68s-30 -69 -68 -69c-36 0 -67 31 -67 69zM602 1292c0 38 31 68 67 68c39 0 69 -30 69 -68s-30 -69 -69 -69c-36 0 -67 31 -67 69z" />
    <glyph glyph-name="igrave" unicode="&#xec;" horiz-adv-x="425" 
d="M308 1211h-64l-255 293h90zM172 0v1035h80v-1035h-80z" />
    <glyph glyph-name="iacute" unicode="&#xed;" horiz-adv-x="425" 
d="M223 1211h-65l230 293h90zM172 0v1035h80v-1035h-80z" />
    <glyph glyph-name="icircumflex" unicode="&#xee;" horiz-adv-x="425" 
d="M-48 1232l231 325h64l224 -325h-75l-180 270h-4l-186 -270h-74zM172 0v1035h80v-1035h-80z" />
    <glyph glyph-name="idieresis" unicode="&#xef;" horiz-adv-x="425" 
d="M172 0v1035h80v-1035h-80zM1 1292c0 38 31 68 67 68c38 0 68 -30 68 -68s-30 -69 -68 -69c-36 0 -67 31 -67 69zM291 1292c0 38 31 68 67 68c39 0 69 -30 69 -68s-30 -69 -69 -69c-36 0 -67 31 -67 69z" />
    <glyph glyph-name="eth" unicode="&#xf0;" horiz-adv-x="1085" 
d="M542 -18c-237 0 -422 155 -422 452v111c0 296 184 455 422 455c171 0 287 -91 337 -188h5l-6 53c-16 148 -67 288 -159 394l-285 -102l-16 57l258 93c-55 57 -133 113 -210 151l46 54c94 -46 178 -110 242 -178l239 86l16 -55l-215 -77c119 -155 171 -352 171 -590v-264
c0 -297 -188 -452 -423 -452zM542 926c-195 0 -341 -136 -341 -392v-89c0 -255 143 -389 342 -389c195 0 340 132 340 389v154c0 187 -147 327 -341 327z" />
    <glyph glyph-name="ntilde" unicode="&#xf1;" horiz-adv-x="1101" 
d="M514 1281c-36 45 -71 83 -120 83c-63 0 -99 -51 -99 -147h-65c0 133 59 210 166 210c67 0 108 -30 162 -98c39 -48 67 -68 116 -68c62 0 110 63 111 155h64c0 -122 -73 -216 -173 -216c-82 0 -121 31 -162 81zM167 0v1035h80v-192h4c35 102 143 209 333 209
c205 0 359 -131 359 -368v-684h-81v664c0 183 -101 313 -289 313c-214 0 -326 -163 -326 -350v-627h-80z" />
    <glyph glyph-name="ograve" unicode="&#xf2;" horiz-adv-x="1085" 
d="M638 1211h-64l-255 293h90zM542 1052c246 0 423 -170 423 -464v-145c0 -296 -175 -461 -423 -461c-249 0 -422 165 -422 461v145c0 295 171 464 422 464zM542 979c-205 0 -341 -147 -341 -402v-123c0 -254 134 -398 342 -398c204 0 340 142 340 398v123
c0 253 -136 402 -341 402z" />
    <glyph glyph-name="oacute" unicode="&#xf3;" horiz-adv-x="1085" 
d="M553 1211h-65l230 293h90zM542 1052c246 0 423 -170 423 -464v-145c0 -296 -175 -461 -423 -461c-249 0 -422 165 -422 461v145c0 295 171 464 422 464zM542 979c-205 0 -341 -147 -341 -402v-123c0 -254 134 -398 342 -398c204 0 340 142 340 398v123
c0 253 -136 402 -341 402z" />
    <glyph glyph-name="ocircumflex" unicode="&#xf4;" horiz-adv-x="1085" 
d="M282 1232l231 325h64l224 -325h-75l-180 270h-4l-186 -270h-74zM542 1052c246 0 423 -170 423 -464v-145c0 -296 -175 -461 -423 -461c-249 0 -422 165 -422 461v145c0 295 171 464 422 464zM542 979c-205 0 -341 -147 -341 -402v-123c0 -254 134 -398 342 -398
c204 0 340 142 340 398v123c0 253 -136 402 -341 402z" />
    <glyph glyph-name="otilde" unicode="&#xf5;" horiz-adv-x="1085" 
d="M506 1281c-36 45 -71 83 -120 83c-63 0 -99 -51 -99 -147h-65c0 133 59 210 166 210c67 0 108 -30 162 -98c39 -48 67 -68 116 -68c62 0 110 63 111 155h64c0 -122 -73 -216 -173 -216c-82 0 -121 31 -162 81zM542 1052c246 0 423 -170 423 -464v-145
c0 -296 -175 -461 -423 -461c-249 0 -422 165 -422 461v145c0 295 171 464 422 464zM542 979c-205 0 -341 -147 -341 -402v-123c0 -254 134 -398 342 -398c204 0 340 142 340 398v123c0 253 -136 402 -341 402z" />
    <glyph glyph-name="odieresis" unicode="&#xf6;" horiz-adv-x="1085" 
d="M331 1292c0 38 31 68 67 68c38 0 68 -30 68 -68s-30 -69 -68 -69c-36 0 -67 31 -67 69zM621 1292c0 38 31 68 67 68c39 0 69 -30 69 -68s-30 -69 -69 -69c-36 0 -67 31 -67 69zM542 1052c246 0 423 -170 423 -464v-145c0 -296 -175 -461 -423 -461
c-249 0 -422 165 -422 461v145c0 295 171 464 422 464zM542 979c-205 0 -341 -147 -341 -402v-123c0 -254 134 -398 342 -398c204 0 340 142 340 398v123c0 253 -136 402 -341 402z" />
    <glyph glyph-name="divide" unicode="&#xf7;" horiz-adv-x="1085" 
d="M989 504h-893v75h893v-75zM460 905c0 46 36 83 81 83c46 0 83 -37 83 -83s-37 -81 -83 -81c-45 0 -81 35 -81 81zM465 179c0 46 36 83 81 83c46 0 83 -37 83 -83c0 -45 -37 -81 -83 -81c-45 0 -81 36 -81 81z" />
    <glyph glyph-name="oslash" unicode="&#xf8;" horiz-adv-x="1085" 
d="M289 164c60 -72 150 -109 254 -109c195 0 341 133 341 390v149c0 84 -16 155 -45 212zM200 437c0 -89 18 -163 50 -220l551 643c-61 79 -154 120 -259 120c-195 0 -342 -138 -342 -394v-149zM542 -18c-120 0 -227 42 -302 123l-106 -125l-49 39l113 134
c-49 72 -78 166 -78 281v163c0 296 184 455 422 455c121 0 231 -46 307 -134l126 145l48 -39l-133 -153c47 -72 75 -164 75 -274v-163c0 -297 -188 -452 -423 -452z" />
    <glyph glyph-name="ugrave" unicode="&#xf9;" horiz-adv-x="1100" 
d="M646 1211h-64l-255 293h90zM933 1035v-1035h-81v192h-4c-35 -96 -140 -210 -336 -210c-199 0 -355 115 -355 353v700h81v-685c0 -184 113 -293 286 -293c213 0 328 172 328 357v621h81z" />
    <glyph glyph-name="uacute" unicode="&#xfa;" horiz-adv-x="1100" 
d="M561 1211h-65l230 293h90zM933 1035v-1035h-81v192h-4c-35 -96 -140 -210 -336 -210c-199 0 -355 115 -355 353v700h81v-685c0 -184 113 -293 286 -293c213 0 328 172 328 357v621h81z" />
    <glyph glyph-name="ucircumflex" unicode="&#xfb;" horiz-adv-x="1100" 
d="M290 1232l231 325h64l224 -325h-75l-180 270h-4l-186 -270h-74zM933 1035v-1035h-81v192h-4c-35 -96 -140 -210 -336 -210c-199 0 -355 115 -355 353v700h81v-685c0 -184 113 -293 286 -293c213 0 328 172 328 357v621h81z" />
    <glyph glyph-name="udieresis" unicode="&#xfc;" horiz-adv-x="1100" 
d="M933 1035v-1035h-81v192h-4c-35 -96 -140 -210 -336 -210c-199 0 -355 115 -355 353v700h81v-685c0 -184 113 -293 286 -293c213 0 328 172 328 357v621h81zM339 1292c0 38 31 68 67 68c38 0 68 -30 68 -68s-30 -69 -68 -69c-36 0 -67 31 -67 69zM629 1292
c0 38 31 68 67 68c39 0 69 -30 69 -68s-30 -69 -69 -69c-36 0 -67 31 -67 69z" />
    <glyph glyph-name="yacute" unicode="&#xfd;" horiz-adv-x="921" 
d="M885 1035l-373 -1036l-43 -116c-54 -142 -119 -224 -273 -224c-35 0 -68 4 -94 9v73c22 -5 59 -9 88 -9c112 0 165 63 199 159l34 96l-387 1048h89l337 -951h5l332 951h86zM471 1211h-65l230 293h90z" />
    <glyph glyph-name="thorn" unicode="&#xfe;" horiz-adv-x="1103" 
d="M583 -18c-221 0 -310 155 -330 217h-5v-534h-81v1770h78l1 -604h5c29 89 132 221 333 221c214 0 400 -147 400 -439v-192c0 -271 -169 -439 -401 -439zM577 56c181 0 325 132 325 381v158c0 263 -153 384 -327 384c-200 0 -327 -163 -327 -375v-181
c0 -190 118 -367 329 -367z" />
    <glyph glyph-name="ydieresis" unicode="&#xff;" horiz-adv-x="921" 
d="M885 1035l-373 -1036l-43 -116c-54 -142 -119 -224 -273 -224c-35 0 -68 4 -94 9v73c22 -5 59 -9 88 -9c112 0 165 63 199 159l34 96l-387 1048h89l337 -951h5l332 951h86zM249 1292c0 38 31 68 67 68c38 0 68 -30 68 -68s-30 -69 -68 -69c-36 0 -67 31 -67 69zM539 1292
c0 38 31 68 67 68c39 0 69 -30 69 -68s-30 -69 -69 -69c-36 0 -67 31 -67 69z" />
    <glyph glyph-name="Amacron" unicode="&#x100;" horiz-adv-x="1149" 
d="M129 0h-85l488 1360h85l488 -1360h-88l-160 458h-567zM576 1259h-5l-258 -731h519zM844 1528h-538v56h538v-56z" />
    <glyph glyph-name="amacron" unicode="&#x101;" horiz-adv-x="1015" 
d="M770 169c-27 -66 -129 -187 -328 -187c-201 0 -338 118 -338 308c0 172 119 289 351 289h317v151c0 173 -109 248 -274 248c-185 0 -259 -99 -269 -181h-80c8 132 122 255 354 255c213 0 351 -104 351 -310v-742h-80v169h-4zM452 55c174 0 320 119 320 295v157h-315
c-185 0 -268 -89 -268 -215c0 -148 111 -237 263 -237zM778 1246h-554v58h554v-58z" />
    <glyph glyph-name="Abreve" unicode="&#x102;" horiz-adv-x="1149" 
d="M129 0h-85l488 1360h85l488 -1360h-88l-160 458h-567zM576 1259h-5l-258 -731h519zM300 1715h67c0 -101 79 -166 208 -166s201 65 201 166h68c0 -118 -82 -229 -269 -229s-275 108 -275 229z" />
    <glyph glyph-name="abreve" unicode="&#x103;" horiz-adv-x="1015" 
d="M770 169c-27 -66 -129 -187 -328 -187c-201 0 -338 118 -338 308c0 172 119 289 351 289h317v151c0 173 -109 248 -274 248c-185 0 -259 -99 -269 -181h-80c8 132 122 255 354 255c213 0 351 -104 351 -310v-742h-80v169h-4zM452 55c174 0 320 119 320 295v157h-315
c-185 0 -268 -89 -268 -215c0 -148 111 -237 263 -237zM233 1434h68c0 -104 72 -181 201 -181c128 0 194 77 194 181h67c0 -118 -82 -242 -261 -242c-180 0 -269 121 -269 242z" />
    <glyph glyph-name="Aogonek" unicode="&#x104;" horiz-adv-x="1150" 
d="M130 0h-86l488 1360h86l486 -1357c-79 -37 -173 -109 -175 -200c-1 -71 46 -111 108 -111c34 0 62 6 85 14v-59c-18 -10 -48 -21 -106 -21c-87 0 -166 53 -166 165c0 106 92 187 160 232l-153 435h-567zM577 1259h-6l-257 -731h519z" />
    <glyph glyph-name="aogonek" unicode="&#x105;" horiz-adv-x="1015" 
d="M452 55c174 0 320 119 320 295v157h-315c-185 0 -268 -89 -268 -215c0 -148 111 -237 263 -237zM892 -342c-13 -6 -46 -17 -93 -17c-94 0 -176 52 -176 163c0 107 73 173 151 228v137h-4c-27 -66 -129 -187 -328 -187c-201 0 -338 118 -338 308c0 172 119 289 351 289
h317v151c0 173 -109 248 -274 248c-185 0 -259 -99 -269 -181h-80c8 132 122 255 354 255c213 0 351 -104 351 -310v-735c-80 -43 -155 -102 -155 -191c0 -68 43 -106 113 -106c24 0 57 4 80 12v-64z" />
    <glyph glyph-name="Cacute" unicode="&#x106;" horiz-adv-x="1245" 
d="M540 1512l299 237h104l-316 -237h-87zM217 803v-248c0 -284 132 -511 433 -511c244 0 395 153 395 337h80v-3c0 -206 -172 -409 -476 -409c-358 0 -514 258 -514 594v231c0 334 163 597 510 597c314 0 471 -226 471 -415v-3h-80c0 153 -136 343 -391 343
c-291 0 -428 -229 -428 -513z" />
    <glyph glyph-name="cacute" unicode="&#x107;" horiz-adv-x="1019" 
d="M120 443v156c0 286 167 453 407 453c250 0 377 -166 385 -314h-80c-16 117 -116 241 -304 241c-198 0 -327 -146 -327 -393v-136c0 -250 127 -392 334 -392c197 0 280 115 300 221h79c-12 -135 -124 -297 -384 -297c-251 0 -410 166 -410 461zM532 1211h-65l230 293h90z
" />
    <glyph glyph-name="Ccircumflex" unicode="&#x108;" horiz-adv-x="1245" 
d="M217 803v-248c0 -284 132 -511 433 -511c244 0 395 153 395 337h80v-3c0 -206 -172 -409 -476 -409c-358 0 -514 258 -514 594v231c0 334 163 597 510 597c314 0 471 -226 471 -415v-3h-80c0 153 -136 343 -391 343c-291 0 -428 -229 -428 -513zM352 1502l277 212h42
l272 -212h-94l-197 153h-5l-198 -153h-97z" />
    <glyph glyph-name="ccircumflex" unicode="&#x109;" horiz-adv-x="1019" 
d="M261 1232l231 325h64l224 -325h-75l-180 270h-4l-186 -270h-74zM120 443v156c0 286 167 453 407 453c250 0 377 -166 385 -314h-80c-16 117 -116 241 -304 241c-198 0 -327 -146 -327 -393v-136c0 -250 127 -392 334 -392c197 0 280 115 300 221h79
c-12 -135 -124 -297 -384 -297c-251 0 -410 166 -410 461z" />
    <glyph glyph-name="Cdotaccent" unicode="&#x10a;" horiz-adv-x="1245" 
d="M217 803v-248c0 -284 132 -511 433 -511c244 0 395 153 395 337h80v-3c0 -206 -172 -409 -476 -409c-358 0 -514 258 -514 594v231c0 334 163 597 510 597c314 0 471 -226 471 -415v-3h-80c0 153 -136 343 -391 343c-291 0 -428 -229 -428 -513zM573 1643
c0 41 32 72 70 72c41 0 73 -31 73 -72c0 -40 -32 -70 -73 -70c-38 0 -70 30 -70 70z" />
    <glyph glyph-name="cdotaccent" unicode="&#x10b;" horiz-adv-x="1019" 
d="M120 443v156c0 286 167 453 407 453c250 0 377 -166 385 -314h-80c-16 117 -116 241 -304 241c-198 0 -327 -146 -327 -393v-136c0 -250 127 -392 334 -392c197 0 280 115 300 221h79c-12 -135 -124 -297 -384 -297c-251 0 -410 166 -410 461zM450 1318c0 41 32 72 70 72
c41 0 73 -31 73 -72c0 -40 -32 -70 -73 -70c-38 0 -70 30 -70 70z" />
    <glyph glyph-name="Ccaron" unicode="&#x10c;" horiz-adv-x="1245" 
d="M217 803v-248c0 -284 132 -511 433 -511c244 0 395 153 395 337h80v-3c0 -206 -172 -409 -476 -409c-358 0 -514 258 -514 594v231c0 334 163 597 510 597c314 0 471 -226 471 -415v-3h-80c0 153 -136 343 -391 343c-291 0 -428 -229 -428 -513zM351 1694h86l209 -164h5
l208 164h84l-260 -207h-66z" />
    <glyph glyph-name="ccaron" unicode="&#x10d;" horiz-adv-x="1019" 
d="M260 1538h73l186 -270h5l180 270h75l-224 -325h-64zM120 443v156c0 286 167 453 407 453c250 0 377 -166 385 -314h-80c-16 117 -116 241 -304 241c-198 0 -327 -146 -327 -393v-136c0 -250 127 -392 334 -392c197 0 280 115 300 221h79c-12 -135 -124 -297 -384 -297
c-251 0 -410 166 -410 461z" />
    <glyph glyph-name="Dcaron" unicode="&#x10e;" horiz-adv-x="1294" 
d="M342 1694h86l209 -164h5l208 164h84l-260 -207h-66zM190 1360h366c433 0 608 -273 608 -680c0 -405 -166 -680 -608 -680h-366v1360zM272 1285v-1210h284c369 0 525 235 525 605c0 366 -157 605 -525 605h-284z" />
    <glyph glyph-name="dcaron" unicode="&#x10f;" horiz-adv-x="1223" 
d="M1147 1436h81l-26 -488h-55v488zM515 1053c212 0 309 -132 336 -214h4v596h80v-1435h-78v202h-4c-17 -64 -112 -220 -340 -220c-234 0 -395 173 -395 441v188c0 287 178 442 397 442zM520 978c-174 0 -321 -128 -321 -386v-153c0 -241 136 -383 322 -383
c215 0 334 177 334 381v158c0 218 -129 383 -335 383z" />
    <glyph glyph-name="Dcroat" unicode="&#x110;" horiz-adv-x="1353" 
d="M614 0h-365v660h-159v74h159v626h365c434 0 609 -273 609 -680c0 -405 -167 -680 -609 -680zM331 75h283c370 0 526 235 526 605c0 366 -157 605 -526 605h-283v-551h360v-74h-360v-585z" />
    <glyph glyph-name="dcroat" unicode="&#x111;" horiz-adv-x="1107" 
d="M526 978c-184 0 -327 -135 -327 -376v-165c0 -260 155 -381 328 -381c200 0 328 163 328 375v182c0 189 -120 365 -329 365zM852 202c-26 -85 -130 -220 -332 -220c-215 0 -401 148 -401 437v198c0 266 167 436 402 436c219 0 310 -154 329 -219h5v396h-248v71h248v147
h81v-147h129v-71h-129v-1230h-79v202h-5z" />
    <glyph glyph-name="Emacron" unicode="&#x112;" horiz-adv-x="1073" 
d="M966 75v-75h-776v1360h776v-76h-694v-550h660v-75h-660v-584h694zM845 1528h-538v56h538v-56z" />
    <glyph glyph-name="emacron" unicode="&#x113;" horiz-adv-x="1046" 
d="M536 -18c-264 0 -414 178 -414 475v105c0 315 155 490 402 490c248 0 403 -173 403 -489v-53h-724v-53c0 -250 123 -401 333 -401c194 0 282 115 293 205h83c-12 -117 -122 -279 -376 -279zM203 581h643v4c0 247 -126 394 -322 394c-195 0 -321 -147 -321 -394v-4z
M794 1246h-554v58h554v-58z" />
    <glyph glyph-name="Ebreve" unicode="&#x114;" horiz-adv-x="1073" 
d="M966 75v-75h-776v1360h776v-76h-694v-550h660v-75h-660v-584h694zM301 1715h67c0 -101 79 -166 208 -166s201 65 201 166h68c0 -118 -82 -229 -269 -229s-275 108 -275 229z" />
    <glyph glyph-name="ebreve" unicode="&#x115;" horiz-adv-x="1046" 
d="M536 -18c-264 0 -414 178 -414 475v105c0 315 155 490 402 490c248 0 403 -173 403 -489v-53h-724v-53c0 -250 123 -401 333 -401c194 0 282 115 293 205h83c-12 -117 -122 -279 -376 -279zM203 581h643v4c0 247 -126 394 -322 394c-195 0 -321 -147 -321 -394v-4z
M249 1434h68c0 -104 72 -181 201 -181c128 0 194 77 194 181h67c0 -118 -82 -242 -261 -242c-180 0 -269 121 -269 242z" />
    <glyph glyph-name="Edotaccent" unicode="&#x116;" horiz-adv-x="1073" 
d="M505 1643c0 41 32 72 70 72c41 0 73 -31 73 -72c0 -40 -32 -70 -73 -70c-38 0 -70 30 -70 70zM966 75v-75h-776v1360h776v-76h-694v-550h660v-75h-660v-584h694z" />
    <glyph glyph-name="edotaccent" unicode="&#x117;" horiz-adv-x="1046" 
d="M452 1318c0 41 32 72 70 72c41 0 73 -31 73 -72c0 -40 -32 -70 -73 -70c-38 0 -70 30 -70 70zM536 -18c-264 0 -414 178 -414 475v105c0 315 155 490 402 490c248 0 403 -173 403 -489v-53h-724v-53c0 -250 123 -401 333 -401c194 0 282 115 293 205h83
c-12 -117 -122 -279 -376 -279zM203 581h643v4c0 247 -126 394 -322 394c-195 0 -321 -147 -321 -394v-4z" />
    <glyph glyph-name="Eogonek" unicode="&#x118;" horiz-adv-x="1073" 
d="M966 -356c-19 -9 -51 -18 -97 -18c-89 0 -170 53 -170 165c0 89 48 158 128 209h-637v1360h776v-76h-694v-550h660v-75h-660v-584h694v-71c-120 -39 -191 -110 -191 -203c0 -69 45 -109 109 -109c35 0 61 6 82 14v-62z" />
    <glyph glyph-name="eogonek" unicode="&#x119;" horiz-adv-x="1046" 
d="M689 22c-30 -22 -78 -40 -153 -40c-264 0 -414 178 -414 475v105c0 315 155 490 402 490c248 0 403 -173 403 -489v-53h-724v-53c0 -250 123 -401 333 -401c194 0 282 115 293 205h83c-7 -62 -40 -127 -96 -183c-78 -80 -152 -151 -152 -252c0 -74 57 -118 130 -118
c30 0 61 6 85 14v-61c-18 -10 -50 -20 -106 -20c-96 0 -184 57 -184 172c0 92 49 146 104 204zM203 581h643v4c0 247 -126 394 -322 394c-195 0 -321 -147 -321 -394v-4z" />
    <glyph glyph-name="Ecaron" unicode="&#x11a;" horiz-adv-x="1073" 
d="M283 1694h86l209 -164h5l208 164h84l-260 -207h-66zM966 75v-75h-776v1360h776v-76h-694v-550h660v-75h-660v-584h694z" />
    <glyph glyph-name="ecaron" unicode="&#x11b;" horiz-adv-x="1046" 
d="M262 1538h73l186 -270h5l180 270h75l-224 -325h-64zM536 -18c-264 0 -414 178 -414 475v105c0 315 155 490 402 490c248 0 403 -173 403 -489v-53h-724v-53c0 -250 123 -401 333 -401c194 0 282 115 293 205h83c-12 -117 -122 -279 -376 -279zM203 581h643v4
c0 247 -126 394 -322 394c-195 0 -321 -147 -321 -394v-4z" />
    <glyph glyph-name="Gcircumflex" unicode="&#x11c;" horiz-adv-x="1263" 
d="M344 1502l277 212h42l272 -212h-94l-197 153h-5l-198 -153h-97zM1123 1007h-79c-6 145 -133 309 -392 309c-261 0 -435 -193 -435 -515v-228c0 -308 142 -529 433 -529c239 0 400 129 400 353v186h-407v75h485v-261c0 -251 -177 -428 -477 -428c-353 0 -516 259 -516 604
v228c0 358 197 590 518 590c313 0 466 -196 470 -384z" />
    <glyph glyph-name="gcircumflex" unicode="&#x11d;" horiz-adv-x="1094" 
d="M287 1232l231 325h64l224 -325h-75l-180 270h-4l-186 -270h-74zM526 -287c209 0 326 114 326 280v255h-4c-21 -65 -116 -217 -335 -217c-226 0 -398 167 -398 434v150c0 287 189 437 400 437c213 0 305 -133 335 -213h4v196h78v-1039c0 -219 -154 -357 -408 -357
c-260 0 -373 149 -378 277h83c8 -93 100 -203 297 -203zM522 979c-173 0 -326 -124 -326 -382v-117c0 -240 144 -375 326 -375c213 0 330 180 330 369v126c0 211 -129 379 -330 379z" />
    <glyph glyph-name="Gbreve" unicode="&#x11e;" horiz-adv-x="1263" 
d="M1123 1007h-79c-6 145 -133 309 -392 309c-261 0 -435 -193 -435 -515v-228c0 -308 142 -529 433 -529c239 0 400 129 400 353v186h-407v75h485v-261c0 -251 -177 -428 -477 -428c-353 0 -516 259 -516 604v228c0 358 197 590 518 590c313 0 466 -196 470 -384zM361 1715
h67c0 -101 79 -166 208 -166s201 65 201 166h68c0 -118 -82 -229 -269 -229s-275 108 -275 229z" />
    <glyph glyph-name="gbreve" unicode="&#x11f;" horiz-adv-x="1094" 
d="M273 1434h68c0 -104 72 -181 201 -181c128 0 194 77 194 181h67c0 -118 -82 -242 -261 -242c-180 0 -269 121 -269 242zM526 -287c209 0 326 114 326 280v255h-4c-21 -65 -116 -217 -335 -217c-226 0 -398 167 -398 434v150c0 287 189 437 400 437
c213 0 305 -133 335 -213h4v196h78v-1039c0 -219 -154 -357 -408 -357c-260 0 -373 149 -378 277h83c8 -93 100 -203 297 -203zM522 979c-173 0 -326 -124 -326 -382v-117c0 -240 144 -375 326 -375c213 0 330 180 330 369v126c0 211 -129 379 -330 379z" />
    <glyph glyph-name="Gdotaccent" unicode="&#x120;" horiz-adv-x="1263" 
d="M565 1643c0 41 32 72 70 72c41 0 73 -31 73 -72c0 -40 -32 -70 -73 -70c-38 0 -70 30 -70 70zM1123 1007h-79c-6 145 -133 309 -392 309c-261 0 -435 -193 -435 -515v-228c0 -308 142 -529 433 -529c239 0 400 129 400 353v186h-407v75h485v-261
c0 -251 -177 -428 -477 -428c-353 0 -516 259 -516 604v228c0 358 197 590 518 590c313 0 466 -196 470 -384z" />
    <glyph glyph-name="gdotaccent" unicode="&#x121;" horiz-adv-x="1094" 
d="M476 1318c0 41 32 72 70 72c41 0 73 -31 73 -72c0 -40 -32 -70 -73 -70c-38 0 -70 30 -70 70zM526 -287c209 0 326 114 326 280v255h-4c-21 -65 -116 -217 -335 -217c-226 0 -398 167 -398 434v150c0 287 189 437 400 437c213 0 305 -133 335 -213h4v196h78v-1039
c0 -219 -154 -357 -408 -357c-260 0 -373 149 -378 277h83c8 -93 100 -203 297 -203zM522 979c-173 0 -326 -124 -326 -382v-117c0 -240 144 -375 326 -375c213 0 330 180 330 369v126c0 211 -129 379 -330 379z" />
    <glyph glyph-name="Gcommaaccent" unicode="&#x122;" horiz-adv-x="1263" 
d="M574 -481h-60l85 335h89zM1123 1007h-79c-6 145 -133 309 -392 309c-261 0 -435 -193 -435 -515v-228c0 -308 142 -529 433 -529c239 0 400 129 400 353v186h-407v75h485v-261c0 -251 -177 -428 -477 -428c-353 0 -516 259 -516 604v228c0 358 197 590 518 590
c313 0 466 -196 470 -384z" />
    <glyph glyph-name="gcommaaccent" unicode="&#x123;" horiz-adv-x="1094" 
d="M606 1569h60l-85 -335h-89zM526 -287c209 0 326 114 326 280v255h-4c-21 -65 -116 -217 -335 -217c-226 0 -398 167 -398 434v150c0 287 189 437 400 437c213 0 305 -133 335 -213h4v196h78v-1039c0 -219 -154 -357 -408 -357c-260 0 -373 149 -378 277h83
c8 -93 100 -203 297 -203zM522 979c-173 0 -326 -124 -326 -382v-117c0 -240 144 -375 326 -375c213 0 330 180 330 369v126c0 211 -129 379 -330 379z" />
    <glyph glyph-name="Hcircumflex" unicode="&#x124;" horiz-adv-x="1334" 
d="M1143 0h-82v676h-789v-676h-82v1360h82v-609h789v609h82v-1360zM375 1502l277 212h42l272 -212h-94l-197 153h-5l-198 -153h-97z" />
    <glyph glyph-name="hcircumflex" unicode="&#x125;" horiz-adv-x="1114" 
d="M171 0v1435h80v-592h4c32 99 138 209 332 209c212 0 364 -142 364 -379v-673h-81v661c0 178 -102 316 -291 316c-213 0 -328 -164 -328 -351v-626h-80zM-50 1633l231 325h64l224 -325h-75l-180 270h-4l-186 -270h-74z" />
    <glyph glyph-name="Hbar" unicode="&#x126;" horiz-adv-x="1334" 
d="M272 743h789v278h-789v-278zM272 669v-669h-82v1021h-134v68h134v271h82v-271h789v271h82v-271h141v-68h-141v-1021h-82v669h-789z" />
    <glyph glyph-name="hbar" unicode="&#x127;" horiz-adv-x="1114" 
d="M251 617v-617h-80v1233h-129v68h129v134h80v-134h242v-68h-242v-404h5c30 100 134 223 340 223c204 0 355 -127 355 -363v-689h-81v672c0 177 -104 307 -287 307c-218 0 -332 -175 -332 -362z" />
    <glyph glyph-name="Itilde" unicode="&#x128;" horiz-adv-x="493" 
d="M287 0h-81v1360h81v-1360zM213 1563c-31 41 -60 73 -104 73c-57 0 -88 -44 -88 -129h-58c0 115 52 185 148 185c60 0 96 -28 145 -86c34 -43 56 -62 100 -62c56 0 98 56 99 137h58c0 -108 -65 -190 -155 -190c-72 0 -105 28 -145 72z" />
    <glyph glyph-name="itilde" unicode="&#x129;" horiz-adv-x="425" 
d="M172 0v1035h80v-1035h-80zM176 1281c-36 45 -71 83 -120 83c-63 0 -99 -51 -99 -147h-65c0 133 59 210 166 210c67 0 108 -30 162 -98c39 -48 67 -68 116 -68c62 0 110 63 111 155h64c0 -122 -73 -216 -173 -216c-82 0 -121 31 -162 81z" />
    <glyph glyph-name="Imacron" unicode="&#x12a;" horiz-adv-x="493" 
d="M287 0h-81v1360h81v-1360zM515 1528h-538v56h538v-56z" />
    <glyph glyph-name="imacron" unicode="&#x12b;" horiz-adv-x="425" 
d="M172 0v1035h80v-1035h-80zM483 1246h-554v58h554v-58z" />
    <glyph glyph-name="Ibreve" unicode="&#x12c;" horiz-adv-x="493" 
d="M287 0h-81v1360h81v-1360zM-29 1715h67c0 -101 79 -166 208 -166s201 65 201 166h68c0 -118 -82 -229 -269 -229s-275 108 -275 229z" />
    <glyph glyph-name="ibreve" unicode="&#x12d;" horiz-adv-x="425" 
d="M172 0v1035h80v-1035h-80zM-62 1434h68c0 -104 72 -181 201 -181c128 0 194 77 194 181h67c0 -118 -82 -242 -261 -242c-180 0 -269 121 -269 242z" />
    <glyph glyph-name="Iogonek" unicode="&#x12e;" horiz-adv-x="493" 
d="M328 -353c-17 -10 -49 -21 -104 -21c-92 0 -165 54 -165 165c0 108 74 182 147 233v1336h81v-1360c-78 -43 -152 -109 -152 -199c0 -69 46 -109 109 -109c34 0 62 6 84 14v-59z" />
    <glyph glyph-name="iogonek" unicode="&#x12f;" horiz-adv-x="458" 
d="M310 -339c-17 -10 -49 -20 -104 -20c-92 0 -165 53 -165 165c0 108 75 182 148 232v997h80v-1021c-78 -42 -152 -108 -152 -199c0 -69 46 -108 109 -108c33 0 62 5 84 13v-59zM155 1340c0 43 32 76 73 76c43 0 76 -33 76 -76c0 -42 -33 -73 -76 -73c-41 0 -73 31 -73 73z
" />
    <glyph glyph-name="Idotaccent" unicode="&#x130;" horiz-adv-x="493" 
d="M287 0h-81v1360h81v-1360zM175 1643c0 41 32 72 70 72c41 0 73 -31 73 -72c0 -40 -32 -70 -73 -70c-38 0 -70 30 -70 70z" />
    <glyph glyph-name="dotlessi" unicode="&#x131;" horiz-adv-x="425" 
d="M172 0v1035h80v-1035h-80z" />
    <glyph glyph-name="Jcircumflex" unicode="&#x134;" horiz-adv-x="907" 
d="M37 295h81c1 -103 71 -240 263 -240c156 0 272 93 272 301v1004h82v-1000c0 -259 -146 -380 -356 -380c-250 0 -342 177 -342 315zM402 1502l277 212h42l272 -212h-94l-197 153h-5l-198 -153h-97z" />
    <glyph glyph-name="jcircumflex" unicode="&#x135;" horiz-adv-x="458" 
d="M269 1035v-1104c0 -195 -76 -270 -221 -270c-23 0 -60 4 -75 8v71c14 -3 47 -7 65 -7c106 0 151 51 151 196v1106h80zM-28 1219l231 325h64l224 -325h-75l-180 270h-4l-186 -270h-74z" />
    <glyph glyph-name="Kcommaaccent" unicode="&#x136;" horiz-adv-x="1109" 
d="M1060 1360l-558 -604l590 -756h-106l-544 700l-170 -179v-521h-82v1360h82v-730h3l681 730h104zM493 -481h-60l85 335h89z" />
    <glyph glyph-name="kcommaaccent" unicode="&#x137;" horiz-adv-x="994" 
d="M251 423v-423h-80v1435h80v-915h5l554 529h102l-457 -442l475 -607h-101l-434 554zM441 -481h-60l85 335h89z" />
    <glyph glyph-name="Lacute" unicode="&#x139;" horiz-adv-x="1013" 
d="M127 1512l299 237h104l-316 -237h-87zM955 75v-75h-765v1360h82v-1285h683z" />
    <glyph glyph-name="lacute" unicode="&#x13a;" horiz-adv-x="447" 
d="M235 1612h-65l230 293h90zM183 0v1435h81v-1435h-81z" />
    <glyph glyph-name="Lcommaaccent" unicode="&#x13b;" horiz-adv-x="1013" 
d="M461 -481h-60l85 335h89zM955 75v-75h-765v1360h82v-1285h683z" />
    <glyph glyph-name="lcommaaccent" unicode="&#x13c;" horiz-adv-x="447" 
d="M162 -481h-60l85 335h89zM183 0v1435h81v-1435h-81z" />
    <glyph glyph-name="Lcaron" unicode="&#x13d;" horiz-adv-x="1013" 
d="M600 1436h83l-27 -488h-56v488zM955 75v-75h-765v1360h82v-1285h683z" />
    <glyph glyph-name="lcaron" unicode="&#x13e;" horiz-adv-x="553" 
d="M485 1436h81l-26 -488h-55v488zM183 0v1435h81v-1435h-81z" />
    <glyph glyph-name="Lslash" unicode="&#x141;" horiz-adv-x="1015" 
d="M957 0h-764v585l-150 -88v81l150 88v694h82v-646l445 263v-84l-445 -261v-557h682v-75z" />
    <glyph glyph-name="lslash" unicode="&#x142;" horiz-adv-x="462" 
d="M272 0h-81v669l-186 -144v87l186 143v680h81v-620l192 149v-86l-192 -149v-729z" />
    <glyph glyph-name="Nacute" unicode="&#x143;" horiz-adv-x="1334" 
d="M563 1512l299 237h104l-316 -237h-87zM272 0h-82v1360h85l782 -1216h4v1216h82v-1360h-84l-783 1216h-4v-1216z" />
    <glyph glyph-name="nacute" unicode="&#x144;" horiz-adv-x="1101" 
d="M561 1211h-65l230 293h90zM167 0v1035h80v-192h4c35 102 143 209 333 209c205 0 359 -131 359 -368v-684h-81v664c0 183 -101 313 -289 313c-214 0 -326 -163 -326 -350v-627h-80z" />
    <glyph glyph-name="Ncommaaccent" unicode="&#x145;" horiz-adv-x="1334" 
d="M605 -481h-60l85 335h89zM272 0h-82v1360h85l782 -1216h4v1216h82v-1360h-84l-783 1216h-4v-1216z" />
    <glyph glyph-name="ncommaaccent" unicode="&#x146;" horiz-adv-x="1101" 
d="M488 -481h-60l85 335h89zM167 0v1035h80v-192h4c35 102 143 209 333 209c205 0 359 -131 359 -368v-684h-81v664c0 183 -101 313 -289 313c-214 0 -326 -163 -326 -350v-627h-80z" />
    <glyph glyph-name="Ncaron" unicode="&#x147;" horiz-adv-x="1334" 
d="M374 1694h86l209 -164h5l208 164h84l-260 -207h-66zM272 0h-82v1360h85l782 -1216h4v1216h82v-1360h-84l-783 1216h-4v-1216z" />
    <glyph glyph-name="ncaron" unicode="&#x148;" horiz-adv-x="1101" 
d="M289 1538h73l186 -270h5l180 270h75l-224 -325h-64zM167 0v1035h80v-192h4c35 102 143 209 333 209c205 0 359 -131 359 -368v-684h-81v664c0 183 -101 313 -289 313c-214 0 -326 -163 -326 -350v-627h-80z" />
    <glyph glyph-name="Omacron" unicode="&#x14c;" horiz-adv-x="1309" 
d="M216 806v-256c0 -307 167 -506 438 -506c272 0 439 199 439 506v256c0 307 -169 510 -439 510c-269 0 -438 -203 -438 -510zM135 556v244c0 358 191 591 520 591s519 -234 519 -593v-242c0 -358 -191 -587 -520 -587s-519 229 -519 587zM923 1528h-538v56h538v-56z" />
    <glyph glyph-name="omacron" unicode="&#x14d;" horiz-adv-x="1085" 
d="M813 1246h-554v58h554v-58zM542 1052c246 0 423 -170 423 -464v-145c0 -296 -175 -461 -423 -461c-249 0 -422 165 -422 461v145c0 295 171 464 422 464zM542 979c-205 0 -341 -147 -341 -402v-123c0 -254 134 -398 342 -398c204 0 340 142 340 398v123
c0 253 -136 402 -341 402z" />
    <glyph glyph-name="Obreve" unicode="&#x14e;" horiz-adv-x="1309" 
d="M216 806v-256c0 -307 167 -506 438 -506c272 0 439 199 439 506v256c0 307 -169 510 -439 510c-269 0 -438 -203 -438 -510zM135 556v244c0 358 191 591 520 591s519 -234 519 -593v-242c0 -358 -191 -587 -520 -587s-519 229 -519 587zM379 1715h67
c0 -101 79 -166 208 -166s201 65 201 166h68c0 -118 -82 -229 -269 -229s-275 108 -275 229z" />
    <glyph glyph-name="obreve" unicode="&#x14f;" horiz-adv-x="1085" 
d="M268 1434h68c0 -104 72 -181 201 -181c128 0 194 77 194 181h67c0 -118 -82 -242 -261 -242c-180 0 -269 121 -269 242zM542 1052c246 0 423 -170 423 -464v-145c0 -296 -175 -461 -423 -461c-249 0 -422 165 -422 461v145c0 295 171 464 422 464zM542 979
c-205 0 -341 -147 -341 -402v-123c0 -254 134 -398 342 -398c204 0 340 142 340 398v123c0 253 -136 402 -341 402z" />
    <glyph glyph-name="Ohungarumlaut" unicode="&#x150;" horiz-adv-x="1309" 
d="M446 1514l303 240h100l-315 -240h-88zM714 1514l304 240h100l-315 -240h-89zM216 806v-256c0 -307 167 -506 438 -506c272 0 439 199 439 506v256c0 307 -169 510 -439 510c-269 0 -438 -203 -438 -510zM135 556v244c0 358 191 591 520 591s519 -234 519 -593v-242
c0 -358 -191 -587 -520 -587s-519 229 -519 587z" />
    <glyph glyph-name="ohungarumlaut" unicode="&#x151;" horiz-adv-x="1085" 
d="M447 1211h-61l237 302h84zM665 1211h-61l236 302h85zM542 1052c246 0 423 -170 423 -464v-145c0 -296 -175 -461 -423 -461c-249 0 -422 165 -422 461v145c0 295 171 464 422 464zM542 979c-205 0 -341 -147 -341 -402v-123c0 -254 134 -398 342 -398
c204 0 340 142 340 398v123c0 253 -136 402 -341 402z" />
    <glyph glyph-name="OE" unicode="&#x152;" horiz-adv-x="1975" 
d="M216 806v-256c0 -307 160 -506 431 -506c263 0 432 196 432 467v343c0 260 -162 462 -432 462c-269 0 -431 -203 -431 -510zM647 -31c-329 0 -512 229 -512 587v244c0 358 184 591 513 591c203 0 359 -99 425 -245h6v214h774v-76h-692v-550h657v-75h-657v-584h692v-75
h-774v222h-6c-77 -159 -223 -253 -426 -253z" />
    <glyph glyph-name="oe" unicode="&#x153;" horiz-adv-x="1809" 
d="M1298 -18c-179 0 -312 88 -370 243h-6c-64 -159 -210 -243 -380 -243c-237 0 -422 155 -422 452v163c0 296 184 455 422 455c169 0 314 -84 380 -248h6c59 164 192 248 359 248c238 0 398 -166 398 -480v-63h-720v-59c0 -250 128 -394 334 -394c188 0 285 111 299 197h84
c-13 -110 -133 -271 -384 -271zM542 979c-195 0 -341 -137 -341 -393v-141c0 -255 143 -389 342 -389c195 0 340 132 340 389v141c0 254 -147 393 -341 393zM965 577h639v8c0 249 -123 394 -317 394s-322 -145 -322 -394v-8z" />
    <glyph glyph-name="Racute" unicode="&#x154;" horiz-adv-x="1187" 
d="M480 1512l299 237h104l-316 -237h-87zM637 1360c259 0 411 -159 411 -382c0 -213 -128 -329 -289 -368l312 -610h-95l-302 594h-402v-594h-82v1360h447zM272 667h351c211 0 342 117 342 308c0 195 -132 311 -340 311h-353v-619z" />
    <glyph glyph-name="racute" unicode="&#x155;" horiz-adv-x="667" 
d="M362 1211h-65l230 293h90zM171 0v1035h81v-191h4c21 89 105 207 296 207c42 0 71 -5 85 -7v-78c-12 3 -45 9 -92 9c-163 0 -293 -110 -293 -336v-639h-81z" />
    <glyph glyph-name="Rcommaaccent" unicode="&#x156;" horiz-adv-x="1187" 
d="M637 1360c259 0 411 -159 411 -382c0 -213 -128 -329 -289 -368l312 -610h-95l-302 594h-402v-594h-82v1360h447zM272 667h351c211 0 342 117 342 308c0 195 -132 311 -340 311h-353v-619zM522 -481h-60l85 335h89z" />
    <glyph glyph-name="rcommaaccent" unicode="&#x157;" horiz-adv-x="667" 
d="M171 0v1035h81v-191h4c21 89 105 207 296 207c42 0 71 -5 85 -7v-78c-12 3 -45 9 -92 9c-163 0 -293 -110 -293 -336v-639h-81zM150 -481h-60l85 335h89z" />
    <glyph glyph-name="Rcaron" unicode="&#x158;" horiz-adv-x="1187" 
d="M637 1360c259 0 411 -159 411 -382c0 -213 -128 -329 -289 -368l312 -610h-95l-302 594h-402v-594h-82v1360h447zM272 667h351c211 0 342 117 342 308c0 195 -132 311 -340 311h-353v-619zM291 1694h86l209 -164h5l208 164h84l-260 -207h-66z" />
    <glyph glyph-name="rcaron" unicode="&#x159;" horiz-adv-x="667" 
d="M90 1538h73l186 -270h5l180 270h75l-224 -325h-64zM171 0v1035h81v-191h4c21 89 105 207 296 207c42 0 71 -5 85 -7v-78c-12 3 -45 9 -92 9c-163 0 -293 -110 -293 -336v-639h-81z" />
    <glyph glyph-name="Sacute" unicode="&#x15a;" horiz-adv-x="1141" 
d="M466 1512l299 237h104l-316 -237h-87zM100 345h83c5 -125 105 -301 390 -301c227 0 378 124 378 298c0 168 -111 236 -317 291l-178 48c-187 50 -311 150 -311 345c0 222 176 366 436 366c265 0 427 -150 429 -344h-84c-5 125 -104 269 -346 269
c-217 0 -351 -115 -351 -289c0 -152 92 -226 264 -272l172 -47c235 -64 370 -146 370 -362c0 -236 -197 -378 -471 -378c-345 0 -463 222 -464 376z" />
    <glyph glyph-name="sacute" unicode="&#x15b;" horiz-adv-x="956" 
d="M129 772c0 183 151 280 347 280c259 0 350 -160 350 -277h-79c-1 77 -64 206 -272 206c-144 0 -264 -69 -264 -202c0 -128 105 -174 278 -217c192 -47 358 -92 358 -284c0 -200 -175 -296 -379 -296c-269 0 -374 155 -374 284h80c4 -86 77 -212 296 -212
c163 0 295 71 295 216s-149 181 -300 217c-203 50 -336 110 -336 285zM489 1211h-65l230 293h90z" />
    <glyph glyph-name="Scircumflex" unicode="&#x15c;" horiz-adv-x="1141" 
d="M100 345h83c5 -125 105 -301 390 -301c227 0 378 124 378 298c0 168 -111 236 -317 291l-178 48c-187 50 -311 150 -311 345c0 222 176 366 436 366c265 0 427 -150 429 -344h-84c-5 125 -104 269 -346 269c-217 0 -351 -115 -351 -289c0 -152 92 -226 264 -272l172 -47
c235 -64 370 -146 370 -362c0 -236 -197 -378 -471 -378c-345 0 -463 222 -464 376zM278 1502l277 212h42l272 -212h-94l-197 153h-5l-198 -153h-97z" />
    <glyph glyph-name="scircumflex" unicode="&#x15d;" horiz-adv-x="956" 
d="M218 1232l231 325h64l224 -325h-75l-180 270h-4l-186 -270h-74zM129 772c0 183 151 280 347 280c259 0 350 -160 350 -277h-79c-1 77 -64 206 -272 206c-144 0 -264 -69 -264 -202c0 -128 105 -174 278 -217c192 -47 358 -92 358 -284c0 -200 -175 -296 -379 -296
c-269 0 -374 155 -374 284h80c4 -86 77 -212 296 -212c163 0 295 71 295 216s-149 181 -300 217c-203 50 -336 110 -336 285z" />
    <glyph glyph-name="Scedilla" unicode="&#x15e;" horiz-adv-x="1141" 
d="M553 -459c-53 -1 -102 8 -125 16v62c27 -9 75 -15 121 -15c72 0 151 30 151 104c0 69 -54 99 -150 99h-51v48l51 114c-335 6 -449 224 -450 376h83c5 -125 105 -301 390 -301c227 0 378 124 378 298c0 168 -111 236 -317 291l-178 48c-187 50 -311 150 -311 345
c0 222 176 366 436 366c265 0 427 -150 429 -344h-84c-5 125 -104 269 -346 269c-217 0 -351 -115 -351 -289c0 -152 92 -226 264 -272l172 -47c235 -64 370 -146 370 -362c0 -220 -171 -359 -417 -377l-45 -104c106 0 204 -43 204 -154c0 -119 -114 -170 -224 -171z" />
    <glyph glyph-name="scedilla" unicode="&#x15f;" horiz-adv-x="956" 
d="M446 -458c-53 0 -102 9 -125 16v63c27 -9 75 -16 121 -16c73 0 151 30 151 105c0 68 -56 99 -153 99h-50v48l55 126c-255 7 -351 159 -351 283h80c4 -86 77 -212 296 -212c163 0 295 71 295 216s-149 181 -300 217c-203 50 -336 110 -336 285c0 183 151 280 347 280
c259 0 350 -160 350 -277h-79c-1 77 -64 206 -272 206c-144 0 -264 -69 -264 -202c0 -128 105 -174 278 -217c192 -47 358 -92 358 -284c0 -186 -150 -281 -335 -295l-48 -116c106 0 206 -42 206 -154c0 -119 -114 -169 -224 -171z" />
    <glyph glyph-name="Scaron" unicode="&#x160;" horiz-adv-x="1141" 
d="M100 345h83c5 -125 105 -301 390 -301c227 0 378 124 378 298c0 168 -111 236 -317 291l-178 48c-187 50 -311 150 -311 345c0 222 176 366 436 366c265 0 427 -150 429 -344h-84c-5 125 -104 269 -346 269c-217 0 -351 -115 -351 -289c0 -152 92 -226 264 -272l172 -47
c235 -64 370 -146 370 -362c0 -236 -197 -378 -471 -378c-345 0 -463 222 -464 376zM277 1694h86l209 -164h5l208 164h84l-260 -207h-66z" />
    <glyph glyph-name="scaron" unicode="&#x161;" horiz-adv-x="956" 
d="M217 1538h73l186 -270h5l180 270h75l-224 -325h-64zM129 772c0 183 151 280 347 280c259 0 350 -160 350 -277h-79c-1 77 -64 206 -272 206c-144 0 -264 -69 -264 -202c0 -128 105 -174 278 -217c192 -47 358 -92 358 -284c0 -200 -175 -296 -379 -296
c-269 0 -374 155 -374 284h80c4 -86 77 -212 296 -212c163 0 295 71 295 216s-149 181 -300 217c-203 50 -336 110 -336 285z" />
    <glyph glyph-name="Tcedilla" unicode="&#x162;" horiz-adv-x="1025" 
d="M478 -464c-53 -1 -102 8 -124 15v63c26 -9 74 -15 121 -15c72 0 150 30 150 104c0 69 -55 99 -152 99h-51v48l65 150h-14v1285h-459v75h997v-75h-457v-1285l-58 -139c106 0 207 -43 207 -154c0 -119 -115 -170 -225 -171z" />
    <glyph glyph-name="tcedilla" unicode="&#x163;" horiz-adv-x="669" 
d="M360 -450c-54 -1 -103 8 -125 15v63c26 -9 75 -15 121 -15c72 0 151 30 151 104c0 69 -56 99 -153 99h-50v48l62 147c-105 26 -143 94 -143 234v719h-194v71h194v252h81v-252h277v-71h-277v-733c0 -126 58 -164 192 -164c31 0 80 3 98 6v-68c-18 -3 -64 -7 -105 -7
c-21 0 -41 1 -59 2l-53 -125c106 0 207 -43 207 -154c0 -119 -114 -170 -224 -171z" />
    <glyph glyph-name="Tcaron" unicode="&#x164;" horiz-adv-x="1025" 
d="M219 1694h86l209 -164h5l208 164h84l-260 -207h-66zM554 0h-81v1285h-459v75h997v-75h-457v-1285z" />
    <glyph glyph-name="tcaron" unicode="&#x165;" horiz-adv-x="669" 
d="M499 1686h82l-26 -488h-56v488zM223 1035v252h81v-252h277v-71h-277v-733c0 -126 58 -164 192 -164c31 0 80 3 98 6v-68c-18 -3 -64 -7 -105 -7c-202 0 -266 63 -266 247v719h-194v71h194z" />
    <glyph glyph-name="Tbar" unicode="&#x166;" horiz-adv-x="1025" 
d="M820 691h-266v-691h-81v691h-268v68h268v526h-459v75h997v-75h-457v-526h266v-68z" />
    <glyph glyph-name="tbar" unicode="&#x167;" horiz-adv-x="664" 
d="M594 5c-18 -3 -64 -7 -105 -7c-202 0 -266 63 -266 247v327h-152v68h152v324h-194v71h194v252h81v-252h277v-71h-277v-324h205v-68h-205v-341c0 -126 58 -164 192 -164c31 0 80 3 98 6v-68z" />
    <glyph glyph-name="Utilde" unicode="&#x168;" horiz-adv-x="1310" 
d="M250 1360v-891c0 -257 145 -423 405 -423c261 0 404 165 404 423v891h83v-891c0 -302 -181 -500 -487 -500s-487 199 -487 501v890h82zM622 1563c-31 41 -60 73 -104 73c-57 0 -88 -44 -88 -129h-58c0 115 52 185 148 185c60 0 96 -28 145 -86c34 -43 56 -62 100 -62
c56 0 98 56 99 137h58c0 -108 -65 -190 -155 -190c-72 0 -105 28 -145 72z" />
    <glyph glyph-name="utilde" unicode="&#x169;" horiz-adv-x="1100" 
d="M933 1035v-1035h-81v192h-4c-35 -96 -140 -210 -336 -210c-199 0 -355 115 -355 353v700h81v-685c0 -184 113 -293 286 -293c213 0 328 172 328 357v621h81zM514 1281c-36 45 -71 83 -120 83c-63 0 -99 -51 -99 -147h-65c0 133 59 210 166 210c67 0 108 -30 162 -98
c39 -48 67 -68 116 -68c62 0 110 63 111 155h64c0 -122 -73 -216 -173 -216c-82 0 -121 31 -162 81z" />
    <glyph glyph-name="Umacron" unicode="&#x16a;" horiz-adv-x="1310" 
d="M250 1360v-891c0 -257 145 -423 405 -423c261 0 404 165 404 423v891h83v-891c0 -302 -181 -500 -487 -500s-487 199 -487 501v890h82zM924 1528h-538v56h538v-56z" />
    <glyph glyph-name="umacron" unicode="&#x16b;" horiz-adv-x="1100" 
d="M933 1035v-1035h-81v192h-4c-35 -96 -140 -210 -336 -210c-199 0 -355 115 -355 353v700h81v-685c0 -184 113 -293 286 -293c213 0 328 172 328 357v621h81zM821 1246h-554v58h554v-58z" />
    <glyph glyph-name="Ubreve" unicode="&#x16c;" horiz-adv-x="1310" 
d="M250 1360v-891c0 -257 145 -423 405 -423c261 0 404 165 404 423v891h83v-891c0 -302 -181 -500 -487 -500s-487 199 -487 501v890h82zM380 1715h67c0 -101 79 -166 208 -166s201 65 201 166h68c0 -118 -82 -229 -269 -229s-275 108 -275 229z" />
    <glyph glyph-name="ubreve" unicode="&#x16d;" horiz-adv-x="1100" 
d="M933 1035v-1035h-81v192h-4c-35 -96 -140 -210 -336 -210c-199 0 -355 115 -355 353v700h81v-685c0 -184 113 -293 286 -293c213 0 328 172 328 357v621h81zM276 1434h68c0 -104 72 -181 201 -181c128 0 194 77 194 181h67c0 -118 -82 -242 -261 -242
c-180 0 -269 121 -269 242z" />
    <glyph glyph-name="Uring" unicode="&#x16e;" horiz-adv-x="1310" 
d="M250 1360v-891c0 -257 145 -423 405 -423c261 0 404 165 404 423v891h83v-891c0 -302 -181 -500 -487 -500s-487 199 -487 501v890h82zM655 1510c-97 0 -174 76 -174 172s77 170 174 170c94 0 171 -74 171 -170s-77 -172 -171 -172zM537 1682c0 -64 54 -118 118 -118
c65 0 118 54 118 118c0 66 -53 118 -118 118c-64 0 -118 -52 -118 -118z" />
    <glyph glyph-name="uring" unicode="&#x16f;" horiz-adv-x="1100" 
d="M933 1035v-1035h-81v192h-4c-35 -96 -140 -210 -336 -210c-199 0 -355 115 -355 353v700h81v-685c0 -184 113 -293 286 -293c213 0 328 172 328 357v621h81zM550 1185c-97 0 -174 76 -174 172s77 170 174 170c94 0 171 -74 171 -170s-77 -172 -171 -172zM432 1357
c0 -64 54 -118 118 -118c65 0 118 54 118 118c0 66 -53 118 -118 118c-64 0 -118 -52 -118 -118z" />
    <glyph glyph-name="Uhungarumlaut" unicode="&#x170;" horiz-adv-x="1310" 
d="M250 1360v-891c0 -257 145 -423 405 -423c261 0 404 165 404 423v891h83v-891c0 -302 -181 -500 -487 -500s-487 199 -487 501v890h82zM447 1514l303 240h100l-315 -240h-88zM715 1514l304 240h100l-315 -240h-89z" />
    <glyph glyph-name="uhungarumlaut" unicode="&#x171;" horiz-adv-x="1100" 
d="M455 1211h-61l237 302h84zM673 1211h-61l236 302h85zM933 1035v-1035h-81v192h-4c-35 -96 -140 -210 -336 -210c-199 0 -355 115 -355 353v700h81v-685c0 -184 113 -293 286 -293c213 0 328 172 328 357v621h81z" />
    <glyph glyph-name="Uogonek" unicode="&#x172;" horiz-adv-x="1310" 
d="M919 -374c-96 0 -186 56 -186 173c0 73 39 148 107 205l-2 4c-51 -20 -110 -39 -187 -39c-300 0 -483 199 -483 501v890h82v-891c0 -257 145 -423 405 -423c261 0 404 165 404 423v891h83v-891c0 -190 -71 -317 -173 -413c-88 -83 -160 -154 -160 -246
c0 -75 55 -116 130 -116c29 0 60 5 84 14v-61c-18 -10 -51 -21 -104 -21z" />
    <glyph glyph-name="uogonek" unicode="&#x173;" horiz-adv-x="1100" 
d="M971 -342c-13 -6 -46 -17 -93 -17c-94 0 -176 52 -176 163c0 110 80 176 150 229v169h-5c-33 -97 -138 -220 -339 -220c-197 0 -351 107 -351 345v708h81v-693c0 -180 111 -287 281 -287c214 0 333 177 333 354v626h81v-1026c-79 -45 -154 -106 -154 -193
c0 -68 42 -106 112 -106c24 0 57 4 80 12v-64z" />
    <glyph glyph-name="Wcircumflex" unicode="&#x174;" horiz-adv-x="1672" 
d="M544 1502l277 212h42l272 -212h-94l-197 153h-5l-198 -153h-97zM483 0h-87l-361 1360h92l313 -1233h4l348 1233h88l348 -1233h4l313 1233h92l-362 -1360h-86l-351 1226h-5z" />
    <glyph glyph-name="wcircumflex" unicode="&#x175;" horiz-adv-x="1400" 
d="M440 1232l231 325h64l224 -325h-75l-180 270h-4l-186 -270h-74zM1361 1035l-284 -1035h-82l-292 919h-4l-290 -919h-83l-288 1035h91l237 -919h5l289 919h82l290 -919h6l238 919h85z" />
    <glyph glyph-name="Ycircumflex" unicode="&#x176;" horiz-adv-x="1060" 
d="M571 0h-81v607l-470 753h96l411 -668h6l413 668h94l-469 -751v-609zM238 1502l277 212h42l272 -212h-94l-197 153h-5l-198 -153h-97z" />
    <glyph glyph-name="ycircumflex" unicode="&#x177;" horiz-adv-x="921" 
d="M885 1035l-373 -1036l-43 -116c-54 -142 -119 -224 -273 -224c-35 0 -68 4 -94 9v73c22 -5 59 -9 88 -9c112 0 165 63 199 159l34 96l-387 1048h89l337 -951h5l332 951h86zM200 1232l231 325h64l224 -325h-75l-180 270h-4l-186 -270h-74z" />
    <glyph glyph-name="Ydieresis" unicode="&#x178;" horiz-adv-x="1060" 
d="M571 0h-81v607l-470 753h96l411 -668h6l413 668h94l-469 -751v-609zM335 1571c0 31 25 58 58 58c34 0 58 -27 58 -58c0 -29 -24 -59 -58 -59c-33 0 -58 30 -58 59zM624 1571c0 31 25 58 58 58s57 -27 57 -58c0 -29 -24 -59 -57 -59s-58 30 -58 59z" />
    <glyph glyph-name="Zacute" unicode="&#x179;" horiz-adv-x="1152" 
d="M472 1512l299 237h104l-316 -237h-87zM96 0v65l850 1217v4h-823v74h924v-65l-849 -1217v-5h853v-73h-955z" />
    <glyph glyph-name="zacute" unicode="&#x17a;" horiz-adv-x="968" 
d="M495 1211h-65l230 293h90zM126 0v62l623 898v5h-624v70h725v-65l-623 -895v-5h624v-70h-725z" />
    <glyph glyph-name="Zdotaccent" unicode="&#x17b;" horiz-adv-x="1152" 
d="M96 0v65l850 1217v4h-823v74h924v-65l-849 -1217v-5h853v-73h-955zM505 1643c0 41 32 72 70 72c41 0 73 -31 73 -72c0 -40 -32 -70 -73 -70c-38 0 -70 30 -70 70z" />
    <glyph glyph-name="zdotaccent" unicode="&#x17c;" horiz-adv-x="968" 
d="M413 1318c0 41 32 72 70 72c41 0 73 -31 73 -72c0 -40 -32 -70 -73 -70c-38 0 -70 30 -70 70zM126 0v62l623 898v5h-624v70h725v-65l-623 -895v-5h624v-70h-725z" />
    <glyph glyph-name="Zcaron" unicode="&#x17d;" horiz-adv-x="1152" 
d="M96 0v65l850 1217v4h-823v74h924v-65l-849 -1217v-5h853v-73h-955zM283 1694h86l209 -164h5l208 164h84l-260 -207h-66z" />
    <glyph glyph-name="zcaron" unicode="&#x17e;" horiz-adv-x="968" 
d="M223 1538h73l186 -270h5l180 270h75l-224 -325h-64zM126 0v62l623 898v5h-624v70h725v-65l-623 -895v-5h624v-70h-725z" />
    <glyph glyph-name="florin" unicode="&#x192;" horiz-adv-x="1048" 
d="M178 -186l185 1024h-256l13 72h256l37 199c30 170 133 281 300 281c175 0 246 -119 252 -209h-79c-5 79 -80 136 -176 136c-124 0 -192 -83 -217 -225l-35 -182h334l-15 -72h-331l-185 -1024h-83z" />
    <glyph glyph-name="Ohorn" unicode="&#x1a0;" horiz-adv-x="1299" 
d="M1174 556c0 -358 -191 -587 -520 -587s-519 229 -519 587v244c0 358 191 591 520 591c164 0 269 -73 404 -73c101 0 150 56 150 150v101h76v-99c0 -183 -123 -237 -276 -210l-3 -5c100 -96 168 -253 168 -457v-242zM216 806v-256c0 -307 167 -506 438 -506
c272 0 439 199 439 506v256c0 307 -169 510 -439 510c-269 0 -438 -203 -438 -510z" />
    <glyph glyph-name="ohorn" unicode="&#x1a1;" horiz-adv-x="1084" 
d="M542 -18c-237 0 -422 155 -422 452v163c0 296 184 455 422 455c99 0 131 -25 223 -25c85 0 153 57 153 152v118h76v-113c0 -143 -75 -213 -189 -220l-1 -5c89 -70 161 -197 161 -362v-163c0 -297 -188 -452 -423 -452zM542 979c-195 0 -341 -137 -341 -393v-141
c0 -255 143 -389 342 -389c195 0 340 132 340 389v141c0 254 -147 393 -341 393z" />
    <glyph glyph-name="Uhorn" unicode="&#x1af;" horiz-adv-x="1344" 
d="M655 -31c-306 0 -487 199 -487 501v890h82v-891c0 -257 145 -423 405 -423c261 0 404 165 404 423v891h82c101 0 158 58 158 152v103h75v-101c0 -143 -92 -224 -210 -224h-22v-821c0 -302 -181 -500 -487 -500z" />
    <glyph glyph-name="uhorn" unicode="&#x1b0;" horiz-adv-x="1164" 
d="M847 202c-33 -97 -138 -220 -339 -220c-197 0 -351 107 -351 345v708h81v-693c0 -180 111 -287 281 -287c214 0 333 177 333 354v626h85c102 0 158 58 158 152v110h76v-108c0 -153 -95 -222 -224 -222h-14v-967h-81v202h-5z" />
    <glyph glyph-name="Acaron" unicode="&#x1cd;" horiz-adv-x="1149" 
d="M129 0h-85l488 1360h85l488 -1360h-88l-160 458h-567zM576 1259h-5l-258 -731h519zM282 1694h86l209 -164h5l208 164h84l-260 -207h-66z" />
    <glyph glyph-name="acaron" unicode="&#x1ce;" horiz-adv-x="1015" 
d="M770 169c-27 -66 -129 -187 -328 -187c-201 0 -338 118 -338 308c0 172 119 289 351 289h317v151c0 173 -109 248 -274 248c-185 0 -259 -99 -269 -181h-80c8 132 122 255 354 255c213 0 351 -104 351 -310v-742h-80v169h-4zM452 55c174 0 320 119 320 295v157h-315
c-185 0 -268 -89 -268 -215c0 -148 111 -237 263 -237zM246 1538h73l186 -270h5l180 270h75l-224 -325h-64z" />
    <glyph glyph-name="Icaron" unicode="&#x1cf;" horiz-adv-x="493" 
d="M287 0h-81v1360h81v-1360zM-47 1694h86l209 -164h5l208 164h84l-260 -207h-66z" />
    <glyph glyph-name="icaron" unicode="&#x1d0;" horiz-adv-x="425" 
d="M-49 1538h73l186 -270h5l180 270h75l-224 -325h-64zM172 0v1035h80v-1035h-80z" />
    <glyph glyph-name="Ocaron" unicode="&#x1d1;" horiz-adv-x="1309" 
d="M361 1694h86l209 -164h5l208 164h84l-260 -207h-66zM216 806v-256c0 -307 167 -506 438 -506c272 0 439 199 439 506v256c0 307 -169 510 -439 510c-269 0 -438 -203 -438 -510zM135 556v244c0 358 191 591 520 591s519 -234 519 -593v-242c0 -358 -191 -587 -520 -587
s-519 229 -519 587z" />
    <glyph glyph-name="ocaron" unicode="&#x1d2;" horiz-adv-x="1085" 
d="M281 1538h73l186 -270h5l180 270h75l-224 -325h-64zM542 1052c246 0 423 -170 423 -464v-145c0 -296 -175 -461 -423 -461c-249 0 -422 165 -422 461v145c0 295 171 464 422 464zM542 979c-205 0 -341 -147 -341 -402v-123c0 -254 134 -398 342 -398
c204 0 340 142 340 398v123c0 253 -136 402 -341 402z" />
    <glyph glyph-name="Ucaron" unicode="&#x1d3;" horiz-adv-x="1310" 
d="M362 1694h86l209 -164h5l208 164h84l-260 -207h-66zM250 1360v-891c0 -257 145 -423 405 -423c261 0 404 165 404 423v891h83v-891c0 -302 -181 -500 -487 -500s-487 199 -487 501v890h82z" />
    <glyph glyph-name="ucaron" unicode="&#x1d4;" horiz-adv-x="1100" 
d="M289 1538h73l186 -270h5l180 270h75l-224 -325h-64zM933 1035v-1035h-81v192h-4c-35 -96 -140 -210 -336 -210c-199 0 -355 115 -355 353v700h81v-685c0 -184 113 -293 286 -293c213 0 328 172 328 357v621h81z" />
    <glyph glyph-name="Udieresismacron" unicode="&#x1d5;" horiz-adv-x="1310" 
d="M460 1571c0 31 25 58 58 58c34 0 58 -27 58 -58c0 -29 -24 -59 -58 -59c-33 0 -58 30 -58 59zM749 1571c0 31 25 58 58 58s57 -27 57 -58c0 -29 -24 -59 -57 -59s-58 30 -58 59zM250 1360v-891c0 -257 145 -423 405 -423c261 0 404 165 404 423v891h83v-891
c0 -302 -181 -500 -487 -500s-487 199 -487 501v890h82zM924 1809h-538v56h538v-56z" />
    <glyph glyph-name="udieresismacron" unicode="&#x1d6;" horiz-adv-x="1100" 
d="M933 1035v-1035h-81v192h-4c-35 -96 -140 -210 -336 -210c-199 0 -355 115 -355 353v700h81v-685c0 -184 113 -293 286 -293c213 0 328 172 328 357v621h81zM339 1292c0 38 31 68 67 68c38 0 68 -30 68 -68s-30 -69 -68 -69c-36 0 -67 31 -67 69zM629 1292
c0 38 31 68 67 68c39 0 69 -30 69 -68s-30 -69 -69 -69c-36 0 -67 31 -67 69zM821 1524h-554v58h554v-58z" />
    <glyph glyph-name="Udieresisacute" unicode="&#x1d7;" horiz-adv-x="1310" 
d="M551 1708l299 237h104l-316 -237h-87zM460 1571c0 31 25 58 58 58c34 0 58 -27 58 -58c0 -29 -24 -59 -58 -59c-33 0 -58 30 -58 59zM749 1571c0 31 25 58 58 58s57 -27 57 -58c0 -29 -24 -59 -57 -59s-58 30 -58 59zM250 1360v-891c0 -257 145 -423 405 -423
c261 0 404 165 404 423v891h83v-891c0 -302 -181 -500 -487 -500s-487 199 -487 501v890h82z" />
    <glyph glyph-name="udieresisacute" unicode="&#x1d8;" horiz-adv-x="1100" 
d="M561 1451h-65l230 293h90zM933 1035v-1035h-81v192h-4c-35 -96 -140 -210 -336 -210c-199 0 -355 115 -355 353v700h81v-685c0 -184 113 -293 286 -293c213 0 328 172 328 357v621h81zM339 1292c0 38 31 68 67 68c38 0 68 -30 68 -68s-30 -69 -68 -69
c-36 0 -67 31 -67 69zM629 1292c0 38 31 68 67 68c39 0 69 -30 69 -68s-30 -69 -69 -69c-36 0 -67 31 -67 69z" />
    <glyph glyph-name="Udieresiscaron" unicode="&#x1d9;" horiz-adv-x="1310" 
d="M460 1571c0 31 25 58 58 58c34 0 58 -27 58 -58c0 -29 -24 -59 -58 -59c-33 0 -58 30 -58 59zM749 1571c0 31 25 58 58 58s57 -27 57 -58c0 -29 -24 -59 -57 -59s-58 30 -58 59zM362 1952h86l209 -164h5l208 164h84l-260 -207h-66zM250 1360v-891
c0 -257 145 -423 405 -423c261 0 404 165 404 423v891h83v-891c0 -302 -181 -500 -487 -500s-487 199 -487 501v890h82z" />
    <glyph glyph-name="udieresiscaron" unicode="&#x1da;" horiz-adv-x="1100" 
d="M289 1786h73l186 -270h5l180 270h75l-224 -325h-64zM933 1035v-1035h-81v192h-4c-35 -96 -140 -210 -336 -210c-199 0 -355 115 -355 353v700h81v-685c0 -184 113 -293 286 -293c213 0 328 172 328 357v621h81zM339 1292c0 38 31 68 67 68c38 0 68 -30 68 -68
s-30 -69 -68 -69c-36 0 -67 31 -67 69zM629 1292c0 38 31 68 67 68c39 0 69 -30 69 -68s-30 -69 -69 -69c-36 0 -67 31 -67 69z" />
    <glyph glyph-name="Udieresisgrave" unicode="&#x1db;" horiz-adv-x="1310" 
d="M754 1710h-88l-316 237h105zM460 1571c0 31 25 58 58 58c34 0 58 -27 58 -58c0 -29 -24 -59 -58 -59c-33 0 -58 30 -58 59zM749 1571c0 31 25 58 58 58s57 -27 57 -58c0 -29 -24 -59 -57 -59s-58 30 -58 59zM250 1360v-891c0 -257 145 -423 405 -423
c261 0 404 165 404 423v891h83v-891c0 -302 -181 -500 -487 -500s-487 199 -487 501v890h82z" />
    <glyph glyph-name="udieresisgrave" unicode="&#x1dc;" horiz-adv-x="1100" 
d="M646 1451h-64l-255 293h90zM933 1035v-1035h-81v192h-4c-35 -96 -140 -210 -336 -210c-199 0 -355 115 -355 353v700h81v-685c0 -184 113 -293 286 -293c213 0 328 172 328 357v621h81zM339 1292c0 38 31 68 67 68c38 0 68 -30 68 -68s-30 -69 -68 -69
c-36 0 -67 31 -67 69zM629 1292c0 38 31 68 67 68c39 0 69 -30 69 -68s-30 -69 -69 -69c-36 0 -67 31 -67 69z" />
    <glyph glyph-name="Adieresismacron" unicode="&#x1de;" horiz-adv-x="1149" 
d="M129 0h-85l488 1360h85l488 -1360h-88l-160 458h-567zM576 1259h-5l-258 -731h519zM381 1571c0 31 25 58 58 58c34 0 58 -27 58 -58c0 -29 -24 -59 -58 -59c-33 0 -58 30 -58 59zM670 1571c0 31 25 58 58 58s57 -27 57 -58c0 -29 -24 -59 -57 -59s-58 30 -58 59z
M844 1809h-538v56h538v-56z" />
    <glyph glyph-name="adieresismacron" unicode="&#x1df;" horiz-adv-x="1015" 
d="M770 169c-27 -66 -129 -187 -328 -187c-201 0 -338 118 -338 308c0 172 119 289 351 289h317v151c0 173 -109 248 -274 248c-185 0 -259 -99 -269 -181h-80c8 132 122 255 354 255c213 0 351 -104 351 -310v-742h-80v169h-4zM452 55c174 0 320 119 320 295v157h-315
c-185 0 -268 -89 -268 -215c0 -148 111 -237 263 -237zM296 1292c0 38 31 68 67 68c38 0 68 -30 68 -68s-30 -69 -68 -69c-36 0 -67 31 -67 69zM586 1292c0 38 31 68 67 68c39 0 69 -30 69 -68s-30 -69 -69 -69c-36 0 -67 31 -67 69zM778 1524h-554v58h554v-58z" />
    <glyph glyph-name="Adotmacron" unicode="&#x1e0;" horiz-adv-x="1149" 
d="M129 0h-85l488 1360h85l488 -1360h-88l-160 458h-567zM576 1259h-5l-258 -731h519zM504 1643c0 41 32 72 70 72c41 0 73 -31 73 -72c0 -40 -32 -70 -73 -70c-38 0 -70 30 -70 70zM844 1809h-538v56h538v-56z" />
    <glyph glyph-name="adotmacron" unicode="&#x1e1;" horiz-adv-x="1015" 
d="M770 169c-27 -66 -129 -187 -328 -187c-201 0 -338 118 -338 308c0 172 119 289 351 289h317v151c0 173 -109 248 -274 248c-185 0 -259 -99 -269 -181h-80c8 132 122 255 354 255c213 0 351 -104 351 -310v-742h-80v169h-4zM452 55c174 0 320 119 320 295v157h-315
c-185 0 -268 -89 -268 -215c0 -148 111 -237 263 -237zM436 1318c0 41 32 72 70 72c41 0 73 -31 73 -72c0 -40 -32 -70 -73 -70c-38 0 -70 30 -70 70zM778 1524h-554v58h554v-58z" />
    <glyph glyph-name="AEmacron" unicode="&#x1e2;" horiz-adv-x="1823" 
d="M874 1284l-434 -728h502v728h-68zM942 486h-543l-290 -486h-89l809 1360h886v-76h-691v-550h657v-75h-657v-584h691v-75h-773v486zM1597 1528h-538v56h538v-56z" />
    <glyph glyph-name="aemacron" unicode="&#x1e3;" horiz-adv-x="1697" 
d="M1188 -18c-203 0 -337 107 -372 262h-7c-30 -134 -157 -262 -366 -262c-206 0 -339 122 -339 309s131 290 353 290h316v146c0 174 -135 251 -276 251c-182 0 -256 -95 -269 -169h-80c10 129 130 243 354 243c144 0 286 -70 327 -207h6c58 139 191 207 341 207
c238 0 396 -166 396 -480v-63h-718v-66c0 -247 131 -387 334 -387c188 0 283 111 297 197h83c-12 -110 -130 -271 -380 -271zM1176 979c-192 0 -322 -144 -322 -389v-13h637v10c0 249 -121 392 -315 392zM453 55c173 0 320 119 320 295v159h-315c-186 0 -273 -91 -273 -217
c0 -146 117 -237 268 -237zM1119 1246h-554v58h554v-58z" />
    <glyph glyph-name="Gcaron" unicode="&#x1e6;" horiz-adv-x="1263" 
d="M343 1694h86l209 -164h5l208 164h84l-260 -207h-66zM1123 1007h-79c-6 145 -133 309 -392 309c-261 0 -435 -193 -435 -515v-228c0 -308 142 -529 433 -529c239 0 400 129 400 353v186h-407v75h485v-261c0 -251 -177 -428 -477 -428c-353 0 -516 259 -516 604v228
c0 358 197 590 518 590c313 0 466 -196 470 -384z" />
    <glyph glyph-name="gcaron" unicode="&#x1e7;" horiz-adv-x="1094" 
d="M286 1538h73l186 -270h5l180 270h75l-224 -325h-64zM526 -287c209 0 326 114 326 280v255h-4c-21 -65 -116 -217 -335 -217c-226 0 -398 167 -398 434v150c0 287 189 437 400 437c213 0 305 -133 335 -213h4v196h78v-1039c0 -219 -154 -357 -408 -357
c-260 0 -373 149 -378 277h83c8 -93 100 -203 297 -203zM522 979c-173 0 -326 -124 -326 -382v-117c0 -240 144 -375 326 -375c213 0 330 180 330 369v126c0 211 -129 379 -330 379z" />
    <glyph glyph-name="Kcaron" unicode="&#x1e8;" horiz-adv-x="1109" 
d="M1060 1360l-558 -604l590 -756h-106l-544 700l-170 -179v-521h-82v1360h82v-730h3l681 730h104zM256 1694h86l209 -164h5l208 164h84l-260 -207h-66z" />
    <glyph glyph-name="kcaron" unicode="&#x1e9;" horiz-adv-x="994" 
d="M-51 1939h73l186 -270h5l180 270h75l-224 -325h-64zM251 423v-423h-80v1435h80v-915h5l554 529h102l-457 -442l475 -607h-101l-434 554z" />
    <glyph glyph-name="Oogonek" unicode="&#x1ea;" horiz-adv-x="1309" 
d="M216 806v-256c0 -307 167 -506 438 -506c272 0 439 199 439 506v256c0 307 -169 510 -439 510c-269 0 -438 -203 -438 -510zM651 -31c-325 0 -516 229 -516 587v244c0 358 191 591 520 591s519 -234 519 -593v-242c0 -236 -83 -389 -206 -499
c-81 -74 -162 -156 -162 -247c0 -74 55 -116 130 -116c30 0 60 5 84 14v-61c-17 -10 -48 -21 -104 -21c-97 0 -186 57 -186 173c0 77 36 144 108 208l-1 2c-57 -27 -117 -40 -186 -40z" />
    <glyph glyph-name="oogonek" unicode="&#x1eb;" horiz-adv-x="1085" 
d="M542 979c-195 0 -341 -137 -341 -392v-142c0 -255 143 -389 342 -389c195 0 340 132 340 389v142c0 253 -147 392 -341 392zM697 28c-35 -27 -94 -46 -162 -46c-230 0 -415 156 -415 449v166c0 296 184 455 423 455c232 0 422 -160 422 -455v-163
c0 -174 -65 -288 -151 -370c-78 -74 -146 -142 -146 -237c0 -73 55 -118 131 -118c30 0 61 6 84 14v-62c-16 -9 -50 -20 -105 -20c-96 0 -186 56 -186 174c0 80 44 146 109 208z" />
    <glyph glyph-name="Oogonekmacron" unicode="&#x1ec;" horiz-adv-x="1309" 
d="M216 806v-256c0 -307 167 -506 438 -506c272 0 439 199 439 506v256c0 307 -169 510 -439 510c-269 0 -438 -203 -438 -510zM651 -31c-325 0 -516 229 -516 587v244c0 358 191 591 520 591s519 -234 519 -593v-242c0 -236 -83 -389 -206 -499
c-81 -74 -162 -156 -162 -247c0 -74 55 -116 130 -116c30 0 60 5 84 14v-61c-17 -10 -48 -21 -104 -21c-97 0 -186 57 -186 173c0 77 36 144 108 208l-1 2c-57 -27 -117 -40 -186 -40zM923 1528h-538v56h538v-56z" />
    <glyph glyph-name="oogonekmacron" unicode="&#x1ed;" horiz-adv-x="1085" 
d="M542 979c-195 0 -341 -137 -341 -392v-142c0 -255 143 -389 342 -389c195 0 340 132 340 389v142c0 253 -147 392 -341 392zM697 28c-35 -27 -94 -46 -162 -46c-230 0 -415 156 -415 449v166c0 296 184 455 423 455c232 0 422 -160 422 -455v-163
c0 -174 -65 -288 -151 -370c-78 -74 -146 -142 -146 -237c0 -73 55 -118 131 -118c30 0 61 6 84 14v-62c-16 -9 -50 -20 -105 -20c-96 0 -186 56 -186 174c0 80 44 146 109 208zM813 1246h-554v58h554v-58z" />
    <glyph glyph-name="Gacute" unicode="&#x1f4;" horiz-adv-x="1263" 
d="M532 1512l299 237h104l-316 -237h-87zM1123 1007h-79c-6 145 -133 309 -392 309c-261 0 -435 -193 -435 -515v-228c0 -308 142 -529 433 -529c239 0 400 129 400 353v186h-407v75h485v-261c0 -251 -177 -428 -477 -428c-353 0 -516 259 -516 604v228
c0 358 197 590 518 590c313 0 466 -196 470 -384z" />
    <glyph glyph-name="gacute" unicode="&#x1f5;" horiz-adv-x="1094" 
d="M558 1211h-65l230 293h90zM526 -287c209 0 326 114 326 280v255h-4c-21 -65 -116 -217 -335 -217c-226 0 -398 167 -398 434v150c0 287 189 437 400 437c213 0 305 -133 335 -213h4v196h78v-1039c0 -219 -154 -357 -408 -357c-260 0 -373 149 -378 277h83
c8 -93 100 -203 297 -203zM522 979c-173 0 -326 -124 -326 -382v-117c0 -240 144 -375 326 -375c213 0 330 180 330 369v126c0 211 -129 379 -330 379z" />
    <glyph glyph-name="Ngrave" unicode="&#x1f8;" horiz-adv-x="1334" 
d="M766 1514h-88l-316 237h105zM272 0h-82v1360h85l782 -1216h4v1216h82v-1360h-84l-783 1216h-4v-1216z" />
    <glyph glyph-name="ngrave" unicode="&#x1f9;" horiz-adv-x="1101" 
d="M646 1211h-64l-255 293h90zM167 0v1035h80v-192h4c35 102 143 209 333 209c205 0 359 -131 359 -368v-684h-81v664c0 183 -101 313 -289 313c-214 0 -326 -163 -326 -350v-627h-80z" />
    <glyph glyph-name="Aringacute" unicode="&#x1fa;" horiz-adv-x="1150" 
d="M542 1641l315 250h108l-326 -250h-97zM457 1493c0 -64 55 -118 118 -118c65 0 118 54 118 118c0 66 -53 119 -118 119c-63 0 -118 -53 -118 -119zM833 528l-256 731h-6l-257 -731h519zM130 0h-86l477 1329c-70 21 -120 87 -120 164c0 95 77 171 174 171
c94 0 170 -76 170 -171c0 -77 -48 -141 -117 -164l477 -1329h-88l-160 458h-567z" />
    <glyph glyph-name="aringacute" unicode="&#x1fb;" horiz-adv-x="1015" 
d="M622 1485h-66l247 314h93zM770 169c-27 -66 -129 -187 -328 -187c-201 0 -338 118 -338 308c0 172 119 289 351 289h317v151c0 173 -109 248 -274 248c-185 0 -259 -99 -269 -181h-80c8 132 122 255 354 255c213 0 351 -104 351 -310v-742h-80v169h-4zM452 55
c174 0 320 119 320 295v157h-315c-185 0 -268 -89 -268 -215c0 -148 111 -237 263 -237zM513 1185c-97 0 -174 76 -174 172s77 170 174 170c94 0 171 -74 171 -170s-77 -172 -171 -172zM395 1357c0 -64 54 -118 118 -118c65 0 118 54 118 118c0 66 -53 118 -118 118
c-64 0 -118 -52 -118 -118z" />
    <glyph glyph-name="AEacute" unicode="&#x1fc;" horiz-adv-x="1823" 
d="M1224 1512l299 237h104l-316 -237h-87zM874 1284l-434 -728h502v728h-68zM942 486h-543l-290 -486h-89l809 1360h886v-76h-691v-550h657v-75h-657v-584h691v-75h-773v486z" />
    <glyph glyph-name="aeacute" unicode="&#x1fd;" horiz-adv-x="1697" 
d="M859 1211h-65l230 293h90zM1188 -18c-203 0 -337 107 -372 262h-7c-30 -134 -157 -262 -366 -262c-206 0 -339 122 -339 309s131 290 353 290h316v146c0 174 -135 251 -276 251c-182 0 -256 -95 -269 -169h-80c10 129 130 243 354 243c144 0 286 -70 327 -207h6
c58 139 191 207 341 207c238 0 396 -166 396 -480v-63h-718v-66c0 -247 131 -387 334 -387c188 0 283 111 297 197h83c-12 -110 -130 -271 -380 -271zM1176 979c-192 0 -322 -144 -322 -389v-13h637v10c0 249 -121 392 -315 392zM453 55c173 0 320 119 320 295v159h-315
c-186 0 -273 -91 -273 -217c0 -146 117 -237 268 -237z" />
    <glyph glyph-name="Oslashacute" unicode="&#x1fe;" horiz-adv-x="1309" 
d="M654 -31c-181 0 -319 69 -407 192l-112 -133l-50 41l126 147c-50 93 -76 208 -76 341v242c0 359 190 592 520 592c175 0 310 -67 398 -181l118 139l52 -36l-133 -157c55 -96 84 -216 84 -357v-242c0 -358 -190 -588 -520 -588zM216 550c0 -101 18 -190 52 -265l731 860
c-76 108 -194 171 -345 171c-270 0 -438 -203 -438 -510v-256zM654 44c273 0 439 199 439 506v256c0 108 -21 203 -60 281l-732 -862c75 -114 196 -181 353 -181zM550 1512l299 237h104l-316 -237h-87z" />
    <glyph glyph-name="oslashacute" unicode="&#x1ff;" horiz-adv-x="1085" 
d="M289 164c60 -72 150 -109 254 -109c195 0 341 133 341 390v149c0 84 -16 155 -45 212zM200 437c0 -89 18 -163 50 -220l551 643c-61 79 -154 120 -259 120c-195 0 -342 -138 -342 -394v-149zM542 -18c-120 0 -227 42 -302 123l-106 -125l-49 39l113 134
c-49 72 -78 166 -78 281v163c0 296 184 455 422 455c121 0 231 -46 307 -134l126 145l48 -39l-133 -153c47 -72 75 -164 75 -274v-163c0 -297 -188 -452 -423 -452zM553 1211h-65l230 293h90z" />
    <glyph glyph-name="Adblgrave" unicode="&#x200;" horiz-adv-x="1149" 
d="M129 0h-85l488 1360h85l488 -1360h-88l-160 458h-567zM576 1259h-5l-258 -731h519zM773 1514h-81l-322 240h100zM505 1514h-82l-322 240h100z" />
    <glyph glyph-name="adblgrave" unicode="&#x201;" horiz-adv-x="1015" 
d="M770 169c-27 -66 -129 -187 -328 -187c-201 0 -338 118 -338 308c0 172 119 289 351 289h317v151c0 173 -109 248 -274 248c-185 0 -259 -99 -269 -181h-80c8 132 122 255 354 255c213 0 351 -104 351 -310v-742h-80v169h-4zM452 55c174 0 320 119 320 295v157h-315
c-185 0 -268 -89 -268 -215c0 -148 111 -237 263 -237zM378 1209l-260 302h85l236 -302h-61zM596 1209l-260 302h85l236 -302h-61z" />
    <glyph glyph-name="Ainvertedbreve" unicode="&#x202;" horiz-adv-x="1149" 
d="M129 0h-85l488 1360h85l488 -1360h-88l-160 458h-567zM576 1259h-5l-258 -731h519zM575 1688c-129 0 -208 -74 -208 -176h-67c0 121 88 238 275 238s269 -120 269 -238h-68c0 102 -72 176 -201 176z" />
    <glyph glyph-name="ainvertedbreve" unicode="&#x203;" horiz-adv-x="1015" 
d="M770 169c-27 -66 -129 -187 -328 -187c-201 0 -338 118 -338 308c0 172 119 289 351 289h317v151c0 173 -109 248 -274 248c-185 0 -259 -99 -269 -181h-80c8 132 122 255 354 255c213 0 351 -104 351 -310v-742h-80v169h-4zM452 55c174 0 320 119 320 295v157h-315
c-185 0 -268 -89 -268 -215c0 -148 111 -237 263 -237zM239 1216c0 120 88 242 268 242s262 -125 261 -242h-67c0 103 -66 180 -194 180s-201 -77 -201 -180h-67z" />
    <glyph glyph-name="Edblgrave" unicode="&#x204;" horiz-adv-x="1073" 
d="M774 1514h-81l-322 240h100zM506 1514h-82l-322 240h100zM966 75v-75h-776v1360h776v-76h-694v-550h660v-75h-660v-584h694z" />
    <glyph glyph-name="edblgrave" unicode="&#x205;" horiz-adv-x="1046" 
d="M536 -18c-264 0 -414 178 -414 475v105c0 315 155 490 402 490c248 0 403 -173 403 -489v-53h-724v-53c0 -250 123 -401 333 -401c194 0 282 115 293 205h83c-12 -117 -122 -279 -376 -279zM203 581h643v4c0 247 -126 394 -322 394c-195 0 -321 -147 -321 -394v-4z
M394 1209l-260 302h85l236 -302h-61zM612 1209l-260 302h85l236 -302h-61z" />
    <glyph glyph-name="Einvertedbreve" unicode="&#x206;" horiz-adv-x="1073" 
d="M966 75v-75h-776v1360h776v-76h-694v-550h660v-75h-660v-584h694zM576 1688c-129 0 -208 -74 -208 -176h-67c0 121 88 238 275 238s269 -120 269 -238h-68c0 102 -72 176 -201 176z" />
    <glyph glyph-name="einvertedbreve" unicode="&#x207;" horiz-adv-x="1046" 
d="M536 -18c-264 0 -414 178 -414 475v105c0 315 155 490 402 490c248 0 403 -173 403 -489v-53h-724v-53c0 -250 123 -401 333 -401c194 0 282 115 293 205h83c-12 -117 -122 -279 -376 -279zM203 581h643v4c0 247 -126 394 -322 394c-195 0 -321 -147 -321 -394v-4z
M255 1216c0 120 88 242 268 242s262 -125 261 -242h-67c0 103 -66 180 -194 180s-201 -77 -201 -180h-67z" />
    <glyph glyph-name="Idblgrave" unicode="&#x208;" horiz-adv-x="493" 
d="M287 0h-81v1360h81v-1360zM444 1514h-81l-322 240h100zM176 1514h-82l-322 240h100z" />
    <glyph glyph-name="idblgrave" unicode="&#x209;" horiz-adv-x="425" 
d="M172 0v1035h80v-1035h-80zM83 1209l-260 302h85l236 -302h-61zM301 1209l-260 302h85l236 -302h-61z" />
    <glyph glyph-name="Iinvertedbreve" unicode="&#x20a;" horiz-adv-x="493" 
d="M287 0h-81v1360h81v-1360zM246 1688c-129 0 -208 -74 -208 -176h-67c0 121 88 238 275 238s269 -120 269 -238h-68c0 102 -72 176 -201 176z" />
    <glyph glyph-name="iinvertedbreve" unicode="&#x20b;" horiz-adv-x="425" 
d="M172 0v1035h80v-1035h-80zM-56 1216c0 120 88 242 268 242s262 -125 261 -242h-67c0 103 -66 180 -194 180s-201 -77 -201 -180h-67z" />
    <glyph glyph-name="Odblgrave" unicode="&#x20c;" horiz-adv-x="1309" 
d="M852 1514h-81l-322 240h100zM584 1514h-82l-322 240h100zM216 806v-256c0 -307 167 -506 438 -506c272 0 439 199 439 506v256c0 307 -169 510 -439 510c-269 0 -438 -203 -438 -510zM135 556v244c0 358 191 591 520 591s519 -234 519 -593v-242
c0 -358 -191 -587 -520 -587s-519 229 -519 587z" />
    <glyph glyph-name="odblgrave" unicode="&#x20d;" horiz-adv-x="1085" 
d="M542 1052c246 0 423 -170 423 -464v-145c0 -296 -175 -461 -423 -461c-249 0 -422 165 -422 461v145c0 295 171 464 422 464zM542 979c-205 0 -341 -147 -341 -402v-123c0 -254 134 -398 342 -398c204 0 340 142 340 398v123c0 253 -136 402 -341 402zM413 1209l-260 302
h85l236 -302h-61zM631 1209l-260 302h85l236 -302h-61z" />
    <glyph glyph-name="Oinvertedbreve" unicode="&#x20e;" horiz-adv-x="1309" 
d="M654 1688c-129 0 -208 -74 -208 -176h-67c0 121 88 238 275 238s269 -120 269 -238h-68c0 102 -72 176 -201 176zM216 806v-256c0 -307 167 -506 438 -506c272 0 439 199 439 506v256c0 307 -169 510 -439 510c-269 0 -438 -203 -438 -510zM135 556v244
c0 358 191 591 520 591s519 -234 519 -593v-242c0 -358 -191 -587 -520 -587s-519 229 -519 587z" />
    <glyph glyph-name="oinvertedbreve" unicode="&#x20f;" horiz-adv-x="1085" 
d="M542 1052c246 0 423 -170 423 -464v-145c0 -296 -175 -461 -423 -461c-249 0 -422 165 -422 461v145c0 295 171 464 422 464zM542 979c-205 0 -341 -147 -341 -402v-123c0 -254 134 -398 342 -398c204 0 340 142 340 398v123c0 253 -136 402 -341 402zM274 1216
c0 120 88 242 268 242s262 -125 261 -242h-67c0 103 -66 180 -194 180s-201 -77 -201 -180h-67z" />
    <glyph glyph-name="Rdblgrave" unicode="&#x210;" horiz-adv-x="1187" 
d="M782 1514h-81l-322 240h100zM514 1514h-82l-322 240h100zM637 1360c259 0 411 -159 411 -382c0 -213 -128 -329 -289 -368l312 -610h-95l-302 594h-402v-594h-82v1360h447zM272 667h351c211 0 342 117 342 308c0 195 -132 311 -340 311h-353v-619z" />
    <glyph glyph-name="rdblgrave" unicode="&#x211;" horiz-adv-x="667" 
d="M171 0v1035h81v-191h4c21 89 105 207 296 207c42 0 71 -5 85 -7v-78c-12 3 -45 9 -92 9c-163 0 -293 -110 -293 -336v-639h-81zM222 1209l-260 302h85l236 -302h-61zM440 1209l-260 302h85l236 -302h-61z" />
    <glyph glyph-name="Rinvertedbreve" unicode="&#x212;" horiz-adv-x="1187" 
d="M637 1360c259 0 411 -159 411 -382c0 -213 -128 -329 -289 -368l312 -610h-95l-302 594h-402v-594h-82v1360h447zM272 667h351c211 0 342 117 342 308c0 195 -132 311 -340 311h-353v-619zM584 1688c-129 0 -208 -74 -208 -176h-67c0 121 88 238 275 238
s269 -120 269 -238h-68c0 102 -72 176 -201 176z" />
    <glyph glyph-name="rinvertedbreve" unicode="&#x213;" horiz-adv-x="667" 
d="M171 0v1035h81v-191h4c21 89 105 207 296 207c42 0 71 -5 85 -7v-78c-12 3 -45 9 -92 9c-163 0 -293 -110 -293 -336v-639h-81zM83 1216c0 120 88 242 268 242s262 -125 261 -242h-67c0 103 -66 180 -194 180s-201 -77 -201 -180h-67z" />
    <glyph glyph-name="Udblgrave" unicode="&#x214;" horiz-adv-x="1310" 
d="M853 1514h-81l-322 240h100zM585 1514h-82l-322 240h100zM250 1360v-891c0 -257 145 -423 405 -423c261 0 404 165 404 423v891h83v-891c0 -302 -181 -500 -487 -500s-487 199 -487 501v890h82z" />
    <glyph glyph-name="udblgrave" unicode="&#x215;" horiz-adv-x="1100" 
d="M933 1035v-1035h-81v192h-4c-35 -96 -140 -210 -336 -210c-199 0 -355 115 -355 353v700h81v-685c0 -184 113 -293 286 -293c213 0 328 172 328 357v621h81zM421 1209l-260 302h85l236 -302h-61zM639 1209l-260 302h85l236 -302h-61z" />
    <glyph glyph-name="Uinvertedbreve" unicode="&#x216;" horiz-adv-x="1310" 
d="M250 1360v-891c0 -257 145 -423 405 -423c261 0 404 165 404 423v891h83v-891c0 -302 -181 -500 -487 -500s-487 199 -487 501v890h82zM655 1688c-129 0 -208 -74 -208 -176h-67c0 121 88 238 275 238s269 -120 269 -238h-68c0 102 -72 176 -201 176z" />
    <glyph glyph-name="uinvertedbreve" unicode="&#x217;" horiz-adv-x="1100" 
d="M933 1035v-1035h-81v192h-4c-35 -96 -140 -210 -336 -210c-199 0 -355 115 -355 353v700h81v-685c0 -184 113 -293 286 -293c213 0 328 172 328 357v621h81zM282 1216c0 120 88 242 268 242s262 -125 261 -242h-67c0 103 -66 180 -194 180s-201 -77 -201 -180h-67z" />
    <glyph glyph-name="Scommaaccent" unicode="&#x218;" horiz-adv-x="1141" 
d="M100 345h83c5 -125 105 -301 390 -301c227 0 378 124 378 298c0 168 -111 236 -317 291l-178 48c-187 50 -311 150 -311 345c0 222 176 366 436 366c265 0 427 -150 429 -344h-84c-5 125 -104 269 -346 269c-217 0 -351 -115 -351 -289c0 -152 92 -226 264 -272l172 -47
c235 -64 370 -146 370 -362c0 -236 -197 -378 -471 -378c-345 0 -463 222 -464 376zM502 -481h-60l85 335h89z" />
    <glyph glyph-name="scommaaccent" unicode="&#x219;" horiz-adv-x="956" 
d="M129 772c0 183 151 280 347 280c259 0 350 -160 350 -277h-79c-1 77 -64 206 -272 206c-144 0 -264 -69 -264 -202c0 -128 105 -174 278 -217c192 -47 358 -92 358 -284c0 -200 -175 -296 -379 -296c-269 0 -374 155 -374 284h80c4 -86 77 -212 296 -212
c163 0 295 71 295 216s-149 181 -300 217c-203 50 -336 110 -336 285zM416 -481h-60l85 335h89z" />
    <glyph glyph-name="Tcommaaccent" unicode="&#x21a;" horiz-adv-x="1025" 
d="M450 -481h-60l85 335h89zM554 0h-81v1285h-459v75h997v-75h-457v-1285z" />
    <glyph glyph-name="tcommaaccent" unicode="&#x21b;" horiz-adv-x="664" 
d="M332 -481h-60l85 335h89zM223 1035v252h81v-252h277v-71h-277v-733c0 -126 58 -164 192 -164c31 0 80 3 98 6v-68c-18 -3 -64 -7 -105 -7c-202 0 -266 63 -266 247v719h-194v71h194z" />
    <glyph glyph-name="Hcaron" unicode="&#x21e;" horiz-adv-x="1334" 
d="M1143 0h-82v676h-789v-676h-82v1360h82v-609h789v609h82v-1360zM374 1694h86l209 -164h5l208 164h84l-260 -207h-66z" />
    <glyph glyph-name="hcaron" unicode="&#x21f;" horiz-adv-x="1114" 
d="M171 0v1435h80v-592h4c32 99 138 209 332 209c212 0 364 -142 364 -379v-673h-81v661c0 178 -102 316 -291 316c-213 0 -328 -164 -328 -351v-626h-80zM-51 1939h73l186 -270h5l180 270h75l-224 -325h-64z" />
    <glyph glyph-name="Adotaccent" unicode="&#x226;" horiz-adv-x="1149" 
d="M129 0h-85l488 1360h85l488 -1360h-88l-160 458h-567zM576 1259h-5l-258 -731h519zM504 1643c0 41 32 72 70 72c41 0 73 -31 73 -72c0 -40 -32 -70 -73 -70c-38 0 -70 30 -70 70z" />
    <glyph glyph-name="adotaccent" unicode="&#x227;" horiz-adv-x="1015" 
d="M770 169c-27 -66 -129 -187 -328 -187c-201 0 -338 118 -338 308c0 172 119 289 351 289h317v151c0 173 -109 248 -274 248c-185 0 -259 -99 -269 -181h-80c8 132 122 255 354 255c213 0 351 -104 351 -310v-742h-80v169h-4zM452 55c174 0 320 119 320 295v157h-315
c-185 0 -268 -89 -268 -215c0 -148 111 -237 263 -237zM436 1318c0 41 32 72 70 72c41 0 73 -31 73 -72c0 -40 -32 -70 -73 -70c-38 0 -70 30 -70 70z" />
    <glyph glyph-name="Ecedilla" unicode="&#x228;" horiz-adv-x="1073" 
d="M540 -459c-53 -1 -103 8 -125 15v63c26 -9 75 -16 121 -16c72 0 151 31 151 105c0 69 -56 99 -153 99h-50v48l62 145h-356v1360h776v-76h-694v-550h660v-75h-660v-584h694v-75h-353l-56 -134c106 0 207 -43 207 -154c0 -120 -114 -170 -224 -171z" />
    <glyph glyph-name="ecedilla" unicode="&#x229;" horiz-adv-x="1046" 
d="M203 581h643v4c0 247 -126 394 -322 394c-195 0 -321 -147 -321 -394v-4zM510 -464c-53 -1 -103 8 -125 15v63c26 -9 75 -15 121 -15c72 0 151 30 151 104c0 69 -56 99 -153 99h-50v48l57 133c-247 11 -389 185 -389 474v105c0 315 155 490 402 490
c248 0 403 -173 403 -489v-53h-724v-53c0 -250 123 -401 333 -401c194 0 282 115 293 205h83c-12 -110 -110 -260 -333 -278l-52 -122c106 0 207 -43 207 -154c0 -119 -114 -170 -224 -171z" />
    <glyph glyph-name="Odieresismacron" unicode="&#x22a;" horiz-adv-x="1309" 
d="M460 1571c0 31 25 58 58 58c34 0 58 -27 58 -58c0 -29 -24 -59 -58 -59c-33 0 -58 30 -58 59zM749 1571c0 31 25 58 58 58s57 -27 57 -58c0 -29 -24 -59 -57 -59s-58 30 -58 59zM216 806v-256c0 -307 167 -506 438 -506c272 0 439 199 439 506v256
c0 307 -169 510 -439 510c-269 0 -438 -203 -438 -510zM135 556v244c0 358 191 591 520 591s519 -234 519 -593v-242c0 -358 -191 -587 -520 -587s-519 229 -519 587zM923 1809h-538v56h538v-56z" />
    <glyph glyph-name="odieresismacron" unicode="&#x22b;" horiz-adv-x="1085" 
d="M331 1292c0 38 31 68 67 68c38 0 68 -30 68 -68s-30 -69 -68 -69c-36 0 -67 31 -67 69zM621 1292c0 38 31 68 67 68c39 0 69 -30 69 -68s-30 -69 -69 -69c-36 0 -67 31 -67 69zM542 1052c246 0 423 -170 423 -464v-145c0 -296 -175 -461 -423 -461
c-249 0 -422 165 -422 461v145c0 295 171 464 422 464zM542 979c-205 0 -341 -147 -341 -402v-123c0 -254 134 -398 342 -398c204 0 340 142 340 398v123c0 253 -136 402 -341 402zM813 1524h-554v58h554v-58z" />
    <glyph glyph-name="Otildemacron" unicode="&#x22c;" horiz-adv-x="1309" 
d="M216 806v-256c0 -307 167 -506 438 -506c272 0 439 199 439 506v256c0 307 -169 510 -439 510c-269 0 -438 -203 -438 -510zM135 556v244c0 358 191 591 520 591s519 -234 519 -593v-242c0 -358 -191 -587 -520 -587s-519 229 -519 587zM621 1563c-31 41 -60 73 -104 73
c-57 0 -88 -44 -88 -129h-58c0 115 52 185 148 185c60 0 96 -28 145 -86c34 -43 56 -62 100 -62c56 0 98 56 99 137h58c0 -108 -65 -190 -155 -190c-72 0 -105 28 -145 72zM923 1809h-538v56h538v-56z" />
    <glyph glyph-name="otildemacron" unicode="&#x22d;" horiz-adv-x="1085" 
d="M506 1281c-36 45 -71 83 -120 83c-63 0 -99 -51 -99 -147h-65c0 133 59 210 166 210c67 0 108 -30 162 -98c39 -48 67 -68 116 -68c62 0 110 63 111 155h64c0 -122 -73 -216 -173 -216c-82 0 -121 31 -162 81zM813 1524h-554v58h554v-58zM542 1052
c246 0 423 -170 423 -464v-145c0 -296 -175 -461 -423 -461c-249 0 -422 165 -422 461v145c0 295 171 464 422 464zM542 979c-205 0 -341 -147 -341 -402v-123c0 -254 134 -398 342 -398c204 0 340 142 340 398v123c0 253 -136 402 -341 402z" />
    <glyph glyph-name="Odotaccent" unicode="&#x22e;" horiz-adv-x="1309" 
d="M583 1643c0 41 32 72 70 72c41 0 73 -31 73 -72c0 -40 -32 -70 -73 -70c-38 0 -70 30 -70 70zM216 806v-256c0 -307 167 -506 438 -506c272 0 439 199 439 506v256c0 307 -169 510 -439 510c-269 0 -438 -203 -438 -510zM135 556v244c0 358 191 591 520 591
s519 -234 519 -593v-242c0 -358 -191 -587 -520 -587s-519 229 -519 587z" />
    <glyph glyph-name="odotaccent" unicode="&#x22f;" horiz-adv-x="1085" 
d="M471 1318c0 41 32 72 70 72c41 0 73 -31 73 -72c0 -40 -32 -70 -73 -70c-38 0 -70 30 -70 70zM542 1052c246 0 423 -170 423 -464v-145c0 -296 -175 -461 -423 -461c-249 0 -422 165 -422 461v145c0 295 171 464 422 464zM542 979c-205 0 -341 -147 -341 -402v-123
c0 -254 134 -398 342 -398c204 0 340 142 340 398v123c0 253 -136 402 -341 402z" />
    <glyph glyph-name="Odotaccentmacron" unicode="&#x230;" horiz-adv-x="1309" 
d="M583 1643c0 41 32 72 70 72c41 0 73 -31 73 -72c0 -40 -32 -70 -73 -70c-38 0 -70 30 -70 70zM216 806v-256c0 -307 167 -506 438 -506c272 0 439 199 439 506v256c0 307 -169 510 -439 510c-269 0 -438 -203 -438 -510zM135 556v244c0 358 191 591 520 591
s519 -234 519 -593v-242c0 -358 -191 -587 -520 -587s-519 229 -519 587zM923 1809h-538v56h538v-56z" />
    <glyph glyph-name="odotaccentmacron" unicode="&#x231;" horiz-adv-x="1085" 
d="M471 1318c0 41 32 72 70 72c41 0 73 -31 73 -72c0 -40 -32 -70 -73 -70c-38 0 -70 30 -70 70zM813 1524h-554v58h554v-58zM542 1052c246 0 423 -170 423 -464v-145c0 -296 -175 -461 -423 -461c-249 0 -422 165 -422 461v145c0 295 171 464 422 464zM542 979
c-205 0 -341 -147 -341 -402v-123c0 -254 134 -398 342 -398c204 0 340 142 340 398v123c0 253 -136 402 -341 402z" />
    <glyph glyph-name="Ymacron" unicode="&#x232;" horiz-adv-x="1060" 
d="M571 0h-81v607l-470 753h96l411 -668h6l413 668h94l-469 -751v-609zM799 1528h-538v56h538v-56z" />
    <glyph glyph-name="ymacron" unicode="&#x233;" horiz-adv-x="921" 
d="M885 1035l-373 -1036l-43 -116c-54 -142 -119 -224 -273 -224c-35 0 -68 4 -94 9v73c22 -5 59 -9 88 -9c112 0 165 63 199 159l34 96l-387 1048h89l337 -951h5l332 951h86zM731 1246h-554v58h554v-58z" />
    <glyph glyph-name="circumflex" unicode="&#x2c6;" horiz-adv-x="805" 
d="M151 1219l231 325h64l224 -325h-75l-180 270h-4l-186 -270h-74z" />
    <glyph glyph-name="caron" unicode="&#x2c7;" horiz-adv-x="805" 
d="M135 1566h73l186 -270h5l180 270h75l-224 -325h-64z" />
    <glyph glyph-name="breve" unicode="&#x2d8;" horiz-adv-x="805" 
d="M137 1488h68c0 -104 72 -181 201 -181c128 0 194 77 194 181h67c0 -118 -82 -242 -261 -242c-180 0 -269 121 -269 242z" />
    <glyph glyph-name="dotaccent" unicode="&#x2d9;" horiz-adv-x="805" 
d="M337 1380c0 43 34 77 75 77c42 0 77 -34 77 -77c0 -42 -35 -75 -77 -75c-41 0 -75 33 -75 75z" />
    <glyph glyph-name="ring" unicode="&#x2da;" horiz-adv-x="805" 
d="M411 1219c-97 0 -174 76 -174 172s77 170 174 170c94 0 171 -74 171 -170s-77 -172 -171 -172zM293 1391c0 -64 54 -118 118 -118c65 0 118 54 118 118c0 66 -53 118 -118 118c-64 0 -118 -52 -118 -118z" />
    <glyph glyph-name="ogonek" unicode="&#x2db;" horiz-adv-x="805" 
d="M524 -278v-64c-12 -6 -45 -17 -94 -17c-92 0 -173 51 -173 161c0 111 89 186 152 243l69 -16c-71 -51 -145 -123 -145 -212c0 -69 42 -107 111 -107c23 0 57 4 80 12z" />
    <glyph glyph-name="tilde" unicode="&#x2dc;" horiz-adv-x="805" 
d="M362 1320c-36 45 -71 83 -120 83c-63 0 -99 -51 -99 -147h-65c0 133 59 210 166 210c67 0 108 -30 162 -98c39 -48 67 -68 116 -68c62 0 110 63 111 155h64c0 -122 -73 -216 -173 -216c-82 0 -121 31 -162 81z" />
    <glyph glyph-name="hungarumlaut" unicode="&#x2dd;" horiz-adv-x="805" 
d="M194 1209h-61l237 302h84zM412 1209h-61l236 302h85z" />
    <glyph glyph-name="gravecmb" unicode="&#x300;" 
d="M96 1211h-64l-255 293h90z" />
    <glyph glyph-name="acutecmb" unicode="&#x301;" 
d="M11 1211h-65l230 293h90z" />
    <glyph glyph-name="circumflexcmb" unicode="&#x302;" 
d="M-260 1232l231 325h64l224 -325h-75l-180 270h-4l-186 -270h-74z" />
    <glyph glyph-name="tildecmb" unicode="&#x303;" 
d="M-36 1281c-36 45 -71 83 -120 83c-63 0 -99 -51 -99 -147h-65c0 133 59 210 166 210c67 0 108 -30 162 -98c39 -48 67 -68 116 -68c62 0 110 63 111 155h64c0 -122 -73 -216 -173 -216c-82 0 -121 31 -162 81z" />
    <glyph glyph-name="macroncmb" unicode="&#x304;" 
d="M271 1246h-554v58h554v-58z" />
    <glyph glyph-name="brevecmb" unicode="&#x306;" 
d="M-274 1434h68c0 -104 72 -181 201 -181c128 0 194 77 194 181h67c0 -118 -82 -242 -261 -242c-180 0 -269 121 -269 242z" />
    <glyph glyph-name="dotaccentcmb" unicode="&#x307;" 
d="M-71 1318c0 41 32 72 70 72c41 0 73 -31 73 -72c0 -40 -32 -70 -73 -70c-38 0 -70 30 -70 70z" />
    <glyph glyph-name="dieresiscmb" unicode="&#x308;" 
d="M-211 1292c0 38 31 68 67 68c38 0 68 -30 68 -68s-30 -69 -68 -69c-36 0 -67 31 -67 69zM79 1292c0 38 31 68 67 68c39 0 69 -30 69 -68s-30 -69 -69 -69c-36 0 -67 31 -67 69z" />
    <glyph glyph-name="hookabovecmb" unicode="&#x309;" 
d="M-117 1416v62c16 12 56 26 104 26c104 0 177 -60 177 -152c0 -75 -58 -126 -110 -159l-41 49c47 29 82 61 82 109c0 55 -51 89 -110 89c-45 0 -78 -10 -102 -24z" />
    <glyph glyph-name="ringcmb" unicode="&#x30a;" 
d="M-174 1185c-97 0 -174 76 -174 172s77 170 174 170c94 0 171 -74 171 -170s-77 -172 -171 -172zM-292 1357c0 -64 54 -118 118 -118c65 0 118 54 118 118c0 66 -53 118 -118 118c-64 0 -118 -52 -118 -118z" />
    <glyph glyph-name="hungarumlautcmb" unicode="&#x30b;" 
d="M-95 1211h-61l237 302h84zM123 1211h-61l236 302h85z" />
    <glyph glyph-name="caroncmb" unicode="&#x30c;" 
d="M-261 1538h73l186 -270h5l180 270h75l-224 -325h-64z" />
    <glyph glyph-name="dblgravecmb" unicode="&#x30f;" 
d="M-129 1209l-260 302h85l236 -302h-61zM89 1209l-260 302h85l236 -302h-61z" />
    <glyph glyph-name="invertedbrevecmb" unicode="&#x311;" 
d="M-268 1216c0 120 88 242 268 242s262 -125 261 -242h-67c0 103 -66 180 -194 180s-201 -77 -201 -180h-67z" />
    <glyph glyph-name="horncmb" unicode="&#x31b;" 
d="M0 974v76c7 -7 35 -10 45 -10c102 0 158 58 158 152v118h76v-116c0 -152 -94 -228 -224 -228c-15 0 -46 2 -55 8z" />
    <glyph glyph-name="dotbelowcmb" unicode="&#x323;" 
d="M-70 -288c0 41 32 72 70 72c42 0 74 -31 74 -72s-32 -71 -74 -71c-38 0 -70 30 -70 71z" />
    <glyph glyph-name="dieresisbelowcmb" unicode="&#x324;" 
d="M-211 -265c0 38 31 68 67 68c38 0 68 -30 68 -68s-30 -69 -68 -69c-36 0 -67 31 -67 69zM79 -265c0 38 31 68 67 68c39 0 69 -30 69 -68s-30 -69 -69 -69c-36 0 -67 31 -67 69z" />
    <glyph glyph-name="ringbelowcmb" unicode="&#x325;" 
d="M-1 -482c-97 0 -174 76 -174 172s77 170 174 170c94 0 171 -74 171 -170s-77 -172 -171 -172zM-119 -310c0 -64 54 -118 118 -118c65 0 118 54 118 118c0 66 -53 118 -118 118c-64 0 -118 -52 -118 -118z" />
    <glyph glyph-name="commabelowcmb" unicode="&#x326;" 
d="M-62 -481h-60l85 335h89z" />
    <glyph glyph-name="cedillacmb" unicode="&#x327;" 
d="M-95 -198v48l65 152h67l-58 -141c106 0 206 -43 206 -154c0 -119 -114 -170 -224 -171c-53 -1 -102 8 -125 15v63c27 -9 75 -15 121 -15c73 0 151 30 151 104c0 69 -56 99 -153 99h-50z" />
    <glyph glyph-name="ogonekcmb" unicode="&#x328;" 
d="M115 -278v-64c-12 -6 -45 -17 -94 -17c-92 0 -173 51 -173 161c0 111 89 186 152 243l69 -16c-71 -51 -145 -123 -145 -212c0 -69 42 -107 111 -107c23 0 57 4 80 12z" />
    <glyph glyph-name="circumflexbelowcmb" unicode="&#x32d;" 
d="M-261 -421l231 324h64l224 -325h-75l-180 270h-5l-186 -269h-73z" />
    <glyph glyph-name="brevebelowcmb" unicode="&#x32e;" 
d="M-273 -144h70c0 -103 74 -180 203 -180s196 77 196 180h68c0 -118 -81 -242 -264 -242s-273 120 -273 242z" />
    <glyph glyph-name="tildebelowcmb" unicode="&#x330;" 
d="M-24 -303c-37 45 -71 83 -120 83c-63 0 -99 -51 -100 -148h-64c0 134 58 211 166 211c67 0 107 -30 162 -98c39 -48 67 -69 116 -69c62 0 109 64 110 156h65c0 -123 -74 -216 -173 -216c-82 0 -122 30 -162 81z" />
    <glyph glyph-name="macronbelowcmb" unicode="&#x331;" 
d="M270 -279h-554v58h554v-58z" />
    <glyph glyph-name="Delta" unicode="&#x394;" horiz-adv-x="1150" 
d="M44 0l488 1360h86l487 -1360h-1061zM571 1259l-415 -1184h835l-414 1184h-6z" />
    <glyph glyph-name="Omega" unicode="&#x3a9;" horiz-adv-x="1309" 
d="M765 0v118c195 52 328 248 328 502v207c0 307 -170 489 -439 489s-438 -182 -438 -489v-207c0 -253 131 -448 325 -501v-119h-423v73h333v21c-156 52 -316 225 -316 532v195c0 360 198 570 520 570s518 -210 518 -570v-195c0 -307 -163 -480 -319 -532v-22h337v-72h-426z
" />
    <glyph glyph-name="mu" unicode="&#x3bc;" horiz-adv-x="1157" 
d="M235 125h-6l13 -457h-85v1367h81v-693c0 -180 111 -287 281 -287c214 0 333 177 333 354v626h81v-850c0 -91 42 -122 98 -122c23 0 40 4 62 9v-71c-33 -6 -57 -8 -92 -8c-90 0 -147 58 -148 165l-1 44h-5c-33 -97 -138 -220 -339 -220c-110 0 -225 41 -273 143z" />
    <glyph glyph-name="pi" unicode="&#x3c0;" horiz-adv-x="1214" 
d="M1064 1c-27 -3 -52 -5 -86 -5c-109 0 -149 62 -149 146v819h-448v-961h-82v961h-251v74h1111v-74h-249v-806c0 -55 27 -88 86 -88c25 0 50 1 68 4v-70z" />
    <glyph glyph-name="Aringbelow" unicode="&#x1e00;" horiz-adv-x="1150" 
d="M129 0h-85l488 1360h85l488 -1360h-88l-160 458h-567zM576 1259h-5l-258 -731h519zM577 -444c-97 0 -174 76 -174 172s77 170 174 170c94 0 171 -74 171 -170s-77 -172 -171 -172zM459 -272c0 -64 54 -118 118 -118c65 0 118 54 118 118c0 66 -53 118 -118 118
c-64 0 -118 -52 -118 -118z" />
    <glyph glyph-name="aringbelow" unicode="&#x1e01;" horiz-adv-x="1015" 
d="M770 169c-27 -66 -129 -187 -328 -187c-201 0 -338 118 -338 308c0 172 119 289 351 289h317v151c0 173 -109 248 -274 248c-185 0 -259 -99 -269 -181h-80c8 132 122 255 354 255c213 0 351 -104 351 -310v-742h-80v169h-4zM452 55c174 0 320 119 320 295v157h-315
c-185 0 -268 -89 -268 -215c0 -148 111 -237 263 -237zM506 -482c-97 0 -174 76 -174 172s77 170 174 170c94 0 171 -74 171 -170s-77 -172 -171 -172zM388 -310c0 -64 54 -118 118 -118c65 0 118 54 118 118c0 66 -53 118 -118 118c-64 0 -118 -52 -118 -118z" />
    <glyph glyph-name="Bdotaccent" unicode="&#x1e02;" horiz-adv-x="1208" 
d="M190 0v1360h441c244 0 395 -124 395 -333c0 -201 -141 -294 -234 -315v-5c163 -17 310 -122 310 -339c0 -225 -160 -368 -448 -368h-464zM272 1285v-549h338c182 0 332 87 332 280c0 176 -124 269 -324 269h-346zM272 661v-586h361c239 0 385 99 385 292
c0 203 -162 294 -359 294h-387zM522 1643c0 41 32 72 70 72c41 0 73 -31 73 -72c0 -40 -32 -70 -73 -70c-38 0 -70 30 -70 70z" />
    <glyph glyph-name="bdotaccent" unicode="&#x1e03;" horiz-adv-x="1106" 
d="M139 1719c0 41 32 72 70 72c41 0 73 -31 73 -72c0 -40 -32 -70 -73 -70c-38 0 -70 30 -70 70zM590 -18c-212 0 -309 133 -337 217h-4v-199h-79v1435h81v-599h4c21 62 107 216 338 216c233 0 395 -172 395 -441v-185c0 -295 -183 -444 -398 -444zM585 56
c168 0 321 121 321 383v158c0 245 -140 382 -321 382c-215 0 -334 -180 -334 -375v-170c0 -207 124 -378 334 -378z" />
    <glyph glyph-name="Bdotbelow" unicode="&#x1e04;" horiz-adv-x="1208" 
d="M523 -288c0 41 32 72 70 72c42 0 74 -31 74 -72s-32 -71 -74 -71c-38 0 -70 30 -70 71zM190 0v1360h441c244 0 395 -124 395 -333c0 -201 -141 -294 -234 -315v-5c163 -17 310 -122 310 -339c0 -225 -160 -368 -448 -368h-464zM272 1285v-549h338c182 0 332 87 332 280
c0 176 -124 269 -324 269h-346zM272 661v-586h361c239 0 385 99 385 292c0 203 -162 294 -359 294h-387z" />
    <glyph glyph-name="bdotbelow" unicode="&#x1e05;" horiz-adv-x="1106" 
d="M483 -288c0 41 32 72 70 72c42 0 74 -31 74 -72s-32 -71 -74 -71c-38 0 -70 30 -70 71zM590 -18c-212 0 -309 133 -337 217h-4v-199h-79v1435h81v-599h4c21 62 107 216 338 216c233 0 395 -172 395 -441v-185c0 -295 -183 -444 -398 -444zM585 56c168 0 321 121 321 383
v158c0 245 -140 382 -321 382c-215 0 -334 -180 -334 -375v-170c0 -207 124 -378 334 -378z" />
    <glyph glyph-name="Blinebelow" unicode="&#x1e06;" horiz-adv-x="1208" 
d="M190 0v1360h441c244 0 395 -124 395 -333c0 -201 -141 -294 -234 -315v-5c163 -17 310 -122 310 -339c0 -225 -160 -368 -448 -368h-464zM272 1285v-549h338c182 0 332 87 332 280c0 176 -124 269 -324 269h-346zM272 661v-586h361c239 0 385 99 385 292
c0 203 -162 294 -359 294h-387zM863 -279h-554v58h554v-58z" />
    <glyph glyph-name="blinebelow" unicode="&#x1e07;" horiz-adv-x="1106" 
d="M823 -279h-554v58h554v-58zM590 -18c-212 0 -309 133 -337 217h-4v-199h-79v1435h81v-599h4c21 62 107 216 338 216c233 0 395 -172 395 -441v-185c0 -295 -183 -444 -398 -444zM585 56c168 0 321 121 321 383v158c0 245 -140 382 -321 382c-215 0 -334 -180 -334 -375
v-170c0 -207 124 -378 334 -378z" />
    <glyph glyph-name="Ccedillaacute" unicode="&#x1e08;" horiz-adv-x="1245" 
d="M540 1512l299 237h104l-316 -237h-87zM623 -472c-53 -1 -102 9 -124 16v63c26 -9 74 -16 120 -16c73 0 151 30 151 104c0 69 -56 100 -152 100h-51v48l55 127c-341 12 -487 267 -487 593v231c0 334 163 597 510 597c314 0 471 -226 471 -415v-3h-80
c0 153 -136 343 -391 343c-291 0 -428 -229 -428 -513v-248c0 -284 132 -511 433 -511c244 0 395 153 395 337h80v-3c0 -197 -156 -391 -436 -408l-48 -117c106 0 206 -42 206 -154c0 -119 -114 -169 -224 -171z" />
    <glyph glyph-name="ccedillaacute" unicode="&#x1e09;" horiz-adv-x="1019" 
d="M532 1211h-65l230 293h90zM503 -459c-53 -1 -103 8 -125 16v62c26 -9 75 -15 121 -15c72 0 151 30 151 104c0 69 -54 99 -150 99h-51v48l57 128c-236 11 -386 174 -386 460v156c0 286 167 453 407 453c250 0 377 -166 385 -314h-80c-16 117 -116 241 -304 241
c-198 0 -327 -146 -327 -393v-136c0 -250 127 -392 334 -392c197 0 280 115 300 221h79c-11 -127 -111 -278 -340 -295l-51 -118c106 0 204 -43 204 -154c0 -119 -114 -170 -224 -171z" />
    <glyph glyph-name="Ddotaccent" unicode="&#x1e0a;" horiz-adv-x="1294" 
d="M564 1643c0 41 32 72 70 72c41 0 73 -31 73 -72c0 -40 -32 -70 -73 -70c-38 0 -70 30 -70 70zM190 1360h366c433 0 608 -273 608 -680c0 -405 -166 -680 -608 -680h-366v1360zM272 1285v-1210h284c369 0 525 235 525 605c0 366 -157 605 -525 605h-284z" />
    <glyph glyph-name="ddotaccent" unicode="&#x1e0b;" horiz-adv-x="1107" 
d="M825 1719c0 41 32 72 70 72c41 0 73 -31 73 -72c0 -40 -32 -70 -73 -70c-38 0 -70 30 -70 70zM515 1053c212 0 309 -132 336 -214h4v596h80v-1435h-78v202h-4c-17 -64 -112 -220 -340 -220c-234 0 -395 173 -395 441v188c0 287 178 442 397 442zM520 978
c-174 0 -321 -128 -321 -386v-153c0 -241 136 -383 322 -383c215 0 334 177 334 381v158c0 218 -129 383 -335 383z" />
    <glyph glyph-name="Ddotbelow" unicode="&#x1e0c;" horiz-adv-x="1294" 
d="M565 -288c0 41 32 72 70 72c42 0 74 -31 74 -72s-32 -71 -74 -71c-38 0 -70 30 -70 71zM190 1360h366c433 0 608 -273 608 -680c0 -405 -166 -680 -608 -680h-366v1360zM272 1285v-1210h284c369 0 525 235 525 605c0 366 -157 605 -525 605h-284z" />
    <glyph glyph-name="ddotbelow" unicode="&#x1e0d;" horiz-adv-x="1107" 
d="M483 -288c0 41 32 72 70 72c42 0 74 -31 74 -72s-32 -71 -74 -71c-38 0 -70 30 -70 71zM515 1053c212 0 309 -132 336 -214h4v596h80v-1435h-78v202h-4c-17 -64 -112 -220 -340 -220c-234 0 -395 173 -395 441v188c0 287 178 442 397 442zM520 978
c-174 0 -321 -128 -321 -386v-153c0 -241 136 -383 322 -383c215 0 334 177 334 381v158c0 218 -129 383 -335 383z" />
    <glyph glyph-name="Dlinebelow" unicode="&#x1e0e;" horiz-adv-x="1294" 
d="M905 -279h-554v58h554v-58zM190 1360h366c433 0 608 -273 608 -680c0 -405 -166 -680 -608 -680h-366v1360zM272 1285v-1210h284c369 0 525 235 525 605c0 366 -157 605 -525 605h-284z" />
    <glyph glyph-name="dlinebelow" unicode="&#x1e0f;" horiz-adv-x="1107" 
d="M823 -279h-554v58h554v-58zM515 1053c212 0 309 -132 336 -214h4v596h80v-1435h-78v202h-4c-17 -64 -112 -220 -340 -220c-234 0 -395 173 -395 441v188c0 287 178 442 397 442zM520 978c-174 0 -321 -128 -321 -386v-153c0 -241 136 -383 322 -383
c215 0 334 177 334 381v158c0 218 -129 383 -335 383z" />
    <glyph glyph-name="Dcommaaccent" unicode="&#x1e10;" horiz-adv-x="1294" 
d="M573 -481h-60l85 335h89zM190 1360h366c433 0 608 -273 608 -680c0 -405 -166 -680 -608 -680h-366v1360zM272 1285v-1210h284c369 0 525 235 525 605c0 366 -157 605 -525 605h-284z" />
    <glyph glyph-name="dcommaaccent" unicode="&#x1e11;" horiz-adv-x="1107" 
d="M491 -481h-60l85 335h89zM515 1053c212 0 309 -132 336 -214h4v596h80v-1435h-78v202h-4c-17 -64 -112 -220 -340 -220c-234 0 -395 173 -395 441v188c0 287 178 442 397 442zM520 978c-174 0 -321 -128 -321 -386v-153c0 -241 136 -383 322 -383c215 0 334 177 334 381
v158c0 218 -129 383 -335 383z" />
    <glyph glyph-name="Dcircumflexbelow" unicode="&#x1e12;" horiz-adv-x="1294" 
d="M190 1360h366c433 0 608 -273 608 -680c0 -405 -166 -680 -608 -680h-366v1360zM272 1285v-1210h284c369 0 525 235 525 605c0 366 -157 605 -525 605h-284zM374 -421l231 324h64l224 -325h-75l-180 270h-5l-186 -269h-73z" />
    <glyph glyph-name="dcircumflexbelow" unicode="&#x1e13;" horiz-adv-x="1107" 
d="M515 1053c212 0 309 -132 336 -214h4v596h80v-1435h-78v202h-4c-17 -64 -112 -220 -340 -220c-234 0 -395 173 -395 441v188c0 287 178 442 397 442zM520 978c-174 0 -321 -128 -321 -386v-153c0 -241 136 -383 322 -383c215 0 334 177 334 381v158
c0 218 -129 383 -335 383zM292 -421l231 324h64l224 -325h-75l-180 270h-5l-186 -269h-73z" />
    <glyph glyph-name="Emacrongrave" unicode="&#x1e14;" horiz-adv-x="1073" 
d="M675 1710h-88l-316 237h105zM966 75v-75h-776v1360h776v-76h-694v-550h660v-75h-660v-584h694zM845 1528h-538v56h538v-56z" />
    <glyph glyph-name="emacrongrave" unicode="&#x1e15;" horiz-adv-x="1046" 
d="M619 1451h-64l-255 293h90zM536 -18c-264 0 -414 178 -414 475v105c0 315 155 490 402 490c248 0 403 -173 403 -489v-53h-724v-53c0 -250 123 -401 333 -401c194 0 282 115 293 205h83c-12 -117 -122 -279 -376 -279zM203 581h643v4c0 247 -126 394 -322 394
c-195 0 -321 -147 -321 -394v-4zM794 1246h-554v58h554v-58z" />
    <glyph glyph-name="Emacronacute" unicode="&#x1e16;" horiz-adv-x="1073" 
d="M472 1708l299 237h104l-316 -237h-87zM966 75v-75h-776v1360h776v-76h-694v-550h660v-75h-660v-584h694zM845 1528h-538v56h538v-56z" />
    <glyph glyph-name="emacronacute" unicode="&#x1e17;" horiz-adv-x="1046" 
d="M534 1451h-65l230 293h90zM536 -18c-264 0 -414 178 -414 475v105c0 315 155 490 402 490c248 0 403 -173 403 -489v-53h-724v-53c0 -250 123 -401 333 -401c194 0 282 115 293 205h83c-12 -117 -122 -279 -376 -279zM203 581h643v4c0 247 -126 394 -322 394
c-195 0 -321 -147 -321 -394v-4zM794 1246h-554v58h554v-58z" />
    <glyph glyph-name="Ecircumflexbelow" unicode="&#x1e18;" horiz-adv-x="1073" 
d="M966 75v-75h-776v1360h776v-76h-694v-550h660v-75h-660v-584h694zM315 -421l231 324h64l224 -325h-75l-180 270h-5l-186 -269h-73z" />
    <glyph glyph-name="ecircumflexbelow" unicode="&#x1e19;" horiz-adv-x="1046" 
d="M536 -18c-264 0 -414 178 -414 475v105c0 315 155 490 402 490c248 0 403 -173 403 -489v-53h-724v-53c0 -250 123 -401 333 -401c194 0 282 115 293 205h83c-12 -117 -122 -279 -376 -279zM203 581h643v4c0 247 -126 394 -322 394c-195 0 -321 -147 -321 -394v-4z
M271 -421l231 324h64l224 -325h-75l-180 270h-5l-186 -269h-73z" />
    <glyph glyph-name="Etildebelow" unicode="&#x1e1a;" horiz-adv-x="1073" 
d="M552 -303c-37 45 -71 83 -120 83c-63 0 -99 -51 -100 -148h-64c0 134 58 211 166 211c67 0 107 -30 162 -98c39 -48 67 -69 116 -69c62 0 109 64 110 156h65c0 -123 -74 -216 -173 -216c-82 0 -122 30 -162 81zM966 75v-75h-776v1360h776v-76h-694v-550h660v-75h-660
v-584h694z" />
    <glyph glyph-name="etildebelow" unicode="&#x1e1b;" horiz-adv-x="1046" 
d="M508 -303c-37 45 -71 83 -120 83c-63 0 -99 -51 -100 -148h-64c0 134 58 211 166 211c67 0 107 -30 162 -98c39 -48 67 -69 116 -69c62 0 109 64 110 156h65c0 -123 -74 -216 -173 -216c-82 0 -122 30 -162 81zM536 -18c-264 0 -414 178 -414 475v105
c0 315 155 490 402 490c248 0 403 -173 403 -489v-53h-724v-53c0 -250 123 -401 333 -401c194 0 282 115 293 205h83c-12 -117 -122 -279 -376 -279zM203 581h643v4c0 247 -126 394 -322 394c-195 0 -321 -147 -321 -394v-4z" />
    <glyph glyph-name="Ecedillabreve" unicode="&#x1e1c;" horiz-adv-x="1073" 
d="M540 -459c-53 -1 -103 8 -125 15v63c26 -9 75 -16 121 -16c72 0 151 31 151 105c0 69 -56 99 -153 99h-50v48l62 145h-356v1360h776v-76h-694v-550h660v-75h-660v-584h694v-75h-353l-56 -134c106 0 207 -43 207 -154c0 -120 -114 -170 -224 -171zM301 1715h67
c0 -101 79 -166 208 -166s201 65 201 166h68c0 -118 -82 -229 -269 -229s-275 108 -275 229z" />
    <glyph glyph-name="ecedillabreve" unicode="&#x1e1d;" horiz-adv-x="1046" 
d="M249 1434h68c0 -104 72 -181 201 -181c128 0 194 77 194 181h67c0 -118 -82 -242 -261 -242c-180 0 -269 121 -269 242zM203 581h643v4c0 247 -126 394 -322 394c-195 0 -321 -147 -321 -394v-4zM510 -464c-53 -1 -103 8 -125 15v63c26 -9 75 -15 121 -15
c72 0 151 30 151 104c0 69 -56 99 -153 99h-50v48l57 133c-247 11 -389 185 -389 474v105c0 315 155 490 402 490c248 0 403 -173 403 -489v-53h-724v-53c0 -250 123 -401 333 -401c194 0 282 115 293 205h83c-12 -110 -110 -260 -333 -278l-52 -122c106 0 207 -43 207 -154
c0 -119 -114 -170 -224 -171z" />
    <glyph glyph-name="Fdotaccent" unicode="&#x1e1e;" horiz-adv-x="1004" 
d="M445 1643c0 41 32 72 70 72c41 0 73 -31 73 -72c0 -40 -32 -70 -73 -70c-38 0 -70 30 -70 70zM272 0h-82v1360h765v-76h-683v-563h627v-76h-627v-645z" />
    <glyph glyph-name="fdotaccent" unicode="&#x1e1f;" horiz-adv-x="629" 
d="M333 1713c0 41 32 72 70 72c41 0 73 -31 73 -72c0 -40 -32 -70 -73 -70c-38 0 -70 30 -70 70zM219 0v964h-174v71h174v130c0 190 86 265 271 265c50 0 89 -7 103 -10v-69c-20 4 -61 7 -101 7c-130 0 -192 -45 -192 -188v-135h281v-71h-281v-964h-81z" />
    <glyph glyph-name="Gmacron" unicode="&#x1e20;" horiz-adv-x="1263" 
d="M1123 1007h-79c-6 145 -133 309 -392 309c-261 0 -435 -193 -435 -515v-228c0 -308 142 -529 433 -529c239 0 400 129 400 353v186h-407v75h485v-261c0 -251 -177 -428 -477 -428c-353 0 -516 259 -516 604v228c0 358 197 590 518 590c313 0 466 -196 470 -384zM905 1528
h-538v56h538v-56z" />
    <glyph glyph-name="gmacron" unicode="&#x1e21;" horiz-adv-x="1094" 
d="M818 1246h-554v58h554v-58zM526 -287c209 0 326 114 326 280v255h-4c-21 -65 -116 -217 -335 -217c-226 0 -398 167 -398 434v150c0 287 189 437 400 437c213 0 305 -133 335 -213h4v196h78v-1039c0 -219 -154 -357 -408 -357c-260 0 -373 149 -378 277h83
c8 -93 100 -203 297 -203zM522 979c-173 0 -326 -124 -326 -382v-117c0 -240 144 -375 326 -375c213 0 330 180 330 369v126c0 211 -129 379 -330 379z" />
    <glyph glyph-name="Hdotaccent" unicode="&#x1e22;" horiz-adv-x="1334" 
d="M1143 0h-82v676h-789v-676h-82v1360h82v-609h789v609h82v-1360zM596 1643c0 41 32 72 70 72c41 0 73 -31 73 -72c0 -40 -32 -70 -73 -70c-38 0 -70 30 -70 70z" />
    <glyph glyph-name="hdotaccent" unicode="&#x1e23;" horiz-adv-x="1114" 
d="M171 0v1435h80v-592h4c32 99 138 209 332 209c212 0 364 -142 364 -379v-673h-81v661c0 178 -102 316 -291 316c-213 0 -328 -164 -328 -351v-626h-80zM139 1719c0 41 32 72 70 72c41 0 73 -31 73 -72c0 -40 -32 -70 -73 -70c-38 0 -70 30 -70 70z" />
    <glyph glyph-name="Hdotbelow" unicode="&#x1e24;" horiz-adv-x="1334" 
d="M1143 0h-82v676h-789v-676h-82v1360h82v-609h789v609h82v-1360zM597 -288c0 41 32 72 70 72c42 0 74 -31 74 -72s-32 -71 -74 -71c-38 0 -70 30 -70 71z" />
    <glyph glyph-name="hdotbelow" unicode="&#x1e25;" horiz-adv-x="1114" 
d="M171 0v1435h80v-592h4c32 99 138 209 332 209c212 0 364 -142 364 -379v-673h-81v661c0 178 -102 316 -291 316c-213 0 -328 -164 -328 -351v-626h-80zM485 -288c0 41 32 72 70 72c42 0 74 -31 74 -72s-32 -71 -74 -71c-38 0 -70 30 -70 71z" />
    <glyph glyph-name="Hdieresis" unicode="&#x1e26;" horiz-adv-x="1334" 
d="M1143 0h-82v676h-789v-676h-82v1360h82v-609h789v609h82v-1360zM472 1571c0 31 25 58 58 58c34 0 58 -27 58 -58c0 -29 -24 -59 -58 -59c-33 0 -58 30 -58 59zM761 1571c0 31 25 58 58 58s57 -27 57 -58c0 -29 -24 -59 -57 -59s-58 30 -58 59z" />
    <glyph glyph-name="hdieresis" unicode="&#x1e27;" horiz-adv-x="1114" 
d="M171 0v1435h80v-592h4c32 99 138 209 332 209c212 0 364 -142 364 -379v-673h-81v661c0 178 -102 316 -291 316c-213 0 -328 -164 -328 -351v-626h-80zM-1 1693c0 38 31 68 67 68c38 0 68 -30 68 -68s-30 -69 -68 -69c-36 0 -67 31 -67 69zM289 1693c0 38 31 68 67 68
c39 0 69 -30 69 -68s-30 -69 -69 -69c-36 0 -67 31 -67 69z" />
    <glyph glyph-name="Hcedilla" unicode="&#x1e28;" horiz-adv-x="1334" 
d="M199 -459c-53 -1 -102 8 -124 15v63c26 -9 74 -16 120 -16c73 0 151 31 151 105c0 69 -56 99 -152 99h-51v48l63 145h-16v1360h82v-609h789v609h82v-1360h-82v676h-789v-676l-55 -134c106 0 206 -43 206 -154c0 -120 -114 -170 -224 -171z" />
    <glyph glyph-name="hcedilla" unicode="&#x1e29;" horiz-adv-x="1114" 
d="M176 -464c-53 -1 -103 8 -125 15v63c27 -9 75 -15 121 -15c72 0 151 30 151 104c0 69 -56 99 -153 99h-50v48l64 150h-13v1435h80v-592h4c32 99 138 209 332 209c212 0 364 -142 364 -379v-673h-81v661c0 178 -102 316 -291 316c-213 0 -328 -164 -328 -351v-626
l-58 -139c107 0 207 -43 207 -154c0 -119 -114 -170 -224 -171z" />
    <glyph glyph-name="Hbrevebelow" unicode="&#x1e2a;" horiz-adv-x="1334" 
d="M394 -144c0 -122 90 -242 273 -242s264 124 264 242h-68c0 -103 -67 -180 -196 -180s-203 77 -203 180h-70zM1143 0h-82v676h-789v-676h-82v1360h82v-609h789v609h82v-1360z" />
    <glyph glyph-name="hbrevebelow" unicode="&#x1e2b;" horiz-adv-x="1114" 
d="M282 -144c0 -122 90 -242 273 -242s264 124 264 242h-68c0 -103 -67 -180 -196 -180s-203 77 -203 180h-70zM171 0v1435h80v-592h4c32 99 138 209 332 209c212 0 364 -142 364 -379v-673h-81v661c0 178 -102 316 -291 316c-213 0 -328 -164 -328 -351v-626h-80z" />
    <glyph glyph-name="Itildebelow" unicode="&#x1e2c;" horiz-adv-x="493" 
d="M287 0h-81v1360h81v-1360zM222 -303c-37 45 -71 83 -120 83c-63 0 -99 -51 -100 -148h-64c0 134 58 211 166 211c67 0 107 -30 162 -98c39 -48 67 -69 116 -69c62 0 109 64 110 156h65c0 -123 -74 -216 -173 -216c-82 0 -122 30 -162 81z" />
    <glyph glyph-name="itildebelow" unicode="&#x1e2d;" horiz-adv-x="458" 
d="M189 0v1035h80v-1035h-80zM158 1322c0 41 31 72 70 72c41 0 73 -31 73 -72c0 -40 -32 -71 -73 -71c-39 0 -70 31 -70 71zM205 -303c-37 45 -71 83 -120 83c-63 0 -99 -51 -100 -148h-64c0 134 58 211 166 211c67 0 107 -30 162 -98c39 -48 67 -69 116 -69
c62 0 109 64 110 156h65c0 -123 -74 -216 -173 -216c-82 0 -122 30 -162 81z" />
    <glyph glyph-name="Idieresisacute" unicode="&#x1e2e;" horiz-adv-x="493" 
d="M287 0h-81v1360h81v-1360zM142 1708l299 237h104l-316 -237h-87zM52 1571c0 31 25 58 58 58c34 0 58 -27 58 -58c0 -29 -24 -59 -58 -59c-33 0 -58 30 -58 59zM341 1571c0 31 25 58 58 58s57 -27 57 -58c0 -29 -24 -59 -57 -59s-58 30 -58 59z" />
    <glyph glyph-name="idieresisacute" unicode="&#x1e2f;" horiz-adv-x="425" 
d="M223 1451h-65l230 293h90zM172 0v1035h80v-1035h-80zM1 1292c0 38 31 68 67 68c38 0 68 -30 68 -68s-30 -69 -68 -69c-36 0 -67 31 -67 69zM291 1292c0 38 31 68 67 68c39 0 69 -30 69 -68s-30 -69 -69 -69c-36 0 -67 31 -67 69z" />
    <glyph glyph-name="Kacute" unicode="&#x1e30;" horiz-adv-x="1109" 
d="M445 1512l299 237h104l-316 -237h-87zM1060 1360l-558 -604l590 -756h-106l-544 700l-170 -179v-521h-82v1360h82v-730h3l681 730h104z" />
    <glyph glyph-name="kacute" unicode="&#x1e31;" horiz-adv-x="994" 
d="M251 423v-423h-80v1435h80v-915h5l554 529h102l-457 -442l475 -607h-101l-434 554zM221 1612h-65l230 293h90z" />
    <glyph glyph-name="Kdotbelow" unicode="&#x1e32;" horiz-adv-x="1109" 
d="M485 -288c0 41 32 72 70 72c42 0 74 -31 74 -72s-32 -71 -74 -71c-38 0 -70 30 -70 71zM1060 1360l-558 -604l590 -756h-106l-544 700l-170 -179v-521h-82v1360h82v-730h3l681 730h104z" />
    <glyph glyph-name="kdotbelow" unicode="&#x1e33;" horiz-adv-x="994" 
d="M433 -288c0 41 32 72 70 72c42 0 74 -31 74 -72s-32 -71 -74 -71c-38 0 -70 30 -70 71zM251 423v-423h-80v1435h80v-915h5l554 529h102l-457 -442l475 -607h-101l-434 554z" />
    <glyph glyph-name="Klinebelow" unicode="&#x1e34;" horiz-adv-x="1109" 
d="M1060 1360l-558 -604l590 -756h-106l-544 700l-170 -179v-521h-82v1360h82v-730h3l681 730h104zM825 -279h-554v58h554v-58z" />
    <glyph glyph-name="klinebelow" unicode="&#x1e35;" horiz-adv-x="994" 
d="M251 423v-423h-80v1435h80v-915h5l554 529h102l-457 -442l475 -607h-101l-434 554zM773 -279h-554v58h554v-58z" />
    <glyph glyph-name="Ldotbelow" unicode="&#x1e36;" horiz-adv-x="1013" 
d="M453 -288c0 41 32 72 70 72c42 0 74 -31 74 -72s-32 -71 -74 -71c-38 0 -70 30 -70 71zM955 75v-75h-765v1360h82v-1285h683z" />
    <glyph glyph-name="ldotbelow" unicode="&#x1e37;" horiz-adv-x="447" 
d="M154 -288c0 41 32 72 70 72c42 0 74 -31 74 -72s-32 -71 -74 -71c-38 0 -70 30 -70 71zM183 0v1435h81v-1435h-81z" />
    <glyph glyph-name="Ldotbelowmacron" unicode="&#x1e38;" horiz-adv-x="1013" 
d="M453 -288c0 41 32 72 70 72c42 0 74 -31 74 -72s-32 -71 -74 -71c-38 0 -70 30 -70 71zM955 75v-75h-765v1360h82v-1285h683zM500 1528h-538v56h538v-56z" />
    <glyph glyph-name="ldotbelowmacron" unicode="&#x1e39;" horiz-adv-x="447" 
d="M154 -288c0 41 32 72 70 72c42 0 74 -31 74 -72s-32 -71 -74 -71c-38 0 -70 30 -70 71zM183 0v1435h81v-1435h-81zM495 1647h-554v58h554v-58z" />
    <glyph glyph-name="Llinebelow" unicode="&#x1e3a;" horiz-adv-x="1013" 
d="M793 -279h-554v58h554v-58zM955 75v-75h-765v1360h82v-1285h683z" />
    <glyph glyph-name="llinebelow" unicode="&#x1e3b;" horiz-adv-x="447" 
d="M494 -279h-554v58h554v-58zM183 0v1435h81v-1435h-81z" />
    <glyph glyph-name="Lcircumflexbelow" unicode="&#x1e3c;" horiz-adv-x="1013" 
d="M955 75v-75h-765v1360h82v-1285h683zM262 -421l231 324h64l224 -325h-75l-180 270h-5l-186 -269h-73z" />
    <glyph glyph-name="lcircumflexbelow" unicode="&#x1e3d;" horiz-adv-x="447" 
d="M183 0v1435h81v-1435h-81zM-37 -421l231 324h64l224 -325h-75l-180 270h-5l-186 -269h-73z" />
    <glyph glyph-name="Macute" unicode="&#x1e3e;" horiz-adv-x="1575" 
d="M683 1512l299 237h104l-316 -237h-87zM267 0h-75v1360h81l512 -1160h4l514 1160h80v-1360h-75v1177h-4l-478 -1072h-77l-478 1072h-4v-1177z" />
    <glyph glyph-name="macute" unicode="&#x1e3f;" horiz-adv-x="1665" 
d="M843 1211h-65l230 293h90zM167 0v1035h80v-170h5c24 76 108 187 286 187c180 0 279 -100 308 -211h5c21 79 117 211 315 211c195 0 335 -119 335 -344v-708h-80v689c0 190 -108 288 -264 288c-186 0 -283 -146 -283 -301v-676h-80v682c0 190 -102 295 -265 295
c-182 0 -282 -140 -282 -316v-661h-80z" />
    <glyph glyph-name="Mdotaccent" unicode="&#x1e40;" horiz-adv-x="1575" 
d="M716 1643c0 41 32 72 70 72c41 0 73 -31 73 -72c0 -40 -32 -70 -73 -70c-38 0 -70 30 -70 70zM267 0h-75v1360h81l512 -1160h4l514 1160h80v-1360h-75v1177h-4l-478 -1072h-77l-478 1072h-4v-1177z" />
    <glyph glyph-name="mdotaccent" unicode="&#x1e41;" horiz-adv-x="1665" 
d="M761 1318c0 41 32 72 70 72c41 0 73 -31 73 -72c0 -40 -32 -70 -73 -70c-38 0 -70 30 -70 70zM167 0v1035h80v-170h5c24 76 108 187 286 187c180 0 279 -100 308 -211h5c21 79 117 211 315 211c195 0 335 -119 335 -344v-708h-80v689c0 190 -108 288 -264 288
c-186 0 -283 -146 -283 -301v-676h-80v682c0 190 -102 295 -265 295c-182 0 -282 -140 -282 -316v-661h-80z" />
    <glyph glyph-name="Mdotbelow" unicode="&#x1e42;" horiz-adv-x="1575" 
d="M717 -288c0 41 32 72 70 72c42 0 74 -31 74 -72s-32 -71 -74 -71c-38 0 -70 30 -70 71zM267 0h-75v1360h81l512 -1160h4l514 1160h80v-1360h-75v1177h-4l-478 -1072h-77l-478 1072h-4v-1177z" />
    <glyph glyph-name="mdotbelow" unicode="&#x1e43;" horiz-adv-x="1665" 
d="M762 -288c0 41 32 72 70 72c42 0 74 -31 74 -72s-32 -71 -74 -71c-38 0 -70 30 -70 71zM167 0v1035h80v-170h5c24 76 108 187 286 187c180 0 279 -100 308 -211h5c21 79 117 211 315 211c195 0 335 -119 335 -344v-708h-80v689c0 190 -108 288 -264 288
c-186 0 -283 -146 -283 -301v-676h-80v682c0 190 -102 295 -265 295c-182 0 -282 -140 -282 -316v-661h-80z" />
    <glyph glyph-name="Ndotaccent" unicode="&#x1e44;" horiz-adv-x="1334" 
d="M596 1643c0 41 32 72 70 72c41 0 73 -31 73 -72c0 -40 -32 -70 -73 -70c-38 0 -70 30 -70 70zM272 0h-82v1360h85l782 -1216h4v1216h82v-1360h-84l-783 1216h-4v-1216z" />
    <glyph glyph-name="ndotaccent" unicode="&#x1e45;" horiz-adv-x="1101" 
d="M479 1318c0 41 32 72 70 72c41 0 73 -31 73 -72c0 -40 -32 -70 -73 -70c-38 0 -70 30 -70 70zM167 0v1035h80v-192h4c35 102 143 209 333 209c205 0 359 -131 359 -368v-684h-81v664c0 183 -101 313 -289 313c-214 0 -326 -163 -326 -350v-627h-80z" />
    <glyph glyph-name="Ndotbelow" unicode="&#x1e46;" horiz-adv-x="1334" 
d="M597 -288c0 41 32 72 70 72c42 0 74 -31 74 -72s-32 -71 -74 -71c-38 0 -70 30 -70 71zM272 0h-82v1360h85l782 -1216h4v1216h82v-1360h-84l-783 1216h-4v-1216z" />
    <glyph glyph-name="ndotbelow" unicode="&#x1e47;" horiz-adv-x="1101" 
d="M480 -288c0 41 32 72 70 72c42 0 74 -31 74 -72s-32 -71 -74 -71c-38 0 -70 30 -70 71zM167 0v1035h80v-192h4c35 102 143 209 333 209c205 0 359 -131 359 -368v-684h-81v664c0 183 -101 313 -289 313c-214 0 -326 -163 -326 -350v-627h-80z" />
    <glyph glyph-name="Nlinebelow" unicode="&#x1e48;" horiz-adv-x="1334" 
d="M937 -279h-554v58h554v-58zM272 0h-82v1360h85l782 -1216h4v1216h82v-1360h-84l-783 1216h-4v-1216z" />
    <glyph glyph-name="nlinebelow" unicode="&#x1e49;" horiz-adv-x="1101" 
d="M820 -279h-554v58h554v-58zM167 0v1035h80v-192h4c35 102 143 209 333 209c205 0 359 -131 359 -368v-684h-81v664c0 183 -101 313 -289 313c-214 0 -326 -163 -326 -350v-627h-80z" />
    <glyph glyph-name="Ncircumflexbelow" unicode="&#x1e4a;" horiz-adv-x="1334" 
d="M272 0h-82v1360h85l782 -1216h4v1216h82v-1360h-84l-783 1216h-4v-1216zM406 -421l231 324h64l224 -325h-75l-180 270h-5l-186 -269h-73z" />
    <glyph glyph-name="ncircumflexbelow" unicode="&#x1e4b;" horiz-adv-x="1101" 
d="M167 0v1035h80v-192h4c35 102 143 209 333 209c205 0 359 -131 359 -368v-684h-81v664c0 183 -101 313 -289 313c-214 0 -326 -163 -326 -350v-627h-80zM289 -421l231 324h64l224 -325h-75l-180 270h-5l-186 -269h-73z" />
    <glyph glyph-name="Otildeacute" unicode="&#x1e4c;" horiz-adv-x="1309" 
d="M550 1708l299 237h104l-316 -237h-87zM216 806v-256c0 -307 167 -506 438 -506c272 0 439 199 439 506v256c0 307 -169 510 -439 510c-269 0 -438 -203 -438 -510zM135 556v244c0 358 191 591 520 591s519 -234 519 -593v-242c0 -358 -191 -587 -520 -587
s-519 229 -519 587zM621 1563c-31 41 -60 73 -104 73c-57 0 -88 -44 -88 -129h-58c0 115 52 185 148 185c60 0 96 -28 145 -86c34 -43 56 -62 100 -62c56 0 98 56 99 137h58c0 -108 -65 -190 -155 -190c-72 0 -105 28 -145 72z" />
    <glyph glyph-name="otildeacute" unicode="&#x1e4d;" horiz-adv-x="1085" 
d="M553 1451h-65l230 293h90zM506 1281c-36 45 -71 83 -120 83c-63 0 -99 -51 -99 -147h-65c0 133 59 210 166 210c67 0 108 -30 162 -98c39 -48 67 -68 116 -68c62 0 110 63 111 155h64c0 -122 -73 -216 -173 -216c-82 0 -121 31 -162 81zM542 1052
c246 0 423 -170 423 -464v-145c0 -296 -175 -461 -423 -461c-249 0 -422 165 -422 461v145c0 295 171 464 422 464zM542 979c-205 0 -341 -147 -341 -402v-123c0 -254 134 -398 342 -398c204 0 340 142 340 398v123c0 253 -136 402 -341 402z" />
    <glyph glyph-name="Otildedieresis" unicode="&#x1e4e;" horiz-adv-x="1309" 
d="M453 1827c0 31 25 58 58 58c34 0 58 -27 58 -58c0 -29 -24 -59 -58 -59c-33 0 -58 30 -58 59zM742 1827c0 31 25 58 58 58s57 -27 57 -58c0 -29 -24 -59 -57 -59s-58 30 -58 59zM216 806v-256c0 -307 167 -506 438 -506c272 0 439 199 439 506v256
c0 307 -169 510 -439 510c-269 0 -438 -203 -438 -510zM135 556v244c0 358 191 591 520 591s519 -234 519 -593v-242c0 -358 -191 -587 -520 -587s-519 229 -519 587zM621 1563c-31 41 -60 73 -104 73c-57 0 -88 -44 -88 -129h-58c0 115 52 185 148 185c60 0 96 -28 145 -86
c34 -43 56 -62 100 -62c56 0 98 56 99 137h58c0 -108 -65 -190 -155 -190c-72 0 -105 28 -145 72z" />
    <glyph glyph-name="otildedieresis" unicode="&#x1e4f;" horiz-adv-x="1085" 
d="M506 1281c-36 45 -71 83 -120 83c-63 0 -99 -51 -99 -147h-65c0 133 59 210 166 210c67 0 108 -30 162 -98c39 -48 67 -68 116 -68c62 0 110 63 111 155h64c0 -122 -73 -216 -173 -216c-82 0 -121 31 -162 81zM331 1566c0 38 31 68 67 68c38 0 68 -30 68 -68
s-30 -69 -68 -69c-36 0 -67 31 -67 69zM621 1566c0 38 31 68 67 68c39 0 69 -30 69 -68s-30 -69 -69 -69c-36 0 -67 31 -67 69zM542 1052c246 0 423 -170 423 -464v-145c0 -296 -175 -461 -423 -461c-249 0 -422 165 -422 461v145c0 295 171 464 422 464zM542 979
c-205 0 -341 -147 -341 -402v-123c0 -254 134 -398 342 -398c204 0 340 142 340 398v123c0 253 -136 402 -341 402z" />
    <glyph glyph-name="Omacrongrave" unicode="&#x1e50;" horiz-adv-x="1309" 
d="M753 1710h-88l-316 237h105zM216 806v-256c0 -307 167 -506 438 -506c272 0 439 199 439 506v256c0 307 -169 510 -439 510c-269 0 -438 -203 -438 -510zM135 556v244c0 358 191 591 520 591s519 -234 519 -593v-242c0 -358 -191 -587 -520 -587s-519 229 -519 587z
M923 1528h-538v56h538v-56z" />
    <glyph glyph-name="omacrongrave" unicode="&#x1e51;" horiz-adv-x="1085" 
d="M638 1451h-64l-255 293h90zM813 1246h-554v58h554v-58zM542 1052c246 0 423 -170 423 -464v-145c0 -296 -175 -461 -423 -461c-249 0 -422 165 -422 461v145c0 295 171 464 422 464zM542 979c-205 0 -341 -147 -341 -402v-123c0 -254 134 -398 342 -398
c204 0 340 142 340 398v123c0 253 -136 402 -341 402z" />
    <glyph glyph-name="Omacronacute" unicode="&#x1e52;" horiz-adv-x="1309" 
d="M550 1708l299 237h104l-316 -237h-87zM216 806v-256c0 -307 167 -506 438 -506c272 0 439 199 439 506v256c0 307 -169 510 -439 510c-269 0 -438 -203 -438 -510zM135 556v244c0 358 191 591 520 591s519 -234 519 -593v-242c0 -358 -191 -587 -520 -587
s-519 229 -519 587zM923 1528h-538v56h538v-56z" />
    <glyph glyph-name="omacronacute" unicode="&#x1e53;" horiz-adv-x="1085" 
d="M553 1451h-65l230 293h90zM813 1246h-554v58h554v-58zM542 1052c246 0 423 -170 423 -464v-145c0 -296 -175 -461 -423 -461c-249 0 -422 165 -422 461v145c0 295 171 464 422 464zM542 979c-205 0 -341 -147 -341 -402v-123c0 -254 134 -398 342 -398
c204 0 340 142 340 398v123c0 253 -136 402 -341 402z" />
    <glyph glyph-name="Pacute" unicode="&#x1e54;" horiz-adv-x="1126" 
d="M451 1512l299 237h104l-316 -237h-87zM190 1360h439c270 0 423 -156 423 -401s-153 -399 -423 -399h-357v-560h-82v1360zM272 1285v-651h327c234 0 369 107 369 325c0 205 -125 326 -342 326h-354z" />
    <glyph glyph-name="pacute" unicode="&#x1e55;" horiz-adv-x="1103" 
d="M588 -18c-212 0 -306 132 -336 213h-4v-531h-81v1371h79v-199h4c21 66 114 216 341 216c226 0 393 -167 393 -439v-190c0 -294 -185 -441 -396 -441zM583 56c166 0 319 120 319 384v159c0 244 -140 380 -321 380c-215 0 -333 -179 -333 -374v-169
c0 -210 128 -380 335 -380zM562 1211h-65l230 293h90z" />
    <glyph glyph-name="Pdotaccent" unicode="&#x1e56;" horiz-adv-x="1126" 
d="M190 1360h439c270 0 423 -156 423 -401s-153 -399 -423 -399h-357v-560h-82v1360zM272 1285v-651h327c234 0 369 107 369 325c0 205 -125 326 -342 326h-354zM484 1643c0 41 32 72 70 72c41 0 73 -31 73 -72c0 -40 -32 -70 -73 -70c-38 0 -70 30 -70 70z" />
    <glyph glyph-name="pdotaccent" unicode="&#x1e57;" horiz-adv-x="1103" 
d="M588 -18c-212 0 -306 132 -336 213h-4v-531h-81v1371h79v-199h4c21 66 114 216 341 216c226 0 393 -167 393 -439v-190c0 -294 -185 -441 -396 -441zM583 56c166 0 319 120 319 384v159c0 244 -140 380 -321 380c-215 0 -333 -179 -333 -374v-169
c0 -210 128 -380 335 -380zM480 1318c0 41 32 72 70 72c41 0 73 -31 73 -72c0 -40 -32 -70 -73 -70c-38 0 -70 30 -70 70z" />
    <glyph glyph-name="Rdotaccent" unicode="&#x1e58;" horiz-adv-x="1187" 
d="M637 1360c259 0 411 -159 411 -382c0 -213 -128 -329 -289 -368l312 -610h-95l-302 594h-402v-594h-82v1360h447zM272 667h351c211 0 342 117 342 308c0 195 -132 311 -340 311h-353v-619zM513 1643c0 41 32 72 70 72c41 0 73 -31 73 -72c0 -40 -32 -70 -73 -70
c-38 0 -70 30 -70 70z" />
    <glyph glyph-name="rdotaccent" unicode="&#x1e59;" horiz-adv-x="667" 
d="M171 0v1035h81v-191h4c21 89 105 207 296 207c42 0 71 -5 85 -7v-78c-12 3 -45 9 -92 9c-163 0 -293 -110 -293 -336v-639h-81zM280 1318c0 41 32 72 70 72c41 0 73 -31 73 -72c0 -40 -32 -70 -73 -70c-38 0 -70 30 -70 70z" />
    <glyph glyph-name="Rdotbelow" unicode="&#x1e5a;" horiz-adv-x="1187" 
d="M514 -288c0 41 32 72 70 72c42 0 74 -31 74 -72s-32 -71 -74 -71c-38 0 -70 30 -70 71zM637 1360c259 0 411 -159 411 -382c0 -213 -128 -329 -289 -368l312 -610h-95l-302 594h-402v-594h-82v1360h447zM272 667h351c211 0 342 117 342 308c0 195 -132 311 -340 311h-353
v-619z" />
    <glyph glyph-name="rdotbelow" unicode="&#x1e5b;" horiz-adv-x="667" 
d="M142 -288c0 41 32 72 70 72c42 0 74 -31 74 -72s-32 -71 -74 -71c-38 0 -70 30 -70 71zM171 0v1035h81v-191h4c21 89 105 207 296 207c42 0 71 -5 85 -7v-78c-12 3 -45 9 -92 9c-163 0 -293 -110 -293 -336v-639h-81z" />
    <glyph glyph-name="Rdotbelowmacron" unicode="&#x1e5c;" horiz-adv-x="1187" 
d="M514 -288c0 41 32 72 70 72c42 0 74 -31 74 -72s-32 -71 -74 -71c-38 0 -70 30 -70 71zM637 1360c259 0 411 -159 411 -382c0 -213 -128 -329 -289 -368l312 -610h-95l-302 594h-402v-594h-82v1360h447zM272 667h351c211 0 342 117 342 308c0 195 -132 311 -340 311h-353
v-619zM853 1528h-538v56h538v-56z" />
    <glyph glyph-name="rdotbelowmacron" unicode="&#x1e5d;" horiz-adv-x="667" 
d="M142 -288c0 41 32 72 70 72c42 0 74 -31 74 -72s-32 -71 -74 -71c-38 0 -70 30 -70 71zM171 0v1035h81v-191h4c21 89 105 207 296 207c42 0 71 -5 85 -7v-78c-12 3 -45 9 -92 9c-163 0 -293 -110 -293 -336v-639h-81zM622 1246h-554v58h554v-58z" />
    <glyph glyph-name="Rlinebelow" unicode="&#x1e5e;" horiz-adv-x="1187" 
d="M637 1360c259 0 411 -159 411 -382c0 -213 -128 -329 -289 -368l312 -610h-95l-302 594h-402v-594h-82v1360h447zM272 667h351c211 0 342 117 342 308c0 195 -132 311 -340 311h-353v-619zM854 -279h-554v58h554v-58z" />
    <glyph glyph-name="rlinebelow" unicode="&#x1e5f;" horiz-adv-x="667" 
d="M171 0v1035h81v-191h4c21 89 105 207 296 207c42 0 71 -5 85 -7v-78c-12 3 -45 9 -92 9c-163 0 -293 -110 -293 -336v-639h-81zM482 -279h-554v58h554v-58z" />
    <glyph glyph-name="Sdotaccent" unicode="&#x1e60;" horiz-adv-x="1141" 
d="M100 345h83c5 -125 105 -301 390 -301c227 0 378 124 378 298c0 168 -111 236 -317 291l-178 48c-187 50 -311 150 -311 345c0 222 176 366 436 366c265 0 427 -150 429 -344h-84c-5 125 -104 269 -346 269c-217 0 -351 -115 -351 -289c0 -152 92 -226 264 -272l172 -47
c235 -64 370 -146 370 -362c0 -236 -197 -378 -471 -378c-345 0 -463 222 -464 376zM499 1643c0 41 32 72 70 72c41 0 73 -31 73 -72c0 -40 -32 -70 -73 -70c-38 0 -70 30 -70 70z" />
    <glyph glyph-name="sdotaccent" unicode="&#x1e61;" horiz-adv-x="956" 
d="M129 772c0 183 151 280 347 280c259 0 350 -160 350 -277h-79c-1 77 -64 206 -272 206c-144 0 -264 -69 -264 -202c0 -128 105 -174 278 -217c192 -47 358 -92 358 -284c0 -200 -175 -296 -379 -296c-269 0 -374 155 -374 284h80c4 -86 77 -212 296 -212
c163 0 295 71 295 216s-149 181 -300 217c-203 50 -336 110 -336 285zM407 1318c0 41 32 72 70 72c41 0 73 -31 73 -72c0 -40 -32 -70 -73 -70c-38 0 -70 30 -70 70z" />
    <glyph glyph-name="Sdotbelow" unicode="&#x1e62;" horiz-adv-x="1141" 
d="M494 -288c0 41 32 72 70 72c42 0 74 -31 74 -72s-32 -71 -74 -71c-38 0 -70 30 -70 71zM100 345h83c5 -125 105 -301 390 -301c227 0 378 124 378 298c0 168 -111 236 -317 291l-178 48c-187 50 -311 150 -311 345c0 222 176 366 436 366c265 0 427 -150 429 -344h-84
c-5 125 -104 269 -346 269c-217 0 -351 -115 -351 -289c0 -152 92 -226 264 -272l172 -47c235 -64 370 -146 370 -362c0 -236 -197 -378 -471 -378c-345 0 -463 222 -464 376z" />
    <glyph glyph-name="sdotbelow" unicode="&#x1e63;" horiz-adv-x="956" 
d="M408 -288c0 41 32 72 70 72c42 0 74 -31 74 -72s-32 -71 -74 -71c-38 0 -70 30 -70 71zM129 772c0 183 151 280 347 280c259 0 350 -160 350 -277h-79c-1 77 -64 206 -272 206c-144 0 -264 -69 -264 -202c0 -128 105 -174 278 -217c192 -47 358 -92 358 -284
c0 -200 -175 -296 -379 -296c-269 0 -374 155 -374 284h80c4 -86 77 -212 296 -212c163 0 295 71 295 216s-149 181 -300 217c-203 50 -336 110 -336 285z" />
    <glyph glyph-name="Sacutedotaccent" unicode="&#x1e64;" horiz-adv-x="1141" 
d="M303 1727c0 39 30 69 67 69c39 0 70 -30 70 -69s-31 -67 -70 -67c-37 0 -67 28 -67 67zM574 1563l299 237h104l-316 -237h-87zM100 345h83c5 -125 105 -301 390 -301c227 0 378 124 378 298c0 168 -111 236 -317 291l-178 48c-187 50 -311 150 -311 345
c0 222 176 366 436 366c265 0 427 -150 429 -344h-84c-5 125 -104 269 -346 269c-217 0 -351 -115 -351 -289c0 -152 92 -226 264 -272l172 -47c235 -64 370 -146 370 -362c0 -236 -197 -378 -471 -378c-345 0 -463 222 -464 376z" />
    <glyph glyph-name="sacutedotaccent" unicode="&#x1e65;" horiz-adv-x="956" 
d="M251 1447c0 40 30 69 67 69c40 0 70 -29 70 -69c0 -39 -30 -67 -70 -67c-37 0 -67 28 -67 67zM129 772c0 183 151 280 347 280c259 0 350 -160 350 -277h-79c-1 77 -64 206 -272 206c-144 0 -264 -69 -264 -202c0 -128 105 -174 278 -217c192 -47 358 -92 358 -284
c0 -200 -175 -296 -379 -296c-269 0 -374 155 -374 284h80c4 -86 77 -212 296 -212c163 0 295 71 295 216s-149 181 -300 217c-203 50 -336 110 -336 285zM511 1211h-65l230 293h90z" />
    <glyph glyph-name="Scarondotaccent" unicode="&#x1e66;" horiz-adv-x="1141" 
d="M503 1815c0 39 30 68 65 68c39 0 69 -29 69 -68c0 -38 -30 -66 -69 -66c-35 0 -65 28 -65 66zM100 345h83c5 -125 105 -301 390 -301c227 0 378 124 378 298c0 168 -111 236 -317 291l-178 48c-187 50 -311 150 -311 345c0 222 176 366 436 366c265 0 427 -150 429 -344
h-84c-5 125 -104 269 -346 269c-217 0 -351 -115 -351 -289c0 -152 92 -226 264 -272l172 -47c235 -64 370 -146 370 -362c0 -236 -197 -378 -471 -378c-345 0 -463 222 -464 376zM277 1694h86l209 -164h5l208 164h84l-260 -207h-66z" />
    <glyph glyph-name="scarondotaccent" unicode="&#x1e67;" horiz-adv-x="956" 
d="M420 1671c0 40 31 70 68 70c40 0 70 -30 70 -70c0 -39 -30 -68 -70 -68c-37 0 -68 29 -68 68zM230 1538h73l186 -270h5l180 270h75l-224 -325h-64zM129 772c0 183 151 280 347 280c259 0 350 -160 350 -277h-79c-1 77 -64 206 -272 206c-144 0 -264 -69 -264 -202
c0 -128 105 -174 278 -217c192 -47 358 -92 358 -284c0 -200 -175 -296 -379 -296c-269 0 -374 155 -374 284h80c4 -86 77 -212 296 -212c163 0 295 71 295 216s-149 181 -300 217c-203 50 -336 110 -336 285z" />
    <glyph glyph-name="Sdotbelowdotaccent" unicode="&#x1e68;" horiz-adv-x="1141" 
d="M494 -288c0 41 32 72 70 72c42 0 74 -31 74 -72s-32 -71 -74 -71c-38 0 -70 30 -70 71zM100 345h83c5 -125 105 -301 390 -301c227 0 378 124 378 298c0 168 -111 236 -317 291l-178 48c-187 50 -311 150 -311 345c0 222 176 366 436 366c265 0 427 -150 429 -344h-84
c-5 125 -104 269 -346 269c-217 0 -351 -115 -351 -289c0 -152 92 -226 264 -272l172 -47c235 -64 370 -146 370 -362c0 -236 -197 -378 -471 -378c-345 0 -463 222 -464 376zM499 1643c0 41 32 72 70 72c41 0 73 -31 73 -72c0 -40 -32 -70 -73 -70c-38 0 -70 30 -70 70z
" />
    <glyph glyph-name="sdotbelowdotaccent" unicode="&#x1e69;" horiz-adv-x="956" 
d="M408 -288c0 41 32 72 70 72c42 0 74 -31 74 -72s-32 -71 -74 -71c-38 0 -70 30 -70 71zM129 772c0 183 151 280 347 280c259 0 350 -160 350 -277h-79c-1 77 -64 206 -272 206c-144 0 -264 -69 -264 -202c0 -128 105 -174 278 -217c192 -47 358 -92 358 -284
c0 -200 -175 -296 -379 -296c-269 0 -374 155 -374 284h80c4 -86 77 -212 296 -212c163 0 295 71 295 216s-149 181 -300 217c-203 50 -336 110 -336 285zM407 1318c0 41 32 72 70 72c41 0 73 -31 73 -72c0 -40 -32 -70 -73 -70c-38 0 -70 30 -70 70z" />
    <glyph glyph-name="Tdotaccent" unicode="&#x1e6a;" horiz-adv-x="1025" 
d="M441 1643c0 41 32 72 70 72c41 0 73 -31 73 -72c0 -40 -32 -70 -73 -70c-38 0 -70 30 -70 70zM554 0h-81v1285h-459v75h997v-75h-457v-1285z" />
    <glyph glyph-name="tdotaccent" unicode="&#x1e6b;" horiz-adv-x="664" 
d="M194 1567c0 41 32 72 70 72c41 0 73 -31 73 -72c0 -40 -32 -70 -73 -70c-38 0 -70 30 -70 70zM223 1035v252h81v-252h277v-71h-277v-733c0 -126 58 -164 192 -164c31 0 80 3 98 6v-68c-18 -3 -64 -7 -105 -7c-202 0 -266 63 -266 247v719h-194v71h194z" />
    <glyph glyph-name="Tdotbelow" unicode="&#x1e6c;" horiz-adv-x="1025" 
d="M442 -288c0 41 32 72 70 72c42 0 74 -31 74 -72s-32 -71 -74 -71c-38 0 -70 30 -70 71zM554 0h-81v1285h-459v75h997v-75h-457v-1285z" />
    <glyph glyph-name="tdotbelow" unicode="&#x1e6d;" horiz-adv-x="664" 
d="M324 -288c0 41 32 72 70 72c42 0 74 -31 74 -72s-32 -71 -74 -71c-38 0 -70 30 -70 71zM223 1035v252h81v-252h277v-71h-277v-733c0 -126 58 -164 192 -164c31 0 80 3 98 6v-68c-18 -3 -64 -7 -105 -7c-202 0 -266 63 -266 247v719h-194v71h194z" />
    <glyph glyph-name="Tlinebelow" unicode="&#x1e6e;" horiz-adv-x="1025" 
d="M782 -279h-554v58h554v-58zM554 0h-81v1285h-459v75h997v-75h-457v-1285z" />
    <glyph glyph-name="tlinebelow" unicode="&#x1e6f;" horiz-adv-x="664" 
d="M664 -279h-554v58h554v-58zM223 1035v252h81v-252h277v-71h-277v-733c0 -126 58 -164 192 -164c31 0 80 3 98 6v-68c-18 -3 -64 -7 -105 -7c-202 0 -266 63 -266 247v719h-194v71h194z" />
    <glyph glyph-name="Tcircumflexbelow" unicode="&#x1e70;" horiz-adv-x="1025" 
d="M554 0h-81v1285h-459v75h997v-75h-457v-1285zM251 -421l231 324h64l224 -325h-75l-180 270h-5l-186 -269h-73z" />
    <glyph glyph-name="tcircumflexbelow" unicode="&#x1e71;" horiz-adv-x="664" 
d="M223 1035v252h81v-252h277v-71h-277v-733c0 -126 58 -164 192 -164c31 0 80 3 98 6v-68c-18 -3 -64 -7 -105 -7c-202 0 -266 63 -266 247v719h-194v71h194zM133 -421l231 324h64l224 -325h-75l-180 270h-5l-186 -269h-73z" />
    <glyph glyph-name="Udieresisbelow" unicode="&#x1e72;" horiz-adv-x="1310" 
d="M250 1360v-891c0 -257 145 -423 405 -423c261 0 404 165 404 423v891h83v-891c0 -302 -181 -500 -487 -500s-487 199 -487 501v890h82zM444 -265c0 38 31 68 67 68c38 0 68 -30 68 -68s-30 -69 -68 -69c-36 0 -67 31 -67 69zM734 -265c0 38 31 68 67 68
c39 0 69 -30 69 -68s-30 -69 -69 -69c-36 0 -67 31 -67 69z" />
    <glyph glyph-name="udieresisbelow" unicode="&#x1e73;" horiz-adv-x="1100" 
d="M933 1035v-1035h-81v192h-4c-35 -96 -140 -210 -336 -210c-199 0 -355 115 -355 353v700h81v-685c0 -184 113 -293 286 -293c213 0 328 172 328 357v621h81zM339 -265c0 38 31 68 67 68c38 0 68 -30 68 -68s-30 -69 -68 -69c-36 0 -67 31 -67 69zM629 -265
c0 38 31 68 67 68c39 0 69 -30 69 -68s-30 -69 -69 -69c-36 0 -67 31 -67 69z" />
    <glyph glyph-name="Utildebelow" unicode="&#x1e74;" horiz-adv-x="1310" 
d="M631 -303c-37 45 -71 83 -120 83c-63 0 -99 -51 -100 -148h-64c0 134 58 211 166 211c67 0 107 -30 162 -98c39 -48 67 -69 116 -69c62 0 109 64 110 156h65c0 -123 -74 -216 -173 -216c-82 0 -122 30 -162 81zM250 1360v-891c0 -257 145 -423 405 -423
c261 0 404 165 404 423v891h83v-891c0 -302 -181 -500 -487 -500s-487 199 -487 501v890h82z" />
    <glyph glyph-name="utildebelow" unicode="&#x1e75;" horiz-adv-x="1100" 
d="M526 -303c-37 45 -71 83 -120 83c-63 0 -99 -51 -100 -148h-64c0 134 58 211 166 211c67 0 107 -30 162 -98c39 -48 67 -69 116 -69c62 0 109 64 110 156h65c0 -123 -74 -216 -173 -216c-82 0 -122 30 -162 81zM933 1035v-1035h-81v192h-4c-35 -96 -140 -210 -336 -210
c-199 0 -355 115 -355 353v700h81v-685c0 -184 113 -293 286 -293c213 0 328 172 328 357v621h81z" />
    <glyph glyph-name="Ucircumflexbelow" unicode="&#x1e76;" horiz-adv-x="1310" 
d="M250 1360v-891c0 -257 145 -423 405 -423c261 0 404 165 404 423v891h83v-891c0 -302 -181 -500 -487 -500s-487 199 -487 501v890h82zM394 -421l231 324h64l224 -325h-75l-180 270h-5l-186 -269h-73z" />
    <glyph glyph-name="ucircumflexbelow" unicode="&#x1e77;" horiz-adv-x="1100" 
d="M933 1035v-1035h-81v192h-4c-35 -96 -140 -210 -336 -210c-199 0 -355 115 -355 353v700h81v-685c0 -184 113 -293 286 -293c213 0 328 172 328 357v621h81zM289 -421l231 324h64l224 -325h-75l-180 270h-5l-186 -269h-73z" />
    <glyph glyph-name="Utildeacute" unicode="&#x1e78;" horiz-adv-x="1310" 
d="M551 1708l299 237h104l-316 -237h-87zM250 1360v-891c0 -257 145 -423 405 -423c261 0 404 165 404 423v891h83v-891c0 -302 -181 -500 -487 -500s-487 199 -487 501v890h82zM622 1563c-31 41 -60 73 -104 73c-57 0 -88 -44 -88 -129h-58c0 115 52 185 148 185
c60 0 96 -28 145 -86c34 -43 56 -62 100 -62c56 0 98 56 99 137h58c0 -108 -65 -190 -155 -190c-72 0 -105 28 -145 72z" />
    <glyph glyph-name="utildeacute" unicode="&#x1e79;" horiz-adv-x="1100" 
d="M933 1035v-1035h-81v192h-4c-35 -96 -140 -210 -336 -210c-199 0 -355 115 -355 353v700h81v-685c0 -184 113 -293 286 -293c213 0 328 172 328 357v621h81zM561 1451h-65l230 293h90zM514 1281c-36 45 -71 83 -120 83c-63 0 -99 -51 -99 -147h-65c0 133 59 210 166 210
c67 0 108 -30 162 -98c39 -48 67 -68 116 -68c62 0 110 63 111 155h64c0 -122 -73 -216 -173 -216c-82 0 -121 31 -162 81z" />
    <glyph glyph-name="Umacrondieresis" unicode="&#x1e7a;" horiz-adv-x="1310" 
d="M454 1827c0 31 25 58 58 58c34 0 58 -27 58 -58c0 -29 -24 -59 -58 -59c-33 0 -58 30 -58 59zM743 1827c0 31 25 58 58 58s57 -27 57 -58c0 -29 -24 -59 -57 -59s-58 30 -58 59zM250 1360v-891c0 -257 145 -423 405 -423c261 0 404 165 404 423v891h83v-891
c0 -302 -181 -500 -487 -500s-487 199 -487 501v890h82zM924 1528h-538v56h538v-56z" />
    <glyph glyph-name="umacrondieresis" unicode="&#x1e7b;" horiz-adv-x="1100" 
d="M933 1035v-1035h-81v192h-4c-35 -96 -140 -210 -336 -210c-199 0 -355 115 -355 353v700h81v-685c0 -184 113 -293 286 -293c213 0 328 172 328 357v621h81zM821 1246h-554v58h554v-58zM339 1566c0 38 31 68 67 68c38 0 68 -30 68 -68s-30 -69 -68 -69
c-36 0 -67 31 -67 69zM629 1566c0 38 31 68 67 68c39 0 69 -30 69 -68s-30 -69 -69 -69c-36 0 -67 31 -67 69z" />
    <glyph glyph-name="Vtilde" unicode="&#x1e7c;" horiz-adv-x="1163" 
d="M548 1563c-31 41 -60 73 -104 73c-57 0 -88 -44 -88 -129h-58c0 115 52 185 148 185c60 0 96 -28 145 -86c34 -43 56 -62 100 -62c56 0 98 56 99 137h58c0 -108 -65 -190 -155 -190c-72 0 -105 28 -145 72zM622 0h-90l-494 1360h91l448 -1258h4l453 1258h90z" />
    <glyph glyph-name="vtilde" unicode="&#x1e7d;" horiz-adv-x="923" 
d="M425 1281c-36 45 -71 83 -120 83c-63 0 -99 -51 -99 -147h-65c0 133 59 210 166 210c67 0 108 -30 162 -98c39 -48 67 -68 116 -68c62 0 110 63 111 155h64c0 -122 -73 -216 -173 -216c-82 0 -121 31 -162 81zM419 0l-382 1035h90l331 -938h5l336 938h87l-384 -1035h-83z
" />
    <glyph glyph-name="Vdotbelow" unicode="&#x1e7e;" horiz-adv-x="1163" 
d="M511 -288c0 41 32 72 70 72c42 0 74 -31 74 -72s-32 -71 -74 -71c-38 0 -70 30 -70 71zM622 0h-90l-494 1360h91l448 -1258h4l453 1258h90z" />
    <glyph glyph-name="vdotbelow" unicode="&#x1e7f;" horiz-adv-x="923" 
d="M391 -288c0 41 32 72 70 72c42 0 74 -31 74 -72s-32 -71 -74 -71c-38 0 -70 30 -70 71zM419 0l-382 1035h90l331 -938h5l336 938h87l-384 -1035h-83z" />
    <glyph glyph-name="Wgrave" unicode="&#x1e80;" horiz-adv-x="1672" 
d="M935 1514h-88l-316 237h105zM483 0h-87l-361 1360h92l313 -1233h4l348 1233h88l348 -1233h4l313 1233h92l-362 -1360h-86l-351 1226h-5z" />
    <glyph glyph-name="wgrave" unicode="&#x1e81;" horiz-adv-x="1400" 
d="M796 1211h-64l-255 293h90zM1361 1035l-284 -1035h-82l-292 919h-4l-290 -919h-83l-288 1035h91l237 -919h5l289 919h82l290 -919h6l238 919h85z" />
    <glyph glyph-name="Wacute" unicode="&#x1e82;" horiz-adv-x="1672" 
d="M732 1512l299 237h104l-316 -237h-87zM483 0h-87l-361 1360h92l313 -1233h4l348 1233h88l348 -1233h4l313 1233h92l-362 -1360h-86l-351 1226h-5z" />
    <glyph glyph-name="wacute" unicode="&#x1e83;" horiz-adv-x="1400" 
d="M711 1211h-65l230 293h90zM1361 1035l-284 -1035h-82l-292 919h-4l-290 -919h-83l-288 1035h91l237 -919h5l289 919h82l290 -919h6l238 919h85z" />
    <glyph glyph-name="Wdieresis" unicode="&#x1e84;" horiz-adv-x="1672" 
d="M641 1571c0 31 25 58 58 58c34 0 58 -27 58 -58c0 -29 -24 -59 -58 -59c-33 0 -58 30 -58 59zM930 1571c0 31 25 58 58 58s57 -27 57 -58c0 -29 -24 -59 -57 -59s-58 30 -58 59zM483 0h-87l-361 1360h92l313 -1233h4l348 1233h88l348 -1233h4l313 1233h92l-362 -1360h-86
l-351 1226h-5z" />
    <glyph glyph-name="wdieresis" unicode="&#x1e85;" horiz-adv-x="1400" 
d="M489 1292c0 38 31 68 67 68c38 0 68 -30 68 -68s-30 -69 -68 -69c-36 0 -67 31 -67 69zM779 1292c0 38 31 68 67 68c39 0 69 -30 69 -68s-30 -69 -69 -69c-36 0 -67 31 -67 69zM1361 1035l-284 -1035h-82l-292 919h-4l-290 -919h-83l-288 1035h91l237 -919h5l289 919h82
l290 -919h6l238 919h85z" />
    <glyph glyph-name="Wdotaccent" unicode="&#x1e86;" horiz-adv-x="1672" 
d="M765 1643c0 41 32 72 70 72c41 0 73 -31 73 -72c0 -40 -32 -70 -73 -70c-38 0 -70 30 -70 70zM483 0h-87l-361 1360h92l313 -1233h4l348 1233h88l348 -1233h4l313 1233h92l-362 -1360h-86l-351 1226h-5z" />
    <glyph glyph-name="wdotaccent" unicode="&#x1e87;" horiz-adv-x="1400" 
d="M629 1318c0 41 32 72 70 72c41 0 73 -31 73 -72c0 -40 -32 -70 -73 -70c-38 0 -70 30 -70 70zM1361 1035l-284 -1035h-82l-292 919h-4l-290 -919h-83l-288 1035h91l237 -919h5l289 919h82l290 -919h6l238 919h85z" />
    <glyph glyph-name="Wdotbelow" unicode="&#x1e88;" horiz-adv-x="1672" 
d="M766 -288c0 41 32 72 70 72c42 0 74 -31 74 -72s-32 -71 -74 -71c-38 0 -70 30 -70 71zM483 0h-87l-361 1360h92l313 -1233h4l348 1233h88l348 -1233h4l313 1233h92l-362 -1360h-86l-351 1226h-5z" />
    <glyph glyph-name="wdotbelow" unicode="&#x1e89;" horiz-adv-x="1400" 
d="M630 -288c0 41 32 72 70 72c42 0 74 -31 74 -72s-32 -71 -74 -71c-38 0 -70 30 -70 71zM1361 1035l-284 -1035h-82l-292 919h-4l-290 -919h-83l-288 1035h91l237 -919h5l289 919h82l290 -919h6l238 919h85z" />
    <glyph glyph-name="Xdotaccent" unicode="&#x1e8a;" horiz-adv-x="1122" 
d="M1079 1360l-469 -683l464 -677h-99l-414 611h-5l-415 -611h-95l465 680l-465 680h98l417 -613h5l417 613h96zM490 1643c0 41 32 72 70 72c41 0 73 -31 73 -72c0 -40 -32 -70 -73 -70c-38 0 -70 30 -70 70z" />
    <glyph glyph-name="xdotaccent" unicode="&#x1e8b;" horiz-adv-x="967" 
d="M796 0l-312 454h-5l-314 -454h-92l363 520l-356 515h97l304 -445h5l307 445h93l-357 -510l364 -525h-97zM412 1318c0 41 32 72 70 72c41 0 73 -31 73 -72c0 -40 -32 -70 -73 -70c-38 0 -70 30 -70 70z" />
    <glyph glyph-name="Xdieresis" unicode="&#x1e8c;" horiz-adv-x="1122" 
d="M1079 1360l-469 -683l464 -677h-99l-414 611h-5l-415 -611h-95l465 680l-465 680h98l417 -613h5l417 613h96zM367 1571c0 31 25 58 58 58c34 0 58 -27 58 -58c0 -29 -24 -59 -58 -59c-33 0 -58 30 -58 59zM656 1571c0 31 25 58 58 58s57 -27 57 -58
c0 -29 -24 -59 -57 -59s-58 30 -58 59z" />
    <glyph glyph-name="xdieresis" unicode="&#x1e8d;" horiz-adv-x="967" 
d="M796 0l-312 454h-5l-314 -454h-92l363 520l-356 515h97l304 -445h5l307 445h93l-357 -510l364 -525h-97zM272 1292c0 38 31 68 67 68c38 0 68 -30 68 -68s-30 -69 -68 -69c-36 0 -67 31 -67 69zM562 1292c0 38 31 68 67 68c39 0 69 -30 69 -68s-30 -69 -69 -69
c-36 0 -67 31 -67 69z" />
    <glyph glyph-name="Ydotaccent" unicode="&#x1e8e;" horiz-adv-x="1060" 
d="M571 0h-81v607l-470 753h96l411 -668h6l413 668h94l-469 -751v-609zM459 1643c0 41 32 72 70 72c41 0 73 -31 73 -72c0 -40 -32 -70 -73 -70c-38 0 -70 30 -70 70z" />
    <glyph glyph-name="ydotaccent" unicode="&#x1e8f;" horiz-adv-x="921" 
d="M885 1035l-373 -1036l-43 -116c-54 -142 -119 -224 -273 -224c-35 0 -68 4 -94 9v73c22 -5 59 -9 88 -9c112 0 165 63 199 159l34 96l-387 1048h89l337 -951h5l332 951h86zM389 1318c0 41 32 72 70 72c41 0 73 -31 73 -72c0 -40 -32 -70 -73 -70c-38 0 -70 30 -70 70z
" />
    <glyph glyph-name="Zcircumflex" unicode="&#x1e90;" horiz-adv-x="1152" 
d="M96 0v65l850 1217v4h-823v74h924v-65l-849 -1217v-5h853v-73h-955zM284 1502l277 212h42l272 -212h-94l-197 153h-5l-198 -153h-97z" />
    <glyph glyph-name="zcircumflex" unicode="&#x1e91;" horiz-adv-x="968" 
d="M224 1232l231 325h64l224 -325h-75l-180 270h-4l-186 -270h-74zM126 0v62l623 898v5h-624v70h725v-65l-623 -895v-5h624v-70h-725z" />
    <glyph glyph-name="Zdotbelow" unicode="&#x1e92;" horiz-adv-x="1152" 
d="M506 -288c0 41 32 72 70 72c42 0 74 -31 74 -72s-32 -71 -74 -71c-38 0 -70 30 -70 71zM96 0v65l850 1217v4h-823v74h924v-65l-849 -1217v-5h853v-73h-955z" />
    <glyph glyph-name="zdotbelow" unicode="&#x1e93;" horiz-adv-x="968" 
d="M414 -288c0 41 32 72 70 72c42 0 74 -31 74 -72s-32 -71 -74 -71c-38 0 -70 30 -70 71zM126 0v62l623 898v5h-624v70h725v-65l-623 -895v-5h624v-70h-725z" />
    <glyph glyph-name="Zlinebelow" unicode="&#x1e94;" horiz-adv-x="1152" 
d="M96 0v65l850 1217v4h-823v74h924v-65l-849 -1217v-5h853v-73h-955zM846 -279h-554v58h554v-58z" />
    <glyph glyph-name="zlinebelow" unicode="&#x1e95;" horiz-adv-x="968" 
d="M754 -279h-554v58h554v-58zM126 0v62l623 898v5h-624v70h725v-65l-623 -895v-5h624v-70h-725z" />
    <glyph glyph-name="hlinebelow" unicode="&#x1e96;" horiz-adv-x="1114" 
d="M171 0v1435h80v-592h4c32 99 138 209 332 209c212 0 364 -142 364 -379v-673h-81v661c0 178 -102 316 -291 316c-213 0 -328 -164 -328 -351v-626h-80zM825 -279h-554v58h554v-58z" />
    <glyph glyph-name="tdieresis" unicode="&#x1e97;" horiz-adv-x="664" 
d="M223 1035v252h81v-252h277v-71h-277v-733c0 -126 58 -164 192 -164c31 0 80 3 98 6v-68c-18 -3 -64 -7 -105 -7c-202 0 -266 63 -266 247v719h-194v71h194zM54 1541c0 38 31 68 67 68c38 0 68 -30 68 -68s-30 -69 -68 -69c-36 0 -67 31 -67 69zM344 1541
c0 38 31 68 67 68c39 0 69 -30 69 -68s-30 -69 -69 -69c-36 0 -67 31 -67 69z" />
    <glyph glyph-name="wring" unicode="&#x1e98;" horiz-adv-x="1400" 
d="M1361 1035l-284 -1035h-82l-292 919h-4l-290 -919h-83l-288 1035h91l237 -919h5l289 919h82l290 -919h6l238 919h85zM700 1185c-97 0 -174 76 -174 172s77 170 174 170c94 0 171 -74 171 -170s-77 -172 -171 -172zM582 1357c0 -64 54 -118 118 -118c65 0 118 54 118 118
c0 66 -53 118 -118 118c-64 0 -118 -52 -118 -118z" />
    <glyph glyph-name="yring" unicode="&#x1e99;" horiz-adv-x="921" 
d="M885 1035l-373 -1036l-43 -116c-54 -142 -119 -224 -273 -224c-35 0 -68 4 -94 9v73c22 -5 59 -9 88 -9c112 0 165 63 199 159l34 96l-387 1048h89l337 -951h5l332 951h86zM460 1185c-97 0 -174 76 -174 172s77 170 174 170c94 0 171 -74 171 -170s-77 -172 -171 -172z
M342 1357c0 -64 54 -118 118 -118c65 0 118 54 118 118c0 66 -53 118 -118 118c-64 0 -118 -52 -118 -118z" />
    <glyph glyph-name="Adotbelow" unicode="&#x1ea0;" horiz-adv-x="1149" 
d="M129 0h-85l488 1360h85l488 -1360h-88l-160 458h-567zM576 1259h-5l-258 -731h519zM505 -288c0 41 32 72 70 72c42 0 74 -31 74 -72s-32 -71 -74 -71c-38 0 -70 30 -70 71z" />
    <glyph glyph-name="adotbelow" unicode="&#x1ea1;" horiz-adv-x="1015" 
d="M770 169c-27 -66 -129 -187 -328 -187c-201 0 -338 118 -338 308c0 172 119 289 351 289h317v151c0 173 -109 248 -274 248c-185 0 -259 -99 -269 -181h-80c8 132 122 255 354 255c213 0 351 -104 351 -310v-742h-80v169h-4zM452 55c174 0 320 119 320 295v157h-315
c-185 0 -268 -89 -268 -215c0 -148 111 -237 263 -237zM437 -288c0 41 32 72 70 72c42 0 74 -31 74 -72s-32 -71 -74 -71c-38 0 -70 30 -70 71z" />
    <glyph glyph-name="Ahookabove" unicode="&#x1ea2;" horiz-adv-x="1149" 
d="M129 0h-85l488 1360h85l488 -1360h-88l-160 458h-567zM576 1259h-5l-258 -731h519zM442 1673v59c13 9 54 23 104 23c101 0 167 -55 167 -138c0 -78 -63 -125 -107 -150l-36 47c39 21 76 53 76 97c0 55 -46 85 -105 85c-45 0 -81 -15 -99 -23z" />
    <glyph glyph-name="ahookabove" unicode="&#x1ea3;" horiz-adv-x="1015" 
d="M770 169c-27 -66 -129 -187 -328 -187c-201 0 -338 118 -338 308c0 172 119 289 351 289h317v151c0 173 -109 248 -274 248c-185 0 -259 -99 -269 -181h-80c8 132 122 255 354 255c213 0 351 -104 351 -310v-742h-80v169h-4zM452 55c174 0 320 119 320 295v157h-315
c-185 0 -268 -89 -268 -215c0 -148 111 -237 263 -237zM390 1416v62c16 12 56 26 104 26c104 0 177 -60 177 -152c0 -75 -58 -126 -110 -159l-41 49c47 29 82 61 82 109c0 55 -51 89 -110 89c-45 0 -78 -10 -102 -24z" />
    <glyph glyph-name="Acircumflexacute" unicode="&#x1ea4;" horiz-adv-x="1149" 
d="M129 0h-85l488 1360h85l488 -1360h-88l-160 458h-567zM576 1259h-5l-258 -731h519zM281 1534l273 212h42l277 -212h-97l-198 153h-5l-198 -153h-94zM746 1722l260 225h103l-307 -243z" />
    <glyph glyph-name="acircumflexacute" unicode="&#x1ea5;" horiz-adv-x="1015" 
d="M770 169c-27 -66 -129 -187 -328 -187c-201 0 -338 118 -338 308c0 172 119 289 351 289h317v151c0 173 -109 248 -274 248c-185 0 -259 -99 -269 -181h-80c8 132 122 255 354 255c213 0 351 -104 351 -310v-742h-80v169h-4zM452 55c174 0 320 119 320 295v157h-315
c-185 0 -268 -89 -268 -215c0 -148 111 -237 263 -237zM213 1209l273 212h42l277 -212h-97l-198 153h-5l-198 -153h-94zM678 1397l260 225h103l-307 -243z" />
    <glyph glyph-name="Acircumflexgrave" unicode="&#x1ea6;" horiz-adv-x="1149" 
d="M129 0h-85l488 1360h85l488 -1360h-88l-160 458h-567zM576 1259h-5l-258 -731h519zM992 1704h-80l-311 243h103zM873 1534h-97l-198 153h-5l-198 -153h-94l273 212h42z" />
    <glyph glyph-name="acircumflexgrave" unicode="&#x1ea7;" horiz-adv-x="1015" 
d="M770 169c-27 -66 -129 -187 -328 -187c-201 0 -338 118 -338 308c0 172 119 289 351 289h317v151c0 173 -109 248 -274 248c-185 0 -259 -99 -269 -181h-80c8 132 122 255 354 255c213 0 351 -104 351 -310v-742h-80v169h-4zM452 55c174 0 320 119 320 295v157h-315
c-185 0 -268 -89 -268 -215c0 -148 111 -237 263 -237zM924 1379h-80l-311 243h103zM805 1209h-97l-198 153h-5l-198 -153h-94l273 212h42z" />
    <glyph glyph-name="Acircumflexhookabove" unicode="&#x1ea8;" horiz-adv-x="1149" 
d="M129 0h-85l488 1360h85l488 -1360h-88l-160 458h-567zM576 1259h-5l-258 -731h519zM278 1531l277 208h42l273 -208h-94l-198 150h-5l-198 -150h-97zM688 1947c19 4 41 10 81 10c80 0 150 -39 150 -120c0 -69 -57 -109 -106 -137l-40 34c46 25 83 56 83 98
c0 44 -42 73 -98 73c-26 0 -49 -3 -70 -9v51z" />
    <glyph glyph-name="acircumflexhookabove" unicode="&#x1ea9;" horiz-adv-x="1015" 
d="M770 169c-27 -66 -129 -187 -328 -187c-201 0 -338 118 -338 308c0 172 119 289 351 289h317v151c0 173 -109 248 -274 248c-185 0 -259 -99 -269 -181h-80c8 132 122 255 354 255c213 0 351 -104 351 -310v-742h-80v169h-4zM452 55c174 0 320 119 320 295v157h-315
c-185 0 -268 -89 -268 -215c0 -148 111 -237 263 -237zM210 1206l277 208h42l273 -208h-94l-198 150h-5l-198 -150h-97zM620 1622c19 4 41 10 81 10c80 0 150 -39 150 -120c0 -69 -57 -109 -106 -137l-40 34c46 25 83 56 83 98c0 44 -42 73 -98 73c-26 0 -49 -3 -70 -9v51z
" />
    <glyph glyph-name="Acircumflextilde" unicode="&#x1eaa;" horiz-adv-x="1149" 
d="M129 0h-85l488 1360h85l488 -1360h-88l-160 458h-567zM576 1259h-5l-258 -731h519zM279 1524l277 212h42l273 -212h-95l-197 153h-5l-198 -153h-97zM358 1804h-63c0 109 53 177 151 177c61 0 97 -28 147 -85c34 -38 61 -55 105 -55c56 0 96 53 97 127h62
c0 -102 -67 -180 -157 -180c-76 0 -112 26 -149 68c-32 36 -62 70 -106 70c-57 0 -87 -44 -87 -122z" />
    <glyph glyph-name="acircumflextilde" unicode="&#x1eab;" horiz-adv-x="1015" 
d="M770 169c-27 -66 -129 -187 -328 -187c-201 0 -338 118 -338 308c0 172 119 289 351 289h317v151c0 173 -109 248 -274 248c-185 0 -259 -99 -269 -181h-80c8 132 122 255 354 255c213 0 351 -104 351 -310v-742h-80v169h-4zM452 55c174 0 320 119 320 295v157h-315
c-185 0 -268 -89 -268 -215c0 -148 111 -237 263 -237zM211 1199l277 212h42l273 -212h-95l-197 153h-5l-198 -153h-97zM290 1479h-63c0 109 53 177 151 177c61 0 97 -28 147 -85c34 -38 61 -55 105 -55c56 0 96 53 97 127h62c0 -102 -67 -180 -157 -180
c-76 0 -112 26 -149 68c-32 36 -62 70 -106 70c-57 0 -87 -44 -87 -122z" />
    <glyph glyph-name="Acircumflexdotbelow" unicode="&#x1eac;" horiz-adv-x="1149" 
d="M129 0h-85l488 1360h85l488 -1360h-88l-160 458h-567zM576 1259h-5l-258 -731h519zM505 -288c0 41 32 72 70 72c42 0 74 -31 74 -72s-32 -71 -74 -71c-38 0 -70 30 -70 71zM283 1502l277 212h42l272 -212h-94l-197 153h-5l-198 -153h-97z" />
    <glyph glyph-name="acircumflexdotbelow" unicode="&#x1ead;" horiz-adv-x="1015" 
d="M770 169c-27 -66 -129 -187 -328 -187c-201 0 -338 118 -338 308c0 172 119 289 351 289h317v151c0 173 -109 248 -274 248c-185 0 -259 -99 -269 -181h-80c8 132 122 255 354 255c213 0 351 -104 351 -310v-742h-80v169h-4zM452 55c174 0 320 119 320 295v157h-315
c-185 0 -268 -89 -268 -215c0 -148 111 -237 263 -237zM247 1232l231 325h64l224 -325h-75l-180 270h-4l-186 -270h-74zM437 -288c0 41 32 72 70 72c42 0 74 -31 74 -72s-32 -71 -74 -71c-38 0 -70 30 -70 71z" />
    <glyph glyph-name="Abreveacute" unicode="&#x1eae;" horiz-adv-x="1149" 
d="M129 0h-85l488 1360h85l488 -1360h-88l-160 458h-567zM576 1259h-5l-258 -731h519zM847 1712c0 -119 -115 -220 -272 -220s-266 100 -266 220h66c0 -91 83 -161 200 -161s208 70 208 161h64zM486 1705l303 250h98l-314 -250h-87z" />
    <glyph glyph-name="abreveacute" unicode="&#x1eaf;" horiz-adv-x="1015" 
d="M770 169c-27 -66 -129 -187 -328 -187c-201 0 -338 118 -338 308c0 172 119 289 351 289h317v151c0 173 -109 248 -274 248c-185 0 -259 -99 -269 -181h-80c8 132 122 255 354 255c213 0 351 -104 351 -310v-742h-80v169h-4zM452 55c174 0 320 119 320 295v157h-315
c-185 0 -268 -89 -268 -215c0 -148 111 -237 263 -237zM779 1387c0 -119 -115 -220 -272 -220s-266 100 -266 220h66c0 -91 83 -161 200 -161s208 70 208 161h64zM418 1380l303 250h98l-314 -250h-87z" />
    <glyph glyph-name="Abrevegrave" unicode="&#x1eb0;" horiz-adv-x="1149" 
d="M129 0h-85l488 1360h85l488 -1360h-88l-160 458h-567zM576 1259h-5l-258 -731h519zM847 1712c0 -119 -115 -220 -272 -220s-266 100 -266 220h66c0 -91 83 -161 200 -161s208 70 208 161h64zM682 1705h-87l-314 250h98z" />
    <glyph glyph-name="abrevegrave" unicode="&#x1eb1;" horiz-adv-x="1015" 
d="M770 169c-27 -66 -129 -187 -328 -187c-201 0 -338 118 -338 308c0 172 119 289 351 289h317v151c0 173 -109 248 -274 248c-185 0 -259 -99 -269 -181h-80c8 132 122 255 354 255c213 0 351 -104 351 -310v-742h-80v169h-4zM452 55c174 0 320 119 320 295v157h-315
c-185 0 -268 -89 -268 -215c0 -148 111 -237 263 -237zM779 1387c0 -119 -115 -220 -272 -220s-266 100 -266 220h66c0 -91 83 -161 200 -161s208 70 208 161h64zM614 1380h-87l-314 250h98z" />
    <glyph glyph-name="Abrevehookabove" unicode="&#x1eb2;" horiz-adv-x="1149" 
d="M129 0h-85l488 1360h85l488 -1360h-88l-160 458h-567zM576 1259h-5l-258 -731h519zM847 1712c0 -119 -115 -220 -272 -220s-266 100 -266 220h66c0 -91 83 -161 200 -161s208 70 208 161h64zM466 1947c20 5 41 11 83 11c84 0 159 -39 159 -124c0 -76 -68 -119 -120 -143
l-38 43c55 26 92 52 92 95c0 45 -46 75 -105 75c-29 0 -49 -4 -71 -10v53z" />
    <glyph glyph-name="abrevehookabove" unicode="&#x1eb3;" horiz-adv-x="1015" 
d="M770 169c-27 -66 -129 -187 -328 -187c-201 0 -338 118 -338 308c0 172 119 289 351 289h317v151c0 173 -109 248 -274 248c-185 0 -259 -99 -269 -181h-80c8 132 122 255 354 255c213 0 351 -104 351 -310v-742h-80v169h-4zM452 55c174 0 320 119 320 295v157h-315
c-185 0 -268 -89 -268 -215c0 -148 111 -237 263 -237zM779 1387c0 -119 -115 -220 -272 -220s-266 100 -266 220h66c0 -91 83 -161 200 -161s208 70 208 161h64zM398 1622c20 5 41 11 83 11c84 0 159 -39 159 -124c0 -76 -68 -119 -120 -143l-38 43c55 26 92 52 92 95
c0 45 -46 75 -105 75c-29 0 -49 -4 -71 -10v53z" />
    <glyph glyph-name="Abrevetilde" unicode="&#x1eb4;" horiz-adv-x="1149" 
d="M129 0h-85l488 1360h85l488 -1360h-88l-160 458h-567zM576 1259h-5l-258 -731h519zM847 1712c0 -119 -115 -220 -272 -220s-266 100 -266 220h66c0 -91 83 -161 200 -161s208 70 208 161h64zM553 1851c-33 37 -61 70 -106 70c-55 0 -86 -42 -86 -122h-64
c0 112 57 179 151 179c61 0 96 -28 145 -85c34 -38 60 -55 104 -55c56 0 96 52 97 127h62c0 -104 -68 -182 -157 -182c-74 0 -110 26 -146 68z" />
    <glyph glyph-name="abrevetilde" unicode="&#x1eb5;" horiz-adv-x="1015" 
d="M770 169c-27 -66 -129 -187 -328 -187c-201 0 -338 118 -338 308c0 172 119 289 351 289h317v151c0 173 -109 248 -274 248c-185 0 -259 -99 -269 -181h-80c8 132 122 255 354 255c213 0 351 -104 351 -310v-742h-80v169h-4zM452 55c174 0 320 119 320 295v157h-315
c-185 0 -268 -89 -268 -215c0 -148 111 -237 263 -237zM779 1387c0 -119 -115 -220 -272 -220s-266 100 -266 220h66c0 -91 83 -161 200 -161s208 70 208 161h64zM485 1526c-33 37 -61 70 -106 70c-55 0 -86 -42 -86 -122h-64c0 112 57 179 151 179c61 0 96 -28 145 -85
c34 -38 60 -55 104 -55c56 0 96 52 97 127h62c0 -104 -68 -182 -157 -182c-74 0 -110 26 -146 68z" />
    <glyph glyph-name="Abrevedotbelow" unicode="&#x1eb6;" horiz-adv-x="1149" 
d="M129 0h-85l488 1360h85l488 -1360h-88l-160 458h-567zM576 1259h-5l-258 -731h519zM505 -288c0 41 32 72 70 72c42 0 74 -31 74 -72s-32 -71 -74 -71c-38 0 -70 30 -70 71zM300 1715h67c0 -101 79 -166 208 -166s201 65 201 166h68c0 -118 -82 -229 -269 -229
s-275 108 -275 229z" />
    <glyph glyph-name="abrevedotbelow" unicode="&#x1eb7;" horiz-adv-x="1015" 
d="M770 169c-27 -66 -129 -187 -328 -187c-201 0 -338 118 -338 308c0 172 119 289 351 289h317v151c0 173 -109 248 -274 248c-185 0 -259 -99 -269 -181h-80c8 132 122 255 354 255c213 0 351 -104 351 -310v-742h-80v169h-4zM452 55c174 0 320 119 320 295v157h-315
c-185 0 -268 -89 -268 -215c0 -148 111 -237 263 -237zM437 -288c0 41 32 72 70 72c42 0 74 -31 74 -72s-32 -71 -74 -71c-38 0 -70 30 -70 71zM233 1434h68c0 -104 72 -181 201 -181c128 0 194 77 194 181h67c0 -118 -82 -242 -261 -242c-180 0 -269 121 -269 242z" />
    <glyph glyph-name="Edotbelow" unicode="&#x1eb8;" horiz-adv-x="1073" 
d="M506 -288c0 41 32 72 70 72c42 0 74 -31 74 -72s-32 -71 -74 -71c-38 0 -70 30 -70 71zM966 75v-75h-776v1360h776v-76h-694v-550h660v-75h-660v-584h694z" />
    <glyph glyph-name="edotbelow" unicode="&#x1eb9;" horiz-adv-x="1046" 
d="M462 -288c0 41 32 72 70 72c42 0 74 -31 74 -72s-32 -71 -74 -71c-38 0 -70 30 -70 71zM536 -18c-264 0 -414 178 -414 475v105c0 315 155 490 402 490c248 0 403 -173 403 -489v-53h-724v-53c0 -250 123 -401 333 -401c194 0 282 115 293 205h83
c-12 -117 -122 -279 -376 -279zM203 581h643v4c0 247 -126 394 -322 394c-195 0 -321 -147 -321 -394v-4z" />
    <glyph glyph-name="Ehookabove" unicode="&#x1eba;" horiz-adv-x="1073" 
d="M966 75v-75h-776v1360h776v-76h-694v-550h660v-75h-660v-584h694zM443 1673v59c13 9 54 23 104 23c101 0 167 -55 167 -138c0 -78 -63 -125 -107 -150l-36 47c39 21 76 53 76 97c0 55 -46 85 -105 85c-45 0 -81 -15 -99 -23z" />
    <glyph glyph-name="ehookabove" unicode="&#x1ebb;" horiz-adv-x="1046" 
d="M536 -18c-264 0 -414 178 -414 475v105c0 315 155 490 402 490c248 0 403 -173 403 -489v-53h-724v-53c0 -250 123 -401 333 -401c194 0 282 115 293 205h83c-12 -117 -122 -279 -376 -279zM203 581h643v4c0 247 -126 394 -322 394c-195 0 -321 -147 -321 -394v-4z
M406 1416v62c16 12 56 26 104 26c104 0 177 -60 177 -152c0 -75 -58 -126 -110 -159l-41 49c47 29 82 61 82 109c0 55 -51 89 -110 89c-45 0 -78 -10 -102 -24z" />
    <glyph glyph-name="Etilde" unicode="&#x1ebc;" horiz-adv-x="1073" 
d="M966 75v-75h-776v1360h776v-76h-694v-550h660v-75h-660v-584h694zM543 1563c-31 41 -60 73 -104 73c-57 0 -88 -44 -88 -129h-58c0 115 52 185 148 185c60 0 96 -28 145 -86c34 -43 56 -62 100 -62c56 0 98 56 99 137h58c0 -108 -65 -190 -155 -190
c-72 0 -105 28 -145 72z" />
    <glyph glyph-name="etilde" unicode="&#x1ebd;" horiz-adv-x="1046" 
d="M536 -18c-264 0 -414 178 -414 475v105c0 315 155 490 402 490c248 0 403 -173 403 -489v-53h-724v-53c0 -250 123 -401 333 -401c194 0 282 115 293 205h83c-12 -117 -122 -279 -376 -279zM203 581h643v4c0 247 -126 394 -322 394c-195 0 -321 -147 -321 -394v-4z
M487 1281c-36 45 -71 83 -120 83c-63 0 -99 -51 -99 -147h-65c0 133 59 210 166 210c67 0 108 -30 162 -98c39 -48 67 -68 116 -68c62 0 110 63 111 155h64c0 -122 -73 -216 -173 -216c-82 0 -121 31 -162 81z" />
    <glyph glyph-name="Ecircumflexacute" unicode="&#x1ebe;" horiz-adv-x="1073" 
d="M282 1534l273 212h42l277 -212h-97l-198 153h-5l-198 -153h-94zM747 1722l260 225h103l-307 -243zM966 75v-75h-776v1360h776v-76h-694v-550h660v-75h-660v-584h694z" />
    <glyph glyph-name="ecircumflexacute" unicode="&#x1ebf;" horiz-adv-x="1046" 
d="M229 1209l273 212h42l277 -212h-97l-198 153h-5l-198 -153h-94zM694 1397l260 225h103l-307 -243zM536 -18c-264 0 -414 178 -414 475v105c0 315 155 490 402 490c248 0 403 -173 403 -489v-53h-724v-53c0 -250 123 -401 333 -401c194 0 282 115 293 205h83
c-12 -117 -122 -279 -376 -279zM203 581h643v4c0 247 -126 394 -322 394c-195 0 -321 -147 -321 -394v-4z" />
    <glyph glyph-name="Ecircumflexgrave" unicode="&#x1ec0;" horiz-adv-x="1073" 
d="M993 1704h-80l-311 243h103zM874 1534h-97l-198 153h-5l-198 -153h-94l273 212h42zM966 75v-75h-776v1360h776v-76h-694v-550h660v-75h-660v-584h694z" />
    <glyph glyph-name="ecircumflexgrave" unicode="&#x1ec1;" horiz-adv-x="1046" 
d="M940 1379h-80l-311 243h103zM821 1209h-97l-198 153h-5l-198 -153h-94l273 212h42zM536 -18c-264 0 -414 178 -414 475v105c0 315 155 490 402 490c248 0 403 -173 403 -489v-53h-724v-53c0 -250 123 -401 333 -401c194 0 282 115 293 205h83
c-12 -117 -122 -279 -376 -279zM203 581h643v4c0 247 -126 394 -322 394c-195 0 -321 -147 -321 -394v-4z" />
    <glyph glyph-name="Ecircumflexhookabove" unicode="&#x1ec2;" horiz-adv-x="1073" 
d="M279 1531l277 208h42l273 -208h-94l-198 150h-5l-198 -150h-97zM689 1947c19 4 41 10 81 10c80 0 150 -39 150 -120c0 -69 -57 -109 -106 -137l-40 34c46 25 83 56 83 98c0 44 -42 73 -98 73c-26 0 -49 -3 -70 -9v51zM966 75v-75h-776v1360h776v-76h-694v-550h660v-75
h-660v-584h694z" />
    <glyph glyph-name="ecircumflexhookabove" unicode="&#x1ec3;" horiz-adv-x="1046" 
d="M226 1206l277 208h42l273 -208h-94l-198 150h-5l-198 -150h-97zM636 1622c19 4 41 10 81 10c80 0 150 -39 150 -120c0 -69 -57 -109 -106 -137l-40 34c46 25 83 56 83 98c0 44 -42 73 -98 73c-26 0 -49 -3 -70 -9v51zM536 -18c-264 0 -414 178 -414 475v105
c0 315 155 490 402 490c248 0 403 -173 403 -489v-53h-724v-53c0 -250 123 -401 333 -401c194 0 282 115 293 205h83c-12 -117 -122 -279 -376 -279zM203 581h643v4c0 247 -126 394 -322 394c-195 0 -321 -147 -321 -394v-4z" />
    <glyph glyph-name="Ecircumflextilde" unicode="&#x1ec4;" horiz-adv-x="1073" 
d="M966 75v-75h-776v1360h776v-76h-694v-550h660v-75h-660v-584h694zM280 1524l277 212h42l273 -212h-95l-197 153h-5l-198 -153h-97zM359 1804h-63c0 109 53 177 151 177c61 0 97 -28 147 -85c34 -38 61 -55 105 -55c56 0 96 53 97 127h62c0 -102 -67 -180 -157 -180
c-76 0 -112 26 -149 68c-32 36 -62 70 -106 70c-57 0 -87 -44 -87 -122z" />
    <glyph glyph-name="ecircumflextilde" unicode="&#x1ec5;" horiz-adv-x="1046" 
d="M536 -18c-264 0 -414 178 -414 475v105c0 315 155 490 402 490c248 0 403 -173 403 -489v-53h-724v-53c0 -250 123 -401 333 -401c194 0 282 115 293 205h83c-12 -117 -122 -279 -376 -279zM203 581h643v4c0 247 -126 394 -322 394c-195 0 -321 -147 -321 -394v-4z
M227 1199l277 212h42l273 -212h-95l-197 153h-5l-198 -153h-97zM306 1479h-63c0 109 53 177 151 177c61 0 97 -28 147 -85c34 -38 61 -55 105 -55c56 0 96 53 97 127h62c0 -102 -67 -180 -157 -180c-76 0 -112 26 -149 68c-32 36 -62 70 -106 70c-57 0 -87 -44 -87 -122z
" />
    <glyph glyph-name="Ecircumflexdotbelow" unicode="&#x1ec6;" horiz-adv-x="1073" 
d="M506 -288c0 41 32 72 70 72c42 0 74 -31 74 -72s-32 -71 -74 -71c-38 0 -70 30 -70 71zM284 1502l277 212h42l272 -212h-94l-197 153h-5l-198 -153h-97zM966 75v-75h-776v1360h776v-76h-694v-550h660v-75h-660v-584h694z" />
    <glyph glyph-name="ecircumflexdotbelow" unicode="&#x1ec7;" horiz-adv-x="1046" 
d="M263 1232l231 325h64l224 -325h-75l-180 270h-4l-186 -270h-74zM536 -18c-264 0 -414 178 -414 475v105c0 315 155 490 402 490c248 0 403 -173 403 -489v-53h-724v-53c0 -250 123 -401 333 -401c194 0 282 115 293 205h83c-12 -117 -122 -279 -376 -279zM203 581h643v4
c0 247 -126 394 -322 394c-195 0 -321 -147 -321 -394v-4zM462 -288c0 41 32 72 70 72c42 0 74 -31 74 -72s-32 -71 -74 -71c-38 0 -70 30 -70 71z" />
    <glyph glyph-name="Ihookabove" unicode="&#x1ec8;" horiz-adv-x="493" 
d="M287 0h-81v1360h81v-1360zM113 1673v59c13 9 54 23 104 23c101 0 167 -55 167 -138c0 -78 -63 -125 -107 -150l-36 47c39 21 76 53 76 97c0 55 -46 85 -105 85c-45 0 -81 -15 -99 -23z" />
    <glyph glyph-name="ihookabove" unicode="&#x1ec9;" horiz-adv-x="425" 
d="M172 0v1035h80v-1035h-80zM95 1416v62c16 12 56 26 104 26c104 0 177 -60 177 -152c0 -75 -58 -126 -110 -159l-41 49c47 29 82 61 82 109c0 55 -51 89 -110 89c-45 0 -78 -10 -102 -24z" />
    <glyph glyph-name="Idotbelow" unicode="&#x1eca;" horiz-adv-x="493" 
d="M287 0h-81v1360h81v-1360zM176 -288c0 41 32 72 70 72c42 0 74 -31 74 -72s-32 -71 -74 -71c-38 0 -70 30 -70 71z" />
    <glyph glyph-name="idotbelow" unicode="&#x1ecb;" horiz-adv-x="458" 
d="M189 0v1035h80v-1035h-80zM158 1322c0 41 31 72 70 72c41 0 73 -31 73 -72c0 -40 -32 -71 -73 -71c-39 0 -70 31 -70 71zM159 -288c0 41 32 72 70 72c42 0 74 -31 74 -72s-32 -71 -74 -71c-38 0 -70 30 -70 71z" />
    <glyph glyph-name="Odotbelow" unicode="&#x1ecc;" horiz-adv-x="1309" 
d="M584 -288c0 41 32 72 70 72c42 0 74 -31 74 -72s-32 -71 -74 -71c-38 0 -70 30 -70 71zM216 806v-256c0 -307 167 -506 438 -506c272 0 439 199 439 506v256c0 307 -169 510 -439 510c-269 0 -438 -203 -438 -510zM135 556v244c0 358 191 591 520 591s519 -234 519 -593
v-242c0 -358 -191 -587 -520 -587s-519 229 -519 587z" />
    <glyph glyph-name="odotbelow" unicode="&#x1ecd;" horiz-adv-x="1085" 
d="M472 -288c0 41 32 72 70 72c42 0 74 -31 74 -72s-32 -71 -74 -71c-38 0 -70 30 -70 71zM542 1052c246 0 423 -170 423 -464v-145c0 -296 -175 -461 -423 -461c-249 0 -422 165 -422 461v145c0 295 171 464 422 464zM542 979c-205 0 -341 -147 -341 -402v-123
c0 -254 134 -398 342 -398c204 0 340 142 340 398v123c0 253 -136 402 -341 402z" />
    <glyph glyph-name="Ohookabove" unicode="&#x1ece;" horiz-adv-x="1309" 
d="M521 1673v59c13 9 54 23 104 23c101 0 167 -55 167 -138c0 -78 -63 -125 -107 -150l-36 47c39 21 76 53 76 97c0 55 -46 85 -105 85c-45 0 -81 -15 -99 -23zM216 806v-256c0 -307 167 -506 438 -506c272 0 439 199 439 506v256c0 307 -169 510 -439 510
c-269 0 -438 -203 -438 -510zM135 556v244c0 358 191 591 520 591s519 -234 519 -593v-242c0 -358 -191 -587 -520 -587s-519 229 -519 587z" />
    <glyph glyph-name="ohookabove" unicode="&#x1ecf;" horiz-adv-x="1085" 
d="M542 1052c246 0 423 -170 423 -464v-145c0 -296 -175 -461 -423 -461c-249 0 -422 165 -422 461v145c0 295 171 464 422 464zM542 979c-205 0 -341 -147 -341 -402v-123c0 -254 134 -398 342 -398c204 0 340 142 340 398v123c0 253 -136 402 -341 402zM425 1416v62
c16 12 56 26 104 26c104 0 177 -60 177 -152c0 -75 -58 -126 -110 -159l-41 49c47 29 82 61 82 109c0 55 -51 89 -110 89c-45 0 -78 -10 -102 -24z" />
    <glyph glyph-name="Ocircumflexacute" unicode="&#x1ed0;" horiz-adv-x="1309" 
d="M360 1534l273 212h42l277 -212h-97l-198 153h-5l-198 -153h-94zM825 1722l260 225h103l-307 -243zM216 806v-256c0 -307 167 -506 438 -506c272 0 439 199 439 506v256c0 307 -169 510 -439 510c-269 0 -438 -203 -438 -510zM135 556v244c0 358 191 591 520 591
s519 -234 519 -593v-242c0 -358 -191 -587 -520 -587s-519 229 -519 587z" />
    <glyph glyph-name="ocircumflexacute" unicode="&#x1ed1;" horiz-adv-x="1085" 
d="M248 1209l273 212h42l277 -212h-97l-198 153h-5l-198 -153h-94zM713 1397l260 225h103l-307 -243zM542 1052c246 0 423 -170 423 -464v-145c0 -296 -175 -461 -423 -461c-249 0 -422 165 -422 461v145c0 295 171 464 422 464zM542 979c-205 0 -341 -147 -341 -402v-123
c0 -254 134 -398 342 -398c204 0 340 142 340 398v123c0 253 -136 402 -341 402z" />
    <glyph glyph-name="Ocircumflexgrave" unicode="&#x1ed2;" horiz-adv-x="1309" 
d="M1071 1704h-80l-311 243h103zM952 1534h-97l-198 153h-5l-198 -153h-94l273 212h42zM216 806v-256c0 -307 167 -506 438 -506c272 0 439 199 439 506v256c0 307 -169 510 -439 510c-269 0 -438 -203 -438 -510zM135 556v244c0 358 191 591 520 591s519 -234 519 -593
v-242c0 -358 -191 -587 -520 -587s-519 229 -519 587z" />
    <glyph glyph-name="ocircumflexgrave" unicode="&#x1ed3;" horiz-adv-x="1085" 
d="M959 1379h-80l-311 243h103zM840 1209h-97l-198 153h-5l-198 -153h-94l273 212h42zM542 1052c246 0 423 -170 423 -464v-145c0 -296 -175 -461 -423 -461c-249 0 -422 165 -422 461v145c0 295 171 464 422 464zM542 979c-205 0 -341 -147 -341 -402v-123
c0 -254 134 -398 342 -398c204 0 340 142 340 398v123c0 253 -136 402 -341 402z" />
    <glyph glyph-name="Ocircumflexhookabove" unicode="&#x1ed4;" horiz-adv-x="1309" 
d="M357 1531l277 208h42l273 -208h-94l-198 150h-5l-198 -150h-97zM767 1947c19 4 41 10 81 10c80 0 150 -39 150 -120c0 -69 -57 -109 -106 -137l-40 34c46 25 83 56 83 98c0 44 -42 73 -98 73c-26 0 -49 -3 -70 -9v51zM216 806v-256c0 -307 167 -506 438 -506
c272 0 439 199 439 506v256c0 307 -169 510 -439 510c-269 0 -438 -203 -438 -510zM135 556v244c0 358 191 591 520 591s519 -234 519 -593v-242c0 -358 -191 -587 -520 -587s-519 229 -519 587z" />
    <glyph glyph-name="ocircumflexhookabove" unicode="&#x1ed5;" horiz-adv-x="1085" 
d="M245 1206l277 208h42l273 -208h-94l-198 150h-5l-198 -150h-97zM655 1622c19 4 41 10 81 10c80 0 150 -39 150 -120c0 -69 -57 -109 -106 -137l-40 34c46 25 83 56 83 98c0 44 -42 73 -98 73c-26 0 -49 -3 -70 -9v51zM542 1052c246 0 423 -170 423 -464v-145
c0 -296 -175 -461 -423 -461c-249 0 -422 165 -422 461v145c0 295 171 464 422 464zM542 979c-205 0 -341 -147 -341 -402v-123c0 -254 134 -398 342 -398c204 0 340 142 340 398v123c0 253 -136 402 -341 402z" />
    <glyph glyph-name="Ocircumflextilde" unicode="&#x1ed6;" horiz-adv-x="1309" 
d="M358 1524l277 212h42l273 -212h-95l-197 153h-5l-198 -153h-97zM437 1804h-63c0 109 53 177 151 177c61 0 97 -28 147 -85c34 -38 61 -55 105 -55c56 0 96 53 97 127h62c0 -102 -67 -180 -157 -180c-76 0 -112 26 -149 68c-32 36 -62 70 -106 70c-57 0 -87 -44 -87 -122z
M216 806v-256c0 -307 167 -506 438 -506c272 0 439 199 439 506v256c0 307 -169 510 -439 510c-269 0 -438 -203 -438 -510zM135 556v244c0 358 191 591 520 591s519 -234 519 -593v-242c0 -358 -191 -587 -520 -587s-519 229 -519 587z" />
    </font>
</defs>
</svg>
